<?xml version="1.0" encoding="UTF-8"?>
<svg version="1.1" xmlns="http://www.w3.org/2000/svg" width="1024" height="235">
<path d="M0 0 C7.02283044 -0.43456861 14.04216134 -0.73006509 21.07543945 -0.93383789 C23.46152167 -1.01883048 25.84673128 -1.13448755 28.22973633 -1.2824707 C47.45003755 -2.44526473 47.45003755 -2.44526473 53.29882812 1.58346558 C57.29455011 5.52891115 60.13004081 10.08555002 62.84085083 14.97372437 C64.2938493 17.5136696 66.02994292 19.68011744 67.9453125 21.88671875 C68.47842041 22.52681885 69.01152832 23.16691895 69.56079102 23.82641602 C70.07697998 24.44057373 70.59316895 25.05473145 71.125 25.6875 C75.34308495 30.75869395 79.50749762 35.85985544 83.5625 41.0625 C87.93255711 46.66839479 92.3835834 52.20275754 96.88305664 57.70532227 C102.64389145 64.75915495 108.31648061 71.88386513 114 79 C114.04647197 71.42828215 114.08194443 63.85657921 114.10362434 56.28475094 C114.114033 52.76831438 114.12813839 49.25197586 114.15087891 45.7355957 C114.17689549 41.68700249 114.1864969 37.63851124 114.1953125 33.58984375 C114.20563507 32.33541977 114.21595764 31.08099579 114.22659302 29.78855896 C114.22736056 23.78943984 114.08898769 18.64492837 112 13 C111.505 11.515 111.505 11.515 111 10 C106.04578151 7.51225939 100.465476 6.58143362 95 6 C95 4.02 95 2.04 95 0 C111.17 0 127.34 0 144 0 C144 1.98 144 3.96 144 6 C143.27554688 6.08636719 142.55109375 6.17273437 141.8046875 6.26171875 C135.38909754 7.19411782 131.2659169 7.9684057 127 13 C124.80759506 19.6492374 124.69490214 25.96469842 124.68115234 32.92382812 C124.67110672 34.0954248 124.6610611 35.26702148 124.65071106 36.47412109 C124.61994923 40.32649265 124.60286313 44.17879491 124.5859375 48.03125 C124.56722023 50.71025592 124.54774162 53.38924549 124.5272522 56.0682373 C124.48059494 62.38614601 124.44378799 68.70407158 124.41057932 75.02206373 C124.37226528 82.21926506 124.32287966 89.41637736 124.27259517 96.61350346 C124.16946968 111.40893338 124.08014667 126.20442731 124 141 C118.20852661 141.15185547 118.20852661 141.15185547 116.33178711 139.78515625 C115.9013208 139.21667969 115.47085449 138.64820313 115.02734375 138.0625 C114.5271875 137.42304443 114.02703125 136.78358887 113.51171875 136.12475586 C112.99222656 135.42358643 112.47273438 134.72241699 111.9375 134 C110.7907633 132.52182601 109.64361648 131.04397012 108.49609375 129.56640625 C107.91585449 128.80602051 107.33561523 128.04563477 106.73779297 127.26220703 C104.05466487 123.76939094 101.28093908 120.35259952 98.5 116.9375 C97.96576416 116.27766113 97.43152832 115.61782227 96.88110352 114.93798828 C93.13773598 110.33379822 89.2851292 105.83792459 85.375 101.375 C77.6530258 92.55087688 70.47467042 83.36072493 63.5 73.9375 C59.04731354 67.96361105 54.27820736 62.30643991 49.42480469 56.65869141 C47.02390698 53.86367786 44.63586195 51.05784831 42.25 48.25 C41.40953125 47.26515625 40.5690625 46.2803125 39.703125 45.265625 C37.51311576 42.65878905 35.41727839 39.98639919 33.33105469 37.29589844 C32.70575867 36.4900531 32.08046265 35.68420776 31.43621826 34.85394287 C30.96226624 34.24214172 30.48831421 33.63034058 30 33 C29.95357826 43.81405565 29.91808084 54.62808744 29.89637566 65.4422226 C29.88595618 70.4641218 29.87183056 75.48595264 29.84912109 80.5078125 C29.82732719 85.35777963 29.81541757 90.20768115 29.81024551 95.05769348 C29.8065615 96.9043735 29.79936761 98.75105008 29.78853989 100.59770203 C29.7739379 103.19216563 29.77202568 105.78636103 29.77294922 108.38085938 C29.76575867 109.1375592 29.75856812 109.89425903 29.75115967 110.67388916 C29.77348483 116.50247247 30.08428759 122.63728803 33.875 127.3125 C38.64035061 129.88578933 43.72688043 130.88986956 49 132 C49 133.98 49 135.96 49 138 C32.83 138 16.66 138 0 138 C0 136.02 0 134.04 0 132 C0.81984375 131.82984375 1.6396875 131.6596875 2.484375 131.484375 C3.56203125 131.24203125 4.6396875 130.9996875 5.75 130.75 C6.81734375 130.51796875 7.8846875 130.2859375 8.984375 130.046875 C12.3944764 128.86305742 13.81580218 127.85323139 16 125 C18.26771396 119.72150474 18.32060511 114.83373821 18.35400391 109.19018555 C18.3671463 108.2186554 18.3802887 107.24712524 18.39382935 106.24615479 C18.43313082 103.0430059 18.45658027 99.8400436 18.4765625 96.63671875 C18.48471355 95.53916574 18.49286461 94.44161274 18.50126266 93.31080055 C18.54290952 87.50383899 18.57154742 81.69697096 18.59033203 75.88989258 C18.6124737 69.90412648 18.68130579 63.91984479 18.76067543 57.93460369 C18.81304226 53.31992389 18.82971823 48.70559752 18.83689499 44.09064674 C18.84661477 41.88465129 18.86980955 39.67867099 18.90697098 37.47296715 C19.6562364 24.00183249 19.6562364 24.00183249 14.29052734 12.20629883 C10.16817448 8.48334937 5.39883216 6.96249672 0 6 C0 4.02 0 2.04 0 0 Z " fill="#FFF6E5" transform="translate(46,49)"/>
<path d="M0 0 C1.65 0 3.3 0 5 0 C9.33829917 8.97272797 13.33224802 18.06024293 17.1875 27.25 C22.64156472 40.23319777 28.32408894 53.10470866 34.08355713 65.95489502 C36.19841525 70.67434564 38.31071483 75.39494279 40.42321777 80.115448 C42.26409569 84.2289102 44.10575311 88.34201724 45.94970703 92.45410156 C46.63969854 93.99411818 47.32964069 95.53415691 48.01953125 97.07421875 C48.35413864 97.82013779 48.68874603 98.56605682 49.03349304 99.33457947 C50.69935745 103.05676312 52.34519804 106.78601625 53.95581055 110.5324707 C54.26882614 111.25831863 54.58184174 111.98416656 54.90434265 112.73200989 C55.48964436 114.09301313 56.07109267 115.45568321 56.64778137 116.82035828 C59.5174746 123.48955235 62.94982756 128.89660751 69 133 C70.98014432 133.72351427 72.97821315 134.40265389 75 135 C75 136.98 75 138.96 75 141 C52.56 141 30.12 141 7 141 C7 139.02 7 137.04 7 135 C7.75925781 134.87882813 8.51851562 134.75765625 9.30078125 134.6328125 C10.29464844 134.46523437 11.28851562 134.29765625 12.3125 134.125 C13.29863281 133.96257812 14.28476562 133.80015625 15.30078125 133.6328125 C18.20059827 133.11914546 18.20059827 133.11914546 21 131 C20.42543475 122.76456479 17.04260037 115.02286787 13.3359375 107.72265625 C12 105 12 105 12 103 C-3.18 103.33 -18.36 103.66 -34 104 C-40.06937567 116.424979 -40.06937567 116.424979 -40.01171875 129.88671875 C-37.19956796 132.8408422 -34.79063147 133.11906424 -30.8125 133.8125 C-29.54019531 134.04582031 -28.26789063 134.27914062 -26.95703125 134.51953125 C-25.98121094 134.67808594 -25.00539063 134.83664063 -24 135 C-24 136.98 -24 138.96 -24 141 C-39.84 141 -55.68 141 -72 141 C-72 139.02 -72 137.04 -72 135 C-71.34773438 134.72027344 -70.69546875 134.44054687 -70.0234375 134.15234375 C-57.54905028 128.43031657 -53.57713274 118.92129451 -48 107 C-47.56461914 106.07316406 -47.12923828 105.14632812 -46.68066406 104.19140625 C-45.25792662 101.15223939 -43.84528202 98.10862192 -42.4375 95.0625 C-42.00284424 94.12349854 -41.56818848 93.18449707 -41.12036133 92.21704102 C-38.5138902 86.51559765 -36.06600515 80.76612356 -33.703125 74.9609375 C-29.80146326 65.3907984 -25.57408872 55.97668548 -21.3125 46.5625 C-20.521535 44.80994644 -19.73068337 43.05734171 -18.93994141 41.3046875 C-12.70533195 27.50002768 -6.39487642 13.73118886 0 0 Z M-11 52 C-15.68727385 60.94261462 -19.87291347 70.07145991 -23.9375 79.3125 C-24.68253784 81.00427368 -24.68253784 81.00427368 -25.44262695 82.73022461 C-27.81214842 87.21134653 -27.81214842 87.21134653 -29 92 C-17.12 92 -5.24 92 7 92 C3.1183503 81.81662347 3.1183503 81.81662347 -1.11328125 71.82421875 C-1.63857422 70.64794922 -2.16386719 69.47167969 -2.70507812 68.25976562 C-3.23552734 67.08091797 -3.76597656 65.90207031 -4.3125 64.6875 C-4.86814853 63.44610225 -5.4234884 62.20456629 -5.97851562 60.96289062 C-7.31600317 57.97389671 -8.65653014 54.98630856 -10 52 C-10.33 52 -10.66 52 -11 52 Z " fill="#FFF6E6" transform="translate(521,46)"/>
<path d="M0 0 C13.86 0 27.72 0 42 0 C42.05607422 7.89099609 42.05607422 7.89099609 42.11328125 15.94140625 C42.1435713 19.28193328 42.17472587 22.62240769 42.20898438 25.96289062 C42.26323198 31.26047054 42.31434494 36.55794638 42.34643555 41.85571289 C42.37252004 46.12879522 42.4129585 50.40152645 42.46318626 54.67439079 C42.47982027 56.30134641 42.49135609 57.9283627 42.49761391 59.55539131 C42.50729307 61.8414163 42.53539598 64.12655007 42.56762695 66.41235352 C42.58428154 68.36094017 42.58428154 68.36094017 42.60127258 70.34889221 C43.06163183 74.5643566 44.07900705 77.24131808 46 81 C47.71972643 82.34733023 47.71972643 82.34733023 50 82 C55.88775504 80.25547999 60.01971512 77.4801652 63 72 C63.86661761 67.52457471 63.81781781 63.13312195 63.76171875 58.5859375 C63.76508743 57.29813385 63.76845612 56.0103302 63.77192688 54.6835022 C63.77624182 51.9682259 63.7595456 49.25414419 63.72729492 46.5390625 C63.6874317 43.06729174 63.69685411 39.59774876 63.72152996 36.12590599 C63.73915353 32.79987076 63.71772638 29.47447129 63.69921875 26.1484375 C63.70620285 24.90565033 63.71318695 23.66286316 63.72038269 22.38241577 C63.84841208 15.49256286 63.84841208 15.49256286 60.63208008 9.72900391 C57.97723506 7.98504579 56.14780701 7.26981203 53 7 C53 4.69 53 2.38 53 0 C66.86 0 80.72 0 95 0 C95.03738281 5.93355469 95.07476562 11.86710937 95.11328125 17.98046875 C95.14355851 21.74026339 95.17470475 25.50001055 95.20898438 29.25976562 C95.26330736 35.22694511 95.31441743 41.19403067 95.34643555 47.16137695 C95.3724517 51.97259059 95.41284227 56.78348879 95.46318626 61.59450722 C95.47986638 63.42966093 95.49137353 65.26486921 95.49761391 67.10008812 C95.50724256 69.67147232 95.53528661 72.24204742 95.56762695 74.81323242 C95.56619186 75.57136734 95.56475677 76.32950226 95.5632782 77.11061096 C95.64219982 81.54980956 96.14673798 84.53216093 99 88 C102.57996259 89.36900354 102.57996259 89.36900354 106 90 C106 91.98 106 93.96 106 96 C92.14 96 78.28 96 64 96 C63.505 92.535 63.505 92.535 63 89 C62.45472656 89.47050781 61.90945313 89.94101563 61.34765625 90.42578125 C52.34101139 97.86203675 45.240171 99.6323719 33.52734375 99.33984375 C25.77349863 98.59279555 21.64479157 95.14754789 16.54296875 89.48828125 C11.71841318 81.70792201 11.54773093 73.65539063 11.5234375 64.71484375 C11.50785797 63.45918106 11.49227844 62.20351837 11.47622681 60.9098053 C11.43693113 57.59370081 11.40949012 54.27797074 11.38873291 50.96173096 C11.35705573 46.29251411 11.30529655 41.62349983 11.25234985 36.95448303 C11.22535339 34.4758917 11.20390434 31.99723183 11.18881226 29.51853943 C11.1734142 19.11220515 11.1734142 19.11220515 9 9 C6.89415562 8.19436362 6.89415562 8.19436362 4.4375 7.8125 C3.61121094 7.65394531 2.78492188 7.49539062 1.93359375 7.33203125 C1.29550781 7.22246094 0.65742188 7.11289063 0 7 C0 4.69 0 2.38 0 0 Z " fill="#FFF5E5" transform="translate(196,91)"/>
<path d="M0 0 C3.25664494 2.85949311 4.36488348 5.09356618 5.5625 9.25 C5.4709746 14.55847307 4.31589955 17.49660045 0.5625 21.25 C-2.75323688 23.3480105 -5.48671146 23.54779021 -9.375 23.5625 C-10.39464844 23.57925781 -11.41429687 23.59601563 -12.46484375 23.61328125 C-16.79571694 23.08401554 -19.39422958 21.29327042 -22.4375 18.25 C-22.73809943 15.88490639 -22.93265012 13.50558119 -23.0625 11.125 C-23.13726563 9.84367187 -23.21203125 8.56234375 -23.2890625 7.2421875 C-23.33804688 6.25476562 -23.38703125 5.26734375 -23.4375 4.25 C-24.7575 4.25 -26.0775 4.25 -27.4375 4.25 C-29.48208801 11.95460604 -29.85966461 19.36388813 -30.0625 27.3125 C-30.10117187 28.55966797 -30.13984375 29.80683594 -30.1796875 31.09179688 C-30.27325103 34.14430704 -30.35643154 37.19713244 -30.4375 40.25 C-25.8175 40.25 -21.1975 40.25 -16.4375 40.25 C-16.33984375 49.52734375 -16.33984375 49.52734375 -16.4375 52.25 C-17.4375 53.25 -17.4375 53.25 -20.37890625 53.34765625 C-21.57386719 53.33605469 -22.76882813 53.32445312 -24 53.3125 C-25.79630859 53.29896484 -25.79630859 53.29896484 -27.62890625 53.28515625 C-28.55574219 53.27355469 -29.48257813 53.26195312 -30.4375 53.25 C-30.35273001 61.42201714 -30.25770851 69.59382618 -30.14997292 77.76556969 C-30.10024893 81.56096187 -30.05391906 85.35632939 -30.015625 89.15185547 C-29.97846741 92.82189974 -29.93202977 96.49172477 -29.87943649 100.16157913 C-29.86105293 101.55440001 -29.84588733 102.94726758 -29.83415604 104.34016037 C-29.76522623 112.24900735 -29.28340592 119.54901006 -27.4375 127.25 C-24.1375 128.24 -20.8375 129.23 -17.4375 130.25 C-17.4375 132.23 -17.4375 134.21 -17.4375 136.25 C-36.5775 136.25 -55.7175 136.25 -75.4375 136.25 C-75.4375 134.6 -75.4375 132.95 -75.4375 131.25 C-74.40689453 130.90388672 -74.40689453 130.90388672 -73.35546875 130.55078125 C-72.45441406 130.22464844 -71.55335938 129.89851562 -70.625 129.5625 C-69.73167969 129.24925781 -68.83835937 128.93601563 -67.91796875 128.61328125 C-64.77747701 126.88724721 -63.9888669 125.46824735 -62.4375 122.25 C-61.96834193 118.96124268 -61.96834193 118.96124268 -62.00512695 115.34838867 C-61.9949353 114.67466217 -61.98474365 114.00093567 -61.97424316 113.30679321 C-61.94419965 111.09376619 -61.93486095 108.88117261 -61.92578125 106.66796875 C-61.90892806 105.12810335 -61.89077695 103.58825165 -61.87138367 102.04841614 C-61.82394665 98.0059538 -61.79409678 93.96354704 -61.76794434 89.92089844 C-61.73810687 85.79155505 -61.69158752 81.662403 -61.64648438 77.53320312 C-61.56052299 69.43889623 -61.49314609 61.3445718 -61.4375 53.25 C-62.82775391 53.26740234 -62.82775391 53.26740234 -64.24609375 53.28515625 C-65.44363281 53.29417969 -66.64117188 53.30320313 -67.875 53.3125 C-69.06996094 53.32410156 -70.26492188 53.33570313 -71.49609375 53.34765625 C-74.4375 53.25 -74.4375 53.25 -75.4375 52.25 C-75.53601171 50.41884117 -75.56722629 48.58380067 -75.5625 46.75 C-75.56507813 45.7496875 -75.56765625 44.749375 -75.5703125 43.71875 C-75.4375 41.25 -75.4375 41.25 -74.4375 40.25 C-72.25110547 40.17741054 -70.06249611 40.16626217 -67.875 40.1875 C-66.07869141 40.20103516 -66.07869141 40.20103516 -64.24609375 40.21484375 C-63.31925781 40.22644531 -62.39242187 40.23804688 -61.4375 40.25 C-61.47230469 39.37859375 -61.50710938 38.5071875 -61.54296875 37.609375 C-61.78703338 26.87053144 -61.365917 16.52579114 -54.16015625 7.9921875 C-40.0267156 -6.30149625 -17.76670411 -9.04486755 0 0 Z " fill="#FFF6E6" transform="translate(943.4375,50.75)"/>
<path d="M0 0 C10.53613141 10.81756397 14.87356101 24.12979094 14.7578125 38.96875 C14.58984375 40.90234375 14.58984375 40.90234375 13.58984375 41.90234375 C11.99373393 41.9956808 10.39350947 42.01979747 8.79467773 42.01586914 C7.77369492 42.01579361 6.7527121 42.01571808 5.70079041 42.01564026 C4.59038895 42.01047897 3.47998749 42.00531769 2.3359375 42 C1.20535416 41.99858505 0.07477081 41.9971701 -1.09007263 41.99571228 C-4.7176269 41.99009394 -8.34512049 41.97753833 -11.97265625 41.96484375 C-14.42512932 41.95983111 -16.87760335 41.9552678 -19.33007812 41.95117188 C-25.3567917 41.94011855 -31.38346964 41.92336259 -37.41015625 41.90234375 C-36.79445352 44.30488399 -36.17249687 46.70551026 -35.546875 49.10546875 C-35.37442261 49.78109863 -35.20197021 50.45672852 -35.02429199 51.15283203 C-33.7043031 56.18749348 -31.93435731 60.37619012 -29.41015625 64.90234375 C-29.08015625 65.89234375 -28.75015625 66.88234375 -28.41015625 67.90234375 C-26.69495878 68.92885748 -26.69495878 68.92885748 -24.41015625 69.90234375 C-23.33765625 70.58296875 -22.26515625 71.26359375 -21.16015625 71.96484375 C-17.32724646 74.14337795 -13.83309802 75.10418435 -9.41015625 74.90234375 C-1.7655129 72.71815994 4.0323681 67.30250245 8.58984375 60.90234375 C10.75858627 61.40838367 12.58952002 61.90218188 14.58984375 62.90234375 C13.41755845 71.33670813 6.86297504 80.22530186 0.58984375 85.90234375 C-10.40037588 93.78901299 -21.24880803 95.0791302 -34.41015625 93.90234375 C-44.40724533 91.92658768 -52.13868664 86.26221757 -58.22265625 78.21484375 C-67.06869846 64.59767229 -68.89719949 46.70238315 -66.41015625 30.90234375 C-63.58907991 17.6555505 -57.4320625 6.940734 -46.41015625 -1.09765625 C-32.07539383 -9.86069532 -13.23785062 -11.52143563 0 0 Z M-31.16015625 4.96484375 C-36.13271806 11.45679945 -37.55239399 17.67856975 -37.47265625 25.65234375 C-37.45203125 27.71484375 -37.43140625 29.77734375 -37.41015625 31.90234375 C-29.49015625 31.90234375 -21.57015625 31.90234375 -13.41015625 31.90234375 C-12.93528517 16.9097357 -12.93528517 16.9097357 -19.41015625 3.90234375 C-23.70521996 1.75481189 -27.38161626 2.13093876 -31.16015625 4.96484375 Z " fill="#FFF5E6" transform="translate(845.41015625,96.09765625)"/>
<path d="M0 0 C1.2684375 0.804375 1.2684375 0.804375 2.5625 1.625 C10.72991103 9.58299024 15.77803558 19.89017791 18 31 C18 35.62 18 40.24 18 45 C1.17 45 -15.66 45 -33 45 C-28.85963544 62.65998777 -28.85963544 62.65998777 -17 75 C-11.60882722 77.78445188 -7.01757989 78.59869637 -1.13671875 76.92578125 C4.92407649 74.29980598 8.69920514 69.54533537 12 64 C13.65 64.33 15.3 64.66 17 65 C17.84761897 67.88496818 18.20157933 69.47852305 17.1015625 72.32421875 C9.79410745 84.02001321 1.81709563 93.73388284 -12 97 C-23.10438222 98.19691109 -34.72727396 97.77427253 -44.296875 91.4921875 C-54.15281778 83.52591796 -59.89315214 71.34938727 -62 59 C-62.24035501 55.12737099 -62.23100668 51.25438623 -62.25 47.375 C-62.270625 46.34503906 -62.29125 45.31507813 -62.3125 44.25390625 C-62.39113981 28.62424426 -56.86468325 16.65071428 -46.4140625 5.2734375 C-34.62046038 -5.94486696 -13.8228377 -8.9880893 0 0 Z M-29 11 C-33.2626878 19.37313675 -33 25.37985686 -33 35 C-25.08 35 -17.16 35 -9 35 C-8.48019567 20.63092563 -8.48019567 20.63092563 -14.25 7.875 C-20.34230611 3.72115492 -24.75811489 5.46198333 -29 11 Z " fill="#FFF5E6" transform="translate(750,93)"/>
<path d="M0 0 C4.19658569 4.59001559 4.3789821 8.44199625 4.25 14.49609375 C3.80658463 19.26973735 2.01617358 22.01736073 -1.0625 25.5625 C-5.41138621 27.96826684 -9.14656831 28.17256688 -14 27.1875 C-16.57772123 25.8531036 -18.78950939 24.36361167 -21.08984375 22.59765625 C-23.04861048 20.99960816 -23.04861048 20.99960816 -26 20.1875 C-28.63276087 20.70703703 -28.63276087 20.70703703 -31 22.1875 C-32.26145768 24.54936139 -32.26145768 24.54936139 -33 27.1875 C-33.48593628 28.08855469 -33.48593628 28.08855469 -33.98168945 29.0078125 C-38.44538538 38.56232634 -37.34174679 51.24477873 -37.31567383 61.55615234 C-37.31247164 64.21101438 -37.3362099 66.8648028 -37.36132812 69.51953125 C-37.36359778 71.22135278 -37.36430617 72.92317727 -37.36328125 74.625 C-37.372491 75.41148926 -37.38170074 76.19797852 -37.39118958 77.00830078 C-37.35271482 81.5697831 -36.8651738 84.57661394 -34 88.1875 C-31.99411525 89.19684681 -31.99411525 89.19684681 -29.8125 89.5 C-28.554375 89.726875 -27.29625 89.95375 -26 90.1875 C-26 92.1675 -26 94.1475 -26 96.1875 C-44.15 96.1875 -62.3 96.1875 -81 96.1875 C-81 94.2075 -81 92.2275 -81 90.1875 C-80.44570313 90.00574219 -79.89140625 89.82398438 -79.3203125 89.63671875 C-78.59585938 89.38535156 -77.87140625 89.13398438 -77.125 88.875 C-76.40570312 88.63136719 -75.68640625 88.38773437 -74.9453125 88.13671875 C-72.66005095 87.22414453 -72.66005095 87.22414453 -71 84.1875 C-69.61167189 77.66395745 -69.8382995 71.02944761 -69.83203125 64.38671875 C-69.82870285 63.15516556 -69.82537445 61.92361237 -69.82194519 60.65473938 C-69.81689401 58.05506767 -69.8145363 55.4553895 -69.81469727 52.85571289 C-69.81251333 48.89914147 -69.79434491 44.94285019 -69.77539062 40.98632812 C-69.77245574 38.45312595 -69.77047158 35.91992245 -69.76953125 33.38671875 C-69.75875298 31.62686897 -69.75875298 31.62686897 -69.74775696 29.83146667 C-69.76598464 23.20879259 -69.86676621 16.52755961 -72 10.1875 C-74.03790519 8.19875107 -74.03790519 8.19875107 -76.625 7.5625 C-77.44226563 7.28148438 -78.25953125 7.00046875 -79.1015625 6.7109375 C-79.72804688 6.53820312 -80.35453125 6.36546875 -81 6.1875 C-81 4.2075 -81 2.2275 -81 0.1875 C-66.81 0.1875 -52.62 0.1875 -38 0.1875 C-37.505 8.1075 -37.505 8.1075 -37 16.1875 C-35.515 13.898125 -35.515 13.898125 -34 11.5625 C-29.11352619 4.62527715 -23.60100067 -0.01303095 -15.3671875 -2.40625 C-9.79325005 -3.36283333 -4.85861328 -2.93541219 0 0 Z " fill="#FFF5E6" transform="translate(682,90.8125)"/>
<path d="M0 0 C4.21419377 4.42490346 3.83465861 8.76028396 3.78515625 14.6015625 C3.37076461 18.99524925 2.21207923 21.15956543 -0.5 24.625 C-4.73263084 27.19262078 -8.67692832 27.64385557 -13.5 26.625 C-16.45041666 24.91277759 -19.12631071 23.04731972 -21.82421875 20.9609375 C-24.50690428 19.27915742 -24.50690428 19.27915742 -27.7578125 20.28125 C-30.61604547 21.35924066 -30.61604547 21.35924066 -31.6875 23.75 C-31.955625 24.69875 -32.22375 25.6475 -32.5 26.625 C-32.995 27.78 -33.49 28.935 -34 30.125 C-37.79766918 40.45274939 -37.82411991 51.56577178 -37.76074219 62.43017578 C-37.74987601 64.65033409 -37.7607816 66.86970752 -37.7734375 69.08984375 C-37.77211803 70.51823093 -37.76956005 71.94661763 -37.765625 73.375 C-37.76336914 74.64859375 -37.76111328 75.9221875 -37.75878906 77.234375 C-37.50825101 80.51689621 -37.01819893 82.72267685 -35.5 85.625 C-32.29560679 88.04994621 -29.45832823 89.05952454 -25.5 89.625 C-25.5 91.605 -25.5 93.585 -25.5 95.625 C-43.65 95.625 -61.8 95.625 -80.5 95.625 C-80.5 93.645 -80.5 91.665 -80.5 89.625 C-79.94570313 89.44324219 -79.39140625 89.26148438 -78.8203125 89.07421875 C-78.09585937 88.82285156 -77.37140625 88.57148438 -76.625 88.3125 C-75.90570313 88.06886719 -75.18640625 87.82523437 -74.4453125 87.57421875 C-72.16005095 86.66164453 -72.16005095 86.66164453 -70.5 83.625 C-69.61731504 79.59960289 -69.37383299 75.75121068 -69.37060547 71.63891602 C-69.36745331 70.48073868 -69.36430115 69.32256134 -69.36105347 68.12928772 C-69.3630777 66.89166183 -69.36510193 65.65403595 -69.3671875 64.37890625 C-69.36623077 63.094431 -69.36527405 61.80995575 -69.36428833 60.48655701 C-69.36281856 57.77414744 -69.36494232 55.06177094 -69.36962891 52.34936523 C-69.37532004 48.88854362 -69.37204651 45.42779969 -69.36605644 41.96698093 C-69.36155413 38.64594998 -69.36471571 35.32493941 -69.3671875 32.00390625 C-69.36516327 30.7683046 -69.36313904 29.53270294 -69.36105347 28.25965881 C-69.35994502 18.29475905 -69.35994502 18.29475905 -71.5 8.625 C-73.60584438 7.81936362 -73.60584438 7.81936362 -76.0625 7.4375 C-76.88878906 7.27894531 -77.71507812 7.12039062 -78.56640625 6.95703125 C-79.20449219 6.84746094 -79.84257812 6.73789063 -80.5 6.625 C-80.5 4.315 -80.5 2.005 -80.5 -0.375 C-66.64 -0.375 -52.78 -0.375 -38.5 -0.375 C-38.005 7.545 -38.005 7.545 -37.5 15.625 C-36.489375 14.26375 -35.47875 12.9025 -34.4375 11.5 C-29.11783823 4.6788208 -23.56092725 -0.40929386 -15.1875 -3.125 C-9.62828586 -3.6421362 -4.50827408 -3.60661927 0 0 Z " fill="#FFF6E6" transform="translate(391.5,91.375)"/>
<path d="M0 0 C4.5082986 2.13550986 7.27740644 4.84564916 10 9 C10.62105626 11.80511017 10.66614337 14.50961394 10.625 17.375 C10.61678223 18.51400757 10.61678223 18.51400757 10.60839844 19.67602539 C10.446877 23.96794696 10.09999395 27.03052754 7.25 30.4375 C2.21854046 35.10049407 -2.42619758 35.38373893 -9.08984375 35.24609375 C-14.37067578 34.79952675 -17.39927954 32.87603001 -20.8125 29 C-24.86783848 23.43839294 -24.63591078 17.66823105 -24 11 C-18.86623982 0.35220111 -10.84075971 -0.95071218 0 0 Z " fill="#FFF5E6" transform="translate(968,155)"/>
</svg>
