<?xml version="1.0" encoding="UTF-8"?>
<svg version="1.1" xmlns="http://www.w3.org/2000/svg" width="585" height="255">
<path d="M0 0 C14.025 -0.103125 28.05 -0.20625 42.5 -0.3125 C46.89634766 -0.35802002 51.29269531 -0.40354004 55.82226562 -0.45043945 C61.27246094 -0.47302246 61.27246094 -0.47302246 63.83972168 -0.47721863 C65.59824996 -0.48479849 67.35675553 -0.50217518 69.1151123 -0.52787781 C93.57008278 -0.86686327 114.86580901 7.32737201 132.53613281 24.4921875 C149.16387199 41.52817243 156.1554721 62.68208168 156.25 86.125 C156.2809375 88.00832031 156.2809375 88.00832031 156.3125 89.9296875 C156.34629671 98.07469503 155.43503794 105.22711408 153 113 C152.78617676 113.6919043 152.57235352 114.38380859 152.35205078 115.09667969 C148.95795751 125.34186372 143.67312664 134.53857143 137 143 C136.34 143 135.68 143 135 143 C134.75121094 143.58136719 134.50242187 144.16273438 134.24609375 144.76171875 C126.92467865 157.91272456 107.30444617 165.87658991 93.6640625 170.10546875 C63.31903706 177.51379586 31.23625905 173 0 173 C0 115.91 0 58.82 0 0 Z M36 36 C36 69 36 102 36 136 C73.6196382 138.78112893 73.6196382 138.78112893 105 125 C105.64710938 124.5153125 106.29421875 124.030625 106.9609375 123.53125 C115.56789712 116.76595423 120.69294614 106.58822671 123 96 C124.06581002 81.90224014 122.71264678 70.49941125 116 58 C115.34 58 114.68 58 114 58 C113.01 55.525 113.01 55.525 112 53 C111.34 53 110.68 53 110 53 C109.773125 52.4225 109.54625 51.845 109.3125 51.25 C105.22313005 44.23965151 95.38269335 39.78592202 88 37 C71.00012569 33.60002514 53.33653817 36 36 36 Z " fill="#D64545" transform="translate(283,0)"/>
<path d="M0 0 C2.48956895 0.02009808 4.97915358 0.03834299 7.46875 0.0546875 C13.52154342 0.09498573 19.57212554 0.17332742 25.625 0.25 C25.625 12.13 25.625 24.01 25.625 36.25 C20.83548828 36.28867188 20.83548828 36.28867188 15.94921875 36.328125 C12.82470232 36.3666402 9.70034565 36.41176988 6.57592773 36.45751953 C4.42008207 36.48558246 2.26413632 36.50686928 0.1081543 36.52099609 C-3.00784001 36.54262994 -6.12264934 36.58938357 -9.23828125 36.640625 C-10.66241081 36.64246796 -10.66241081 36.64246796 -12.11531067 36.64434814 C-18.25896253 36.77600911 -23.18474634 37.96336786 -28.87199402 40.29876709 C-31.36701305 41.24696467 -33.74877002 41.80012419 -36.375 42.25 C-36.375 42.91 -36.375 43.57 -36.375 44.25 C-37.77845227 45.17422466 -39.18378439 46.0957015 -40.59765625 47.00390625 C-50.58454078 54.00570002 -57.00546994 65.42897366 -59.375 77.25 C-61.04404364 92.63671987 -58.07351442 105.88876719 -48.375 118.25 C-46.29015575 120.28007601 -44.17670297 122.12685671 -41.87890625 123.91015625 C-41.38261719 124.35230469 -40.88632813 124.79445313 -40.375 125.25 C-40.375 125.91 -40.375 126.57 -40.375 127.25 C-39.30765625 127.66572266 -39.30765625 127.66572266 -38.21875 128.08984375 C-34.44320226 129.63014276 -30.77868753 131.38477149 -27.09375 133.12890625 C-21.26501745 135.53242096 -15.51276994 135.44085552 -9.296875 135.53125 C-7.84610565 135.55886414 -7.84610565 135.55886414 -6.36602783 135.58703613 C-2.23566565 135.66561119 1.89485085 135.7337452 6.02539062 135.80224609 C9.04305507 135.8538018 12.06057213 135.91108533 15.078125 135.96875 C16.01972473 135.98232544 16.96132446 135.99590088 17.93145752 136.0098877 C18.79615662 136.02660522 19.66085571 136.04332275 20.55175781 136.06054688 C21.31611145 136.07307495 22.08046509 136.08560303 22.86798096 136.09851074 C24.625 136.25 24.625 136.25 25.625 137.25 C25.71355161 139.9162603 25.74024673 142.55647114 25.72265625 145.22265625 C25.7212413 146.02029892 25.71982635 146.81794159 25.71836853 147.63975525 C25.71275316 150.19737435 25.70019812 152.75490718 25.6875 155.3125 C25.68248698 157.04231645 25.67792373 158.77213426 25.67382812 160.50195312 C25.66277875 164.75133553 25.64550386 169.00065312 25.625 173.25 C19.6517195 173.32512833 13.67872441 173.37905597 7.70507812 173.41479492 C5.6802897 173.42972084 3.65553266 173.45006893 1.63085938 173.47631836 C-26.63625731 173.83315572 -51.74980051 167.94375027 -72.80615234 147.84814453 C-76.86503482 143.71346593 -80.156361 139.05723764 -83.375 134.25 C-83.85195312 133.6003125 -84.32890625 132.950625 -84.8203125 132.28125 C-87.84123323 127.94936368 -89.69192037 123.22001402 -91.5625 118.3125 C-91.81281982 117.65604492 -92.06313965 116.99958984 -92.32104492 116.32324219 C-95.88430275 106.57218288 -96.76344657 97.57161724 -96.75 87.1875 C-96.74838867 85.89996826 -96.74677734 84.61243652 -96.74511719 83.28588867 C-96.62114207 73.64803889 -95.60665868 65.33692876 -92.375 56.25 C-92.09785156 55.36441406 -91.82070312 54.47882812 -91.53515625 53.56640625 C-84.56226174 33.48318475 -68.01491567 17.47773109 -49.5 7.9375 C-48.90106934 7.62401611 -48.30213867 7.31053223 -47.68505859 6.98754883 C-45.61333928 5.97284577 -43.51952605 5.10060716 -41.375 4.25 C-40.49602051 3.88374512 -39.61704102 3.51749023 -38.71142578 3.14013672 C-26.22237579 -1.26421424 -13.05524881 -0.18387674 0 0 Z " fill="#D64645" transform="translate(242.375,-0.25)"/>
<path d="M0 0 C4.62 0 9.24 0 14 0 C14.79557375 2.33206351 15.58651096 4.66554086 16.375 7 C16.59671875 7.64839844 16.8184375 8.29679688 17.046875 8.96484375 C17.26601563 9.61582031 17.48515625 10.26679688 17.7109375 10.9375 C17.90993652 11.52402344 18.10893555 12.11054688 18.31396484 12.71484375 C19.33280992 16.1085768 20.1406066 19.56242639 21 23 C23.64 15.41 26.28 7.82 29 0 C33.29 0 37.58 0 42 0 C42.98064101 3.08287144 43.95956797 6.16626926 44.9375 9.25 C45.35418945 10.55904297 45.35418945 10.55904297 45.77929688 11.89453125 C46.04677734 12.73886719 46.31425781 13.58320313 46.58984375 14.453125 C46.95903931 15.61569824 46.95903931 15.61569824 47.33569336 16.80175781 C47.95453695 18.84955924 48.48115184 20.92460734 49 23 C51.64 15.41 54.28 7.82 57 0 C61.29 0 65.58 0 70 0 C69.40711736 7.25617555 67.38394934 13.82978936 65.1875 20.75 C64.84396484 21.8534375 64.50042969 22.956875 64.14648438 24.09375 C61.85295882 31.42614689 59.44759871 38.71770632 57 46 C52.05 46 47.1 46 42 46 C39.29715374 39.10774203 37.12871018 32.08849683 35 25 C34.73521851 25.84763916 34.73521851 25.84763916 34.46508789 26.71240234 C33.66597309 29.26715212 32.86426881 31.82108197 32.0625 34.375 C31.78470703 35.26445312 31.50691406 36.15390625 31.22070312 37.0703125 C30.95322266 37.92109375 30.68574219 38.771875 30.41015625 39.6484375 C30.16402588 40.43395996 29.91789551 41.21948242 29.66430664 42.02880859 C29 44 29 44 28 46 C23.05 46 18.1 46 13 46 C10.65758117 40.01536316 8.78073376 34.00254725 7.0625 27.8125 C5.05627475 20.66038844 2.97105392 13.55773822 0.6640625 6.49609375 C0 4 0 4 0 0 Z " fill="#191C22" transform="translate(261,209)"/>
<path d="M0 0 C5.23583508 4.65659953 8.0876198 9.84142465 9.125 16.765625 C9.43945988 22.9030143 7.89444242 28.30456707 4.80078125 33.6015625 C1.68014666 37.0413529 -2.74959312 41.24805798 -7.43237305 41.92382812 C-10.25099044 42.01518819 -13.06674362 42.07213027 -15.88671875 42.1015625 C-16.85544922 42.1428125 -17.82417969 42.1840625 -18.82226562 42.2265625 C-25.14438874 42.29495599 -28.76420535 41.28514096 -33.61499023 37.17724609 C-38.73804492 32.08182385 -41.13163434 26.31745252 -41.234375 19.1484375 C-40.72720006 11.08311893 -38.32010917 5.32063294 -32.44921875 -0.2734375 C-23.05887117 -7.82017556 -9.42645454 -7.27232873 0 0 Z M-23.19921875 9.6015625 C-26.13861292 13.17082684 -26.67855234 16.19281742 -26.484375 20.67578125 C-25.88277205 24.73866146 -24.02695968 26.91177839 -20.94921875 29.4765625 C-17.19400893 31.0127847 -15.08245344 30.71105813 -11.19921875 29.6015625 C-8.05563624 27.8755596 -8.05563624 27.8755596 -6.19921875 24.6015625 C-5.32856322 19.51510125 -5.47142369 15.18372566 -7.63671875 10.4765625 C-12.41288962 6.98180333 -18.10764358 6.43564717 -23.19921875 9.6015625 Z " fill="#181B21" transform="translate(240.19921875,213.3984375)"/>
<path d="M0 0 C6.2184375 -0.0928125 6.2184375 -0.0928125 12.5625 -0.1875 C13.85615479 -0.21481201 15.14980957 -0.24212402 16.48266602 -0.27026367 C24.4284646 -0.32760512 29.59253787 0.12258754 35.8125 5.375 C39.61802322 9.94162786 40.44509754 13.8134645 40.328125 19.65234375 C39.616196 24.74602624 36.80156975 28.79764538 34 33 C34.433125 33.68707031 34.86625 34.37414062 35.3125 35.08203125 C35.869375 35.98308594 36.42625 36.88414062 37 37.8125 C37.556875 38.70582031 38.11375 39.59914062 38.6875 40.51953125 C40 43 40 43 40 46 C35.20138187 46.59899533 30.77290396 46.8844526 26 46 C23.47391505 43.60619315 22.0974798 41.37758487 20.52734375 38.28515625 C18.97696117 35.38329145 18.97696117 35.38329145 14 35 C14 38.63 14 42.26 14 46 C9.38 46 4.76 46 0 46 C0 30.82 0 15.64 0 0 Z M14 12 C14 15.63 14 19.26 14 23 C19.617863 23.51329263 19.617863 23.51329263 24.5625 21.3125 C26.24183865 19.08201673 26.24183865 19.08201673 25.9375 16.375 C25.13344454 13.67710239 25.13344454 13.67710239 22 12 C19.94290404 11.75944532 19.94290404 11.75944532 17.8125 11.875 C16.554375 11.91625 15.29625 11.9575 14 12 Z " fill="#181B22" transform="translate(399,209)"/>
<path d="M0 0 C5.754375 -0.020625 11.50875 -0.04125 17.4375 -0.0625 C19.25564209 -0.071604 21.07378418 -0.08070801 22.94702148 -0.09008789 C24.38004482 -0.09300711 25.81306898 -0.09555566 27.24609375 -0.09765625 C27.99669067 -0.10277222 28.7472876 -0.10788818 29.52062988 -0.11315918 C31.34747601 -0.11346992 33.17421683 -0.06231113 35 0 C36 1 36 1 36.1328125 3.25 C36.13023437 4.1575 36.12765625 5.065 36.125 6 C36.12886719 7.36125 36.12886719 7.36125 36.1328125 8.75 C36 11 36 11 35 12 C33.43827255 12.08685603 31.87270656 12.10702219 30.30859375 12.09765625 C29.36435547 12.09443359 28.42011719 12.09121094 27.44726562 12.08789062 C26.45404297 12.07951172 25.46082031 12.07113281 24.4375 12.0625 C23.44041016 12.05798828 22.44332031 12.05347656 21.41601562 12.04882812 C18.94395151 12.03700007 16.47200482 12.02051849 14 12 C14 13.65 14 15.3 14 17 C20.27 17 26.54 17 33 17 C33 20.96 33 24.92 33 29 C26.73 29 20.46 29 14 29 C14.33 30.65 14.66 32.3 15 34 C21.93 34.33 28.86 34.66 36 35 C36 38.63 36 42.26 36 46 C24.12 46 12.24 46 0 46 C0 30.82 0 15.64 0 0 Z " fill="#191C22" transform="translate(346,209)"/>
<path d="M0 0 C3.96 -0.061875 7.92 -0.12375 12 -0.1875 C13.23234375 -0.21481201 14.4646875 -0.24212402 15.734375 -0.27026367 C29.31031636 -0.3724789 29.31031636 -0.3724789 34.55053711 4.41723633 C38.96773159 9.45801644 39.34015047 13.76604083 39.2890625 20.203125 C38.78434728 25.08658573 36.55702617 27.94755642 33.625 31.8125 C29.24406813 35.01395021 24.37378256 35.23211801 19.125 35.125 C17.97257812 35.10695312 16.82015625 35.08890625 15.6328125 35.0703125 C14.32957031 35.03550781 14.32957031 35.03550781 13 35 C13 38.63 13 42.26 13 46 C8.71 46 4.42 46 0 46 C0 30.82 0 15.64 0 0 Z M13 12 C13 15.63 13 19.26 13 23 C18.617863 23.51329263 18.617863 23.51329263 23.5625 21.3125 C25.23097118 19.08225061 25.23097118 19.08225061 25 16.375 C24.19901948 13.94900542 24.19901948 13.94900542 22.375 12.6875 C19.20198632 11.76899604 16.28355254 11.87370952 13 12 Z " fill="#181B22" transform="translate(146,209)"/>
<path d="M0 0 C14.025 -0.103125 28.05 -0.20625 42.5 -0.3125 C46.89634766 -0.35802002 51.29269531 -0.40354004 55.82226562 -0.45043945 C61.27246094 -0.47302246 61.27246094 -0.47302246 63.83972168 -0.47721863 C65.59824996 -0.48479849 67.35675553 -0.50217518 69.1151123 -0.52787781 C81.18432621 -0.69517664 91.79887922 0.20526364 103 5 C103.99 5.99 103.99 5.99 105 7 C100.52629461 7.3355279 97.53566845 6.43644615 93.41690063 4.79464722 C82.52175961 1.21245879 70.55118533 1.72860515 59.2265625 1.8046875 C57.56505506 1.80842852 55.90354537 1.81127032 54.24203491 1.81326294 C49.91847387 1.82081383 45.59505225 1.84038633 41.27154541 1.8626709 C36.83990361 1.88331599 32.40823877 1.89230411 27.9765625 1.90234375 C19.31764513 1.92364241 10.65884002 1.95767186 2 2 C2.10734769 22.57562295 2.22012835 43.15120977 2.33933926 63.72676754 C2.39456751 73.2808049 2.44803212 82.83484599 2.49731445 92.38891602 C2.54028398 100.71828763 2.5865936 109.0476329 2.63687855 117.37696368 C2.66337695 121.78539311 2.68822684 126.19381767 2.70907402 130.60227776 C2.72877076 134.75628378 2.75295194 138.91024015 2.78049088 143.06420135 C2.78979273 144.5842784 2.7974921 146.10436627 2.80341911 147.62446022 C2.81179837 149.7101785 2.82610519 151.79577999 2.84178162 153.88145447 C2.84823417 155.04567901 2.85468672 156.20990355 2.8613348 157.40940762 C3.02395388 161.62026093 3.53464241 165.81178166 4 170 C30.07 170.33 56.14 170.66 83 171 C83 171.33 83 171.66 83 172 C55.86863234 177.42627353 27.66867463 173 0 173 C0 115.91 0 58.82 0 0 Z " fill="#CA5B59" transform="translate(283,0)"/>
<path d="M0 0 C6.2184375 -0.0928125 6.2184375 -0.0928125 12.5625 -0.1875 C13.85615479 -0.21481201 15.14980957 -0.24212402 16.48266602 -0.27026367 C22.76237538 -0.31558166 27.51289063 -0.1783677 33 3 C33.66 3.66 34.32 4.32 35 5 C31 5 31 5 28.4921875 4.0390625 C23.4096682 2.52681403 18.40084303 2.53150258 13.125 2.375 C9.45375 2.25125 5.7825 2.1275 2 2 C2 16.19 2 30.38 2 45 C5.3 45 8.6 45 12 45 C11.67 43.68 11.34 42.36 11 41 C11.25 37.375 11.25 37.375 12 34 C15 32 15 32 17.6875 32.375 C18.450625 32.58125 19.21375 32.7875 20 33 C20 33.66 20 34.32 20 35 C21.485 35.495 21.485 35.495 23 36 C23.74609375 37.8125 23.74609375 37.8125 24.4375 40 C25.31924445 42.25239926 25.31924445 42.25239926 27 44 C31.00994622 45.02791679 34.87540377 45.10376343 39 45 C39 45.33 39 45.66 39 46 C34.52532231 46.60559548 30.44839223 46.87927285 26 46 C23.54359092 43.60339914 22.13550476 41.32430403 20.5625 38.28515625 C18.97274538 35.38896055 18.97274538 35.38896055 14 35 C14 38.63 14 42.26 14 46 C9.38 46 4.76 46 0 46 C0 30.82 0 15.64 0 0 Z " fill="#282B2F" transform="translate(399,209)"/>
<path d="M0 0 C2.06205691 3.09308536 2.24623777 3.67485005 2.20254517 7.15715027 C2.19688034 8.00268967 2.19121552 8.84822906 2.18537903 9.71939087 C2.16883774 10.64367889 2.15229645 11.56796692 2.13525391 12.52026367 C2.12579239 13.49605881 2.11633087 14.47185394 2.10658264 15.47721863 C2.07286222 18.70765753 2.02475825 21.93771602 1.9765625 25.16796875 C1.95039981 27.40569561 1.92513245 29.6434331 1.90072632 31.88117981 C1.83403207 37.77498819 1.75514841 43.66857338 1.67376709 49.56219482 C1.59288935 55.5745791 1.52348288 61.58709442 1.453125 67.59960938 C1.31334115 79.39989671 1.16068591 91.19998009 1 103 C0.34 103 -0.32 103 -1 103 C-1.02312079 89.71812591 -1.04091374 76.43625657 -1.05181217 63.15436649 C-1.05704158 56.9877508 -1.06414027 50.82114882 -1.07543945 44.65454102 C-1.08626629 38.70883994 -1.0922764 32.76315211 -1.09487724 26.81744194 C-1.09673186 24.54353057 -1.10035317 22.26961996 -1.10573006 19.99571419 C-1.11293778 16.8227288 -1.11399106 13.64979883 -1.11352539 10.47680664 C-1.11712067 9.52662659 -1.12071594 8.57644653 -1.12442017 7.59747314 C-1.11405216 1.11405216 -1.11405216 1.11405216 0 0 Z " fill="#D9514D" transform="translate(318,33)"/>
<path d="M0 0 C13.86 0 27.72 0 42 0 C42 0.66 42 1.32 42 2 C42.71027344 2.04898438 43.42054688 2.09796875 44.15234375 2.1484375 C45.53099609 2.26058594 45.53099609 2.26058594 46.9375 2.375 C47.85402344 2.44460937 48.77054687 2.51421875 49.71484375 2.5859375 C50.46894531 2.72257812 51.22304688 2.85921875 52 3 C52.495 3.99 52.495 3.99 53 5 C52.06212646 4.84152588 51.12425293 4.68305176 50.15795898 4.51977539 C45.27488397 3.82551418 40.39775606 3.77040189 35.47265625 3.68359375 C34.48373886 3.66281265 33.49482147 3.64203156 32.47593689 3.62062073 C29.33819062 3.55559446 26.20036554 3.49645982 23.0625 3.4375 C20.92642437 3.39427009 18.7903565 3.35065442 16.65429688 3.30664062 C11.43627957 3.19996162 6.21818506 3.09811087 1 3 C0.67 2.01 0.34 1.02 0 0 Z " fill="#D05452" transform="translate(320,33)"/>
<path d="M0 0 C10.93656046 -0.11654769 21.8729699 -0.20504387 32.81002808 -0.25906086 C37.89017893 -0.28500418 42.96990069 -0.32011854 48.04980469 -0.37719727 C52.96468235 -0.43206757 57.87915087 -0.46153487 62.79431152 -0.47438622 C64.65676299 -0.48352845 66.51919552 -0.50137692 68.38146973 -0.52865028 C80.35948448 -0.69687654 90.88228587 0.25325223 102 5 C102.99 5.99 102.99 5.99 104 7 C99.52600036 7.33554997 96.53522734 6.43593767 92.41604614 4.79464722 C81.45403462 1.18919789 69.40104861 1.72919805 58.0078125 1.8046875 C56.32388479 1.80842833 54.63995486 1.81127023 52.95602417 1.81326294 C48.57328028 1.82081527 44.19067384 1.84038909 39.8079834 1.8626709 C35.31601825 1.88331281 30.82403039 1.89230345 26.33203125 1.90234375 C17.55462518 1.92364495 8.7773298 1.95767626 0 2 C0 1.34 0 0.68 0 0 Z " fill="#DF5350" transform="translate(284,0)"/>
<path d="M0 0 C0.33 0 0.66 0 1 0 C1.62632231 7.67244825 0.29619297 11.65501836 -4.375 17.8125 C-8.75593187 21.01395021 -13.62621744 21.23211801 -18.875 21.125 C-20.02742188 21.10695312 -21.17984375 21.08890625 -22.3671875 21.0703125 C-23.23601562 21.04710937 -24.10484375 21.02390625 -25 21 C-25 24.63 -25 28.26 -25 32 C-28.96 32 -32.92 32 -37 32 C-35 30 -35 30 -31.375 29.875 C-29.704375 29.936875 -29.704375 29.936875 -28 30 C-28.061875 28.1128125 -28.061875 28.1128125 -28.125 26.1875 C-28.2390374 22.70935927 -28.05925681 22.08888522 -26 19 C-22.65966506 18.47355432 -19.40075959 18.19307429 -16.02929688 18.00390625 C-10.72809476 17.54293215 -8.55428875 16.19156418 -5 12 C-4.34 11.67 -3.68 11.34 -3 11 C-2.34767859 8.6833206 -2.34767859 8.6833206 -1.9375 6 C-1.09433962 1.09433962 -1.09433962 1.09433962 0 0 Z " fill="#23262C" transform="translate(184,223)"/>
<path d="M0 0 C2.41887085 2.41887085 2.49376963 3.74092349 3.0625 7.0625 C3.41027566 10.33083952 3.41027566 10.33083952 5 13 C5 14.65 5 16.3 5 18 C8.63 18 12.26 18 16 18 C16.433125 16.700625 16.86625 15.40125 17.3125 14.0625 C18.875 9.375 20.4375 4.6875 22 0 C22.66 0 23.32 0 24 0 C23.45138659 7.13197431 21.37608799 13.25497604 19 20 C14.05 20 9.1 20 4 20 C2.98980086 17.33674771 1.99005129 14.67072374 1 12 C0.4121875 10.4221875 0.4121875 10.4221875 -0.1875 8.8125 C-0.99087428 6.03158904 -1.24644508 3.87519259 -1 1 C-0.67 0.67 -0.34 0.34 0 0 Z " fill="#22252A" transform="translate(299,235)"/>
<path d="M0 0 C9.9 0 19.8 0 30 0 C29.67 0.99 29.34 1.98 29 3 C27.91581787 3.02505615 26.83163574 3.0501123 25.71459961 3.07592773 C21.66843091 3.17053929 17.62241253 3.27062586 13.57641602 3.37231445 C11.82970715 3.41546102 10.0829616 3.45714917 8.33618164 3.49731445 C5.81645684 3.55551169 3.29691329 3.61905997 0.77734375 3.68359375 C0.00414291 3.70030624 -0.76905792 3.71701874 -1.56568909 3.73423767 C-6.12184973 3.85700021 -10.50034275 4.26786121 -15 5 C-14.67 4.01 -14.34 3.02 -14 2 C-9.38 2 -4.76 2 0 2 C0 1.34 0 0.68 0 0 Z " fill="#D45654" transform="translate(230,33)"/>
<path d="M0 0 C3.9998593 -0.08783475 7.99946704 -0.14067102 12 -0.1875 C13.12535156 -0.21263672 14.25070313 -0.23777344 15.41015625 -0.26367188 C22.38592835 -0.32486286 28.97819706 -0.33989507 34.62133789 4.34643555 C36.0625 5.875 36.0625 5.875 38 9 C37.8125 11.875 37.8125 11.875 37 14 C36.79375 13.443125 36.5875 12.88625 36.375 12.3125 C34.44999226 9.07498698 31.96149098 7.31768859 29 5 C28.01 5.495 28.01 5.495 27 6 C26.52433594 5.52046875 26.04867187 5.0409375 25.55859375 4.546875 C21.83047026 2.29292553 18.34719585 2.39454396 14.0625 2.25 C13.26392578 2.20746094 12.46535156 2.16492188 11.64257812 2.12109375 C7.59363155 1.93994784 3.95432938 1.94551216 0 3 C0 2.01 0 1.02 0 0 Z " fill="#27282C" transform="translate(146,209)"/>
<path d="M0 0 C6.93 0 13.86 0 21 0 C21 3.63 21 7.26 21 11 C9.45 11 -2.1 11 -14 11 C-14 10.67 -14 10.34 -14 10 C-3.44 9.67 7.12 9.34 18 9 C18.33 6.69 18.66 4.38 19 2 C18.05898438 2.08378906 17.11796875 2.16757813 16.1484375 2.25390625 C14.28058594 2.40666016 14.28058594 2.40666016 12.375 2.5625 C11.14523437 2.66691406 9.91546875 2.77132812 8.6484375 2.87890625 C5.24372538 2.99191061 2.32441602 2.69045563 -1 2 C-0.67 1.34 -0.34 0.68 0 0 Z " fill="#27292E" transform="translate(361,244)"/>
<path d="M0 0 C0.33 0 0.66 0 1 0 C1.33 2.97 1.66 5.94 2 9 C28.07 9.33 54.14 9.66 81 10 C81 10.33 81 10.66 81 11 C53.94 11 26.88 11 -1 11 C-0.67 7.37 -0.34 3.74 0 0 Z " fill="#CD5050" transform="translate(285,161)"/>
<path d="M0 0 C1.16917969 0.56589844 2.33835938 1.13179688 3.54296875 1.71484375 C5.09100447 2.45602449 6.63918944 3.19689356 8.1875 3.9375 C8.95642578 4.31068359 9.72535156 4.68386719 10.51757812 5.06835938 C11.64389648 5.60493164 11.64389648 5.60493164 12.79296875 6.15234375 C13.82200317 6.6472229 13.82200317 6.6472229 14.87182617 7.15209961 C20.4587878 9.37803947 26.18394595 9.21060894 32.11328125 9.31640625 C33.08283249 9.33718735 34.05238373 9.35796844 35.05131531 9.37937927 C38.13830707 9.44458941 41.22538152 9.5036268 44.3125 9.5625 C46.40951364 9.60571237 48.50651903 9.64932752 50.60351562 9.69335938 C55.73559307 9.80024151 60.86775341 9.90158896 66 10 C66 10.33 66 10.66 66 11 C49.5 11 33 11 16 11 C16 10.34 16 9.68 16 9 C14.63875 8.7834375 14.63875 8.7834375 13.25 8.5625 C10.78523044 8.13590527 8.41152893 7.64925779 6 7 C6 6.34 6 5.68 6 5 C4.68 4.67 3.36 4.34 2 4 C2 3.34 2 2.68 2 2 C1.34 2 0.68 2 0 2 C0 1.34 0 0.68 0 0 Z " fill="#BD5252" transform="translate(201,126)"/>
<path d="M0 0 C6.27 0 12.54 0 19 0 C19 3.96 19 7.92 19 12 C13.72 12 8.44 12 3 12 C2.67 11.34 2.34 10.68 2 10 C6.95 9.67 11.9 9.34 17 9 C16.67 8.34 16.34 7.68 16 7 C16.33 5.35 16.66 3.7 17 2 C11.72 2 6.44 2 1 2 C0.67 1.34 0.34 0.68 0 0 Z " fill="#202327" transform="translate(360,226)"/>
<path d="M0 0 C0.66 0.99 1.32 1.98 2 3 C-0.99531539 3.99843846 -2.17255732 4.00732761 -5.1875 3.5625 C-6.445625 3.376875 -7.70375 3.19125 -9 3 C-9 6.63 -9 10.26 -9 14 C-7.411875 13.67 -5.82375 13.34 -4.1875 13 C-1.34154481 12.40863269 1.0845524 12 4 12 C4 12.66 4 13.32 4 14 C-0.82316694 16.91686762 -5.50160634 16.13091413 -11 16 C-11 11.38 -11 6.76 -11 2 C-6.76121589 -0.11939205 -4.64467095 -0.43006213 0 0 Z " fill="#26282D" transform="translate(422,218)"/>
<path d="M0 0 C0 0.66 0 1.32 0 2 C-2.97 2 -5.94 2 -9 2 C-9 5.63 -9 9.26 -9 13 C-2.42609968 11.78077165 -2.42609968 11.78077165 4 10 C2.25 13.875 2.25 13.875 0 15 C-1.87379605 15.07033769 -3.75001102 15.0843022 -5.625 15.0625 C-6.62789062 15.05347656 -7.63078125 15.04445312 -8.6640625 15.03515625 C-9.43492187 15.02355469 -10.20578125 15.01195312 -11 15 C-12.81818182 3.63636364 -12.81818182 3.63636364 -11 0 C-6.94952424 -1.35015859 -4.2079832 -0.62084998 0 0 Z " fill="#20232A" transform="translate(168,219)"/>
<path d="M0 0 C0.66 0 1.32 0 2 0 C2.7914507 2.29265396 3.14457286 3.56805531 2.36328125 5.90234375 C2.01652344 6.57394531 1.66976563 7.24554688 1.3125 7.9375 C-1.47531069 13.7462484 -3.20599481 19.82595024 -5 26 C-5.66 25.67 -6.32 25.34 -7 25 C-3.17877095 3.17877095 -3.17877095 3.17877095 0 0 Z " fill="#26282F" transform="translate(295,227)"/>
<path d="M0 0 C4.29 0 8.58 0 13 0 C13.33 1.32 13.66 2.64 14 4 C13.34 4.66 12.68 5.32 12 6 C11.67 5.01 11.34 4.02 11 3 C8.03 3 5.06 3 2 3 C1.01 6.3 0.02 9.6 -1 13 C-1.99 12.67 -2.98 12.34 -4 12 C-2.68 8.04 -1.36 4.08 0 0 Z " fill="#23262B" transform="translate(290,209)"/>
<path d="M0 0 C2.97 0.99 5.94 1.98 9 3 C9 3.99 9 4.98 9 6 C9.680625 5.9175 10.36125 5.835 11.0625 5.75 C15.16875665 6.09946865 17.52321895 7.81849032 21 10 C21 10.66 21 11.32 21 12 C21.99 12 22.98 12 24 12 C24 12.66 24 13.32 24 14 C19.53905503 12.63412997 15.55403416 10.87942079 11.4375 8.6875 C10.34308594 8.11386719 9.24867188 7.54023438 8.12109375 6.94921875 C4.92041264 4.95029526 2.55373847 2.76298334 0 0 Z " fill="#C1585A" transform="translate(177,153)"/>
<path d="M0 0 C1.4540625 0.0309375 1.4540625 0.0309375 2.9375 0.0625 C-0.00078597 2.56548434 -2.24152761 3.53180939 -6.0625 4.0625 C-6.0625 4.7225 -6.0625 5.3825 -6.0625 6.0625 C-8.02748322 7.44692 -10.03298465 8.77453834 -12.0625 10.0625 C-13.40425973 11.05116506 -14.74146002 12.0463154 -16.0625 13.0625 C-15.43914846 9.01071496 -13.65215754 6.1973486 -11.0625 3.0625 C-7.375 1.75 -7.375 1.75 -4.0625 1.0625 C-3.0625 0.0625 -3.0625 0.0625 0 0 Z " fill="#C74E51" transform="translate(212.0625,37.9375)"/>
<path d="M0 0 C0.66 0 1.32 0 2 0 C4.30480262 7.30613322 4.26448478 14.25755894 4.1875 21.875 C4.18685547 23.10992187 4.18621094 24.34484375 4.18554688 25.6171875 C4.14063798 34.71872404 4.14063798 34.71872404 3 37 C2.34 37 1.68 37 1 37 C0.67 37.66 0.34 38.32 0 39 C0.33 37.7625 0.66 36.525 1 35.25 C2.09071359 29.80422287 2.22549013 24.470604 2.25 18.9375 C2.25902344 18.09928711 2.26804687 17.26107422 2.27734375 16.39746094 C2.25057787 10.69855957 1.45771021 5.50625958 0 0 Z " fill="#C45A5B" transform="translate(403,67)"/>
<path d="M0 0 C3.76654404 3.3348727 5.88483052 6.98567131 8.1875 11.375 C8.54263672 12.02210937 8.89777344 12.66921875 9.26367188 13.3359375 C11.32803323 17.22179416 12.53928483 20.55788061 13 25 C12.34 25 11.68 25 11 25 C10.67 22.69 10.34 20.38 10 18 C9.34 18 8.68 18 8 18 C7.66226562 17.31292969 7.32453125 16.62585938 6.9765625 15.91796875 C6.53054688 15.01691406 6.08453125 14.11585937 5.625 13.1875 C5.18414062 12.29417969 4.74328125 11.40085937 4.2890625 10.48046875 C2.98133095 7.85443619 2.98133095 7.85443619 1 5 C0.61500109 3.34450469 0.27206865 1.6777567 0 0 Z " fill="#C45556" transform="translate(422,34)"/>
<path d="M0 0 C0.66 0.33 1.32 0.66 2 1 C1.27683594 1.81404297 1.27683594 1.81404297 0.5390625 2.64453125 C-0.09257812 3.35996094 -0.72421875 4.07539063 -1.375 4.8125 C-2.00148437 5.52019531 -2.62796875 6.22789063 -3.2734375 6.95703125 C-5.140599 9.08803819 -5.140599 9.08803819 -7 12 C-7.66 12 -8.32 12 -9 12 C-9.33 12.99 -9.66 13.98 -10 15 C-11.65 15.33 -13.3 15.66 -15 16 C-10.74015016 9.71880965 -5.81328353 4.85732135 0 0 Z " fill="#C85455" transform="translate(178,17)"/>
<path d="M0 0 C2.20873206 2.90481732 4.30579998 5.86951038 6.375 8.875 C9.08212891 12.76039096 11.89626218 16.42599887 15 20 C13.66666667 19.33333333 12.33333333 18.66666667 11 18 C10.29875 17.731875 9.5975 17.46375 8.875 17.1875 C6.32767633 15.57419501 5.8880914 13.81228942 5 11 C4.34 11 3.68 11 3 11 C0 4.5 0 4.5 0 0 Z " fill="#C3585A" transform="translate(185,105)"/>
<path d="M0 0 C3.2830098 3.2830098 3.19284362 7.50298589 4 12 C7.96 12 11.92 12 16 12 C16 12.33 16 12.66 16 13 C11.38 13 6.76 13 2 13 C-1.57142857 4.57142857 -1.57142857 4.57142857 0 0 Z " fill="#252831" transform="translate(272,242)"/>
<path d="M0 0 C0.66 0.66 1.32 1.32 2 2 C-4.0438595 7.38267992 -8.5205464 7.64730936 -16.4375 7.3125 C-17.45521484 7.28994141 -18.47292969 7.26738281 -19.52148438 7.24414062 C-22.01587439 7.18558687 -24.50714483 7.10364308 -27 7 C-27 6.67 -27 6.34 -27 6 C-26.43490723 5.98541748 -25.86981445 5.97083496 -25.28759766 5.95581055 C-22.73269981 5.88143942 -20.17912502 5.78474758 -17.625 5.6875 C-16.73554688 5.66494141 -15.84609375 5.64238281 -14.9296875 5.61914062 C-14.07890625 5.58369141 -13.228125 5.54824219 -12.3515625 5.51171875 C-11.17327881 5.47244263 -11.17327881 5.47244263 -9.97119141 5.43237305 C-7.59959844 5.15110403 -7.59959844 5.15110403 -6 2 C-3.4375 1.375 -3.4375 1.375 -1 1 C-0.67 0.67 -0.34 0.34 0 0 Z " fill="#24282D" transform="translate(240,248)"/>
<path d="M0 0 C3.18100415 3.32559524 3.71917593 6.68968088 4.47265625 11.07421875 C4.73369141 12.02748047 4.73369141 12.02748047 5 13 C5.66 13.33 6.32 13.66 7 14 C7.4140625 16.28515625 7.4140625 16.28515625 7.625 19.0625 C7.69976562 19.98160156 7.77453125 20.90070313 7.8515625 21.84765625 C7.90054688 22.55792969 7.94953125 23.26820312 8 24 C4.85298798 20.45615069 3.64748507 16.45263903 2.3125 12 C2.08755859 11.2884375 1.86261719 10.576875 1.63085938 9.84375 C0.56833282 6.38165741 0 3.6529346 0 0 Z " fill="#C65A58" transform="translate(147,102)"/>
<path d="M0 0 C0 0.66 0 1.32 0 2 C-0.99 2.33 -1.98 2.66 -3 3 C-3.66 2.67 -4.32 2.34 -5 2 C-5 2.66 -5 3.32 -5 4 C-8.48554381 7.6307748 -12.2190722 7.60158935 -17 8 C-17 7.34 -17 6.68 -17 6 C-14.73192796 4.9932996 -12.46092246 3.99448234 -10.1875 3 C-9.22360352 2.57074219 -9.22360352 2.57074219 -8.24023438 2.1328125 C-5.32243531 0.86288959 -3.21734286 0 0 0 Z " fill="#C95555" transform="translate(207,3)"/>
<path d="M0 0 C1.51706494 3.03412988 0.28825065 4.90636849 -0.75 8.0625 C-1.09546875 9.14660156 -1.4409375 10.23070312 -1.796875 11.34765625 C-2.19390625 12.22292969 -2.5909375 13.09820312 -3 14 C-3.99 14.33 -4.98 14.66 -6 15 C-6.6875 12.6875 -6.6875 12.6875 -7 10 C-5.6875 8.5625 -5.6875 8.5625 -4 7 C-3.32136945 5.0040278 -2.65358081 3.00431449 -2 1 C-1.34 0.67 -0.68 0.34 0 0 Z " fill="#25282F" transform="translate(287,223)"/>
<path d="M0 0 C2.58651922 0.59249336 5.16860151 1.19841299 7.75 1.8125 C8.47960937 1.97814453 9.20921875 2.14378906 9.9609375 2.31445312 C13.93718044 3.2723662 16.90800089 4.16024292 20 7 C15.35440233 7.34841982 12.17964609 6.45112494 7.96875 4.734375 C5.35964279 3.7611366 2.75537018 3.34442127 0 3 C0 2.01 0 1.02 0 0 Z " fill="#CA5958" transform="translate(368,0)"/>
<path d="M0 0 C0.99 0.33 1.98 0.66 3 1 C3.66 4.63 4.32 8.26 5 12 C5.66 12 6.32 12 7 12 C6.34 13.32 5.68 14.64 5 16 C1.75709826 11.1356474 -0.55811184 5.95319301 0 0 Z " fill="#262B31" transform="translate(305,223)"/>
<path d="M0 0 C7.3399098 4.00358717 12.42776197 9.07236662 17 16 C12.04522386 14.79884215 9.82627701 11.72698011 6.71484375 7.96875 C4.70251222 5.65846506 2.40036327 3.8911953 0 2 C0 1.34 0 0.68 0 0 Z " fill="#BD5C58" transform="translate(404,16)"/>
<path d="M0 0 C0.66 0.33 1.32 0.66 2 1 C2.3690205 10.41002278 2.3690205 10.41002278 0 15 C-0.66 14.67 -1.32 14.34 -2 14 C-1.85970581 11.8537974 -1.71261836 9.70803782 -1.5625 7.5625 C-1.48128906 6.36753906 -1.40007812 5.17257813 -1.31640625 3.94140625 C-1 1 -1 1 0 0 Z " fill="#26292C" transform="translate(437,221)"/>
<path d="M0 0 C0.66 0 1.32 0 2 0 C0.25 3.875 0.25 3.875 -2 5 C-3.87379605 5.07033769 -5.75001102 5.0843022 -7.625 5.0625 C-8.62789062 5.05347656 -9.63078125 5.04445312 -10.6640625 5.03515625 C-11.43492187 5.02355469 -12.20578125 5.01195312 -13 5 C-13 3.68 -13 2.36 -13 1 C-12.34 1 -11.68 1 -11 1 C-11 1.66 -11 2.32 -11 3 C-9.35328588 2.69217504 -7.70764424 2.37860766 -6.0625 2.0625 C-5.14597656 1.88847656 -4.22945312 1.71445313 -3.28515625 1.53515625 C-1.04710156 1.22285012 -1.04710156 1.22285012 0 0 Z " fill="#262A2F" transform="translate(170,229)"/>
<path d="M0 0 C3.91894024 2.61262683 4.07812826 4.46746393 5 9 C4.625 11.9375 4.625 11.9375 4 14 C2.24900461 11.37350692 1.30690675 9.38191413 0.3125 6.4375 C0.04050781 5.65246094 -0.23148437 4.86742187 -0.51171875 4.05859375 C-1 2 -1 2 0 0 Z " fill="#222428" transform="translate(275,215)"/>
<path d="M0 0 C0.33 0 0.66 0 1 0 C1.04898438 1.19496094 1.09796875 2.38992187 1.1484375 3.62109375 C1.68056539 15.431805 1.68056539 15.431805 4 27 C3.34 27 2.68 27 2 27 C-0.06189931 21.08218663 -0.24167838 15.79581786 -0.125 9.5625 C-0.11597656 8.64017578 -0.10695312 7.71785156 -0.09765625 6.76757812 C-0.0742766 4.51144191 -0.04150916 2.25586316 0 0 Z " fill="#BC5E59" transform="translate(181,77)"/>
<path d="M0 0 C0.99 0 1.98 0 3 0 C3.33 1.65 3.66 3.3 4 5 C4.99 5.33 5.98 5.66 7 6 C7.6875 8.0625 7.6875 8.0625 8 10 C8.66 10 9.32 10 10 10 C10 11.32 10 12.64 10 14 C10.66 14.33 11.32 14.66 12 15 C10.1875 14.875 10.1875 14.875 8 14 C5 8.96428571 5 8.96428571 5 6 C4.34 6 3.68 6 3 6 C2.01 4.02 1.02 2.04 0 0 Z " fill="#CB4C4A" transform="translate(394,52)"/>
<path d="M0 0 C1.09651823 3.41139003 0.94215473 6.20655581 0.5625 9.75 C0.46066406 10.73484375 0.35882813 11.7196875 0.25390625 12.734375 C0.12822266 13.85585937 0.12822266 13.85585937 0 15 C-0.66 14.67 -1.32 14.34 -2 14 C-2 12.68 -2 11.36 -2 10 C-2.66 9.67 -3.32 9.34 -4 9 C-1.125 2.25 -1.125 2.25 0 0 Z " fill="#24272B" transform="translate(214,224)"/>
<path d="M0 0 C0.99 0.33 1.98 0.66 3 1 C3.66 4.96 4.32 8.92 5 13 C4.01 12.67 3.02 12.34 2 12 C0.51117562 7.92532275 -0.26270217 4.33458585 0 0 Z " fill="#23252C" transform="translate(266,225)"/>
<path d="M0 0 C0.99 0.66 1.98 1.32 3 2 C3.1875 5.125 3.1875 5.125 3 8 C0.37886292 8 -1.50935112 7.68707555 -4 7 C-3.01 6.67 -2.02 6.34 -1 6 C-1.33 4.68 -1.66 3.36 -2 2 C-1.34 2 -0.68 2 0 2 C0 1.34 0 0.68 0 0 Z " fill="#CC4F4B" transform="translate(436,93)"/>
<path d="M0 0 C-1.93108963 1.03290841 -3.870118 2.05098672 -5.8125 3.0625 C-6.89144531 3.63097656 -7.97039062 4.19945312 -9.08203125 4.78515625 C-12 6 -12 6 -15 5 C-14.34 5 -13.68 5 -13 5 C-13 3.68 -13 2.36 -13 1 C-11.906875 0.855625 -10.81375 0.71125 -9.6875 0.5625 C-1.88372093 -0.62790698 -1.88372093 -0.62790698 0 0 Z " fill="#C95150" transform="translate(400,160)"/>
<path d="M0 0 C0.66 0.66 1.32 1.32 2 2 C1.34 3.98 0.68 5.96 0 8 C-4.95 8 -9.9 8 -15 8 C-15 7.67 -15 7.34 -15 7 C-13.75283203 6.99613281 -13.75283203 6.99613281 -12.48046875 6.9921875 C-9.21814355 6.87609052 -6.192901 6.6907092 -3 6 C-0.60751405 3.14397465 -0.60751405 3.14397465 0 0 Z " fill="#282B31" transform="translate(318,247)"/>
<path d="M0 0 C0.66 1.32 1.32 2.64 2 4 C1.67 4.33 1.34 4.66 1 5 C2.98 5.99 4.96 6.98 7 8 C4.33438378 8.98726527 3.09873015 9.0275526 0.3125 8.25 C-2 7 -2 7 -3 4 C-2.67 3.01 -2.34 2.02 -2 1 C-1.34 0.67 -0.68 0.34 0 0 Z " fill="#CD4D4E" transform="translate(205,161)"/>
<path d="M0 0 C0.66 0 1.32 0 2 0 C1.14285714 8.57142857 1.14285714 8.57142857 -1 12 C-1.66 12 -2.32 12 -3 12 C-2.69106068 10.3743193 -2.3777305 8.74947252 -2.0625 7.125 C-1.88847656 6.22007812 -1.71445312 5.31515625 -1.53515625 4.3828125 C-1 2 -1 2 0 0 Z " fill="#222529" transform="translate(316,215)"/>
<path d="M0 0 C2.63249349 2.45699392 4.78137264 4.56568654 6 8 C5.67 8.99 5.34 9.98 5 11 C1.63408573 8.27521226 0.55773724 4.93143208 -1 1 C-0.67 0.67 -0.34 0.34 0 0 Z " fill="#222226" transform="translate(433,244)"/>
<path d="M0 0 C0.99 0 1.98 0 3 0 C2.67 5.28 2.34 10.56 2 16 C1.67 16 1.34 16 1 16 C0.14701624 12.32612505 -0.10789471 8.9552607 -0.0625 5.1875 C-0.05347656 4.21167969 -0.04445313 3.23585937 -0.03515625 2.23046875 C-0.02355469 1.49441406 -0.01195312 0.75835937 0 0 Z " fill="#24252A" transform="translate(399,209)"/>
<path d="M0 0 C-2.89066059 9.59453303 -2.89066059 9.59453303 -6 13 C-5.19444444 0 -5.19444444 0 0 0 Z " fill="#CA5457" transform="translate(435,114)"/>
<path d="M0 0 C0.66 0.33 1.32 0.66 2 1 C0.515 2.485 0.515 2.485 -1 4 C-0.34 4 0.32 4 1 4 C1 4.66 1 5.32 1 6 C-0.0725 6.144375 -1.145 6.28875 -2.25 6.4375 C-4.91662949 6.83749442 -7.41399729 7.27591924 -10 8 C-6.66666667 5.33333333 -3.33333333 2.66666667 0 0 Z " fill="#C55654" transform="translate(391,122)"/>
<path d="M0 0 C0.66 0.33 1.32 0.66 2 1 C0.47005208 2.23697917 -1.05989583 3.47395833 -2.58984375 4.7109375 C-4.13266437 5.9666391 -4.13266437 5.9666391 -5 8 C-5.99 8 -6.98 8 -8 8 C-6.70989008 5.12206249 -5.42638194 3.03816083 -3 1 C-2.01 0.67 -1.02 0.34 0 0 Z " fill="#222428" transform="translate(211,212)"/>
<path d="M0 0 C-1.81817001 2.31459868 -2.75615543 2.95377187 -5.69921875 3.51171875 C-7.17841797 3.59873047 -7.17841797 3.59873047 -8.6875 3.6875 C-10.17830078 3.78611328 -10.17830078 3.78611328 -11.69921875 3.88671875 C-12.45847656 3.92410156 -13.21773438 3.96148437 -14 4 C-11.33542691 2.63186718 -8.66602351 1.40025631 -5.875 0.3125 C-5.19179688 0.04050781 -4.50859375 -0.23148438 -3.8046875 -0.51171875 C-2 -1 -2 -1 0 0 Z " fill="#C35354" transform="translate(380,132)"/>
<path d="M0 0 C0.66 1.32 1.32 2.64 2 4 C0.35 5.65 -1.3 7.3 -3 9 C-3.66 8.67 -4.32 8.34 -5 8 C-5 7.34 -5 6.68 -5 6 C-4.34 6 -3.68 6 -3 6 C-2.690625 5.195625 -2.38125 4.39125 -2.0625 3.5625 C-1 1 -1 1 0 0 Z " fill="#C95553" transform="translate(398,113)"/>
<path d="M0 0 C4.95 0 9.9 0 15 0 C15 0.33 15 0.66 15 1 C9.72 1.66 4.44 2.32 -1 3 C-0.67 2.01 -0.34 1.02 0 0 Z " fill="#C55557" transform="translate(216,35)"/>
<path d="M0 0 C2 0 2 0 3.625 1.375 C5 3 5 3 5 5 C5.99 5.33 6.98 5.66 8 6 C7.67 7.32 7.34 8.64 7 10 C5.83043409 8.52312468 4.66441854 7.04343707 3.5 5.5625 C2.8503125 4.73878906 2.200625 3.91507813 1.53125 3.06640625 C0 1 0 1 0 0 Z " fill="#C95958" transform="translate(159,133)"/>
<path d="M0 0 C0.33 0 0.66 0 1 0 C1 2.97 1 5.94 1 9 C0.01 9.495 0.01 9.495 -1 10 C-1.9765625 3.9453125 -1.9765625 3.9453125 -2 2 C-1.34 1.34 -0.68 0.68 0 0 Z " fill="#212225" transform="translate(201,229)"/>
<path d="M0 0 C0.33 0 0.66 0 1 0 C1 2.97 1 5.94 1 9 C0.01 9 -0.98 9 -2 9 C-1.125 1.125 -1.125 1.125 0 0 Z " fill="#27282C" transform="translate(184,223)"/>
<path d="M0 0 C0.66 0.33 1.32 0.66 2 1 C1.25 3.9375 1.25 3.9375 0 7 C-2.125 7.875 -2.125 7.875 -4 8 C-3.34 6.02 -2.68 4.04 -2 2 C-1.34 2 -0.68 2 0 2 C0 1.34 0 0.68 0 0 Z " fill="#D54E51" transform="translate(404,104)"/>
<path d="M0 0 C0.66 0.33 1.32 0.66 2 1 C1.39009109 4.55780196 0.4216319 7.6828589 -1 11 C-1.33 11 -1.66 11 -2 11 C-1.85892253 9.54119891 -1.71197585 8.08296449 -1.5625 6.625 C-1.48128906 5.81289062 -1.40007812 5.00078125 -1.31640625 4.1640625 C-1 2 -1 2 0 0 Z " fill="#C65755" transform="translate(149,60)"/>
<path d="M0 0 C0.33 1.32 0.66 2.64 1 4 C-1.4375 6.75 -1.4375 6.75 -4 9 C-4.33 8.34 -4.66 7.68 -5 7 C-3.35 4.69 -1.7 2.38 0 0 Z " fill="#C35759" transform="translate(162,34)"/>
<path d="M0 0 C0.66 0.33 1.32 0.66 2 1 C-0.52788007 3.79872437 -2.20411134 5.45773019 -6 6 C-5 3 -5 3 -2.5625 1.25 C-1.716875 0.8375 -0.87125 0.425 0 0 Z " fill="#CE5255" transform="translate(187,11)"/>
<path d="M0 0 C2.64 0.66 5.28 1.32 8 2 C8 2.66 8 3.32 8 4 C2.25 4.125 2.25 4.125 0 3 C0 2.01 0 1.02 0 0 Z " fill="#222428" transform="translate(218,242)"/>
<path d="M0 0 C0.66 0 1.32 0 2 0 C2.25 2.75 2.25 2.75 2 6 C0 8.375 0 8.375 -2 10 C-1.34 6.7 -0.68 3.4 0 0 Z " fill="#27292E" transform="translate(324,224)"/>
<path d="M0 0 C1.31602523 0.61754259 2.62773556 1.24428742 3.9375 1.875 C4.66839844 2.22304687 5.39929688 2.57109375 6.15234375 2.9296875 C8 4 8 4 9 6 C6.36 5.34 3.72 4.68 1 4 C1 3.34 1 2.68 1 2 C0.34 1.67 -0.32 1.34 -1 1 C-0.67 0.67 -0.34 0.34 0 0 Z " fill="#C95656" transform="translate(395,10)"/>
<path d="M0 0 C0.99 0.66 1.98 1.32 3 2 C2.34 3.65 1.68 5.3 1 7 C0.01 6.67 -0.98 6.34 -2 6 C-1.34 4.02 -0.68 2.04 0 0 Z " fill="#202328" transform="translate(312,229)"/>
<path d="M0 0 C2 1.1875 2 1.1875 4 3 C4.25 5.6875 4.25 5.6875 4 8 C1.10067643 5.60490662 0.49831724 3.68754757 0 0 Z " fill="#202429" transform="translate(169,220)"/>
<path d="M0 0 C0.66 0.33 1.32 0.66 2 1 C-0.97 3.475 -0.97 3.475 -4 6 C-4.66 5.67 -5.32 5.34 -6 5 C-5.67 4.34 -5.34 3.68 -5 3 C-4.34 3 -3.68 3 -3 3 C-3 2.34 -3 1.68 -3 1 C-2.01 0.67 -1.02 0.34 0 0 Z " fill="#C4565A" transform="translate(408,151)"/>
<path d="M0 0 C0.99 0.33 1.98 0.66 3 1 C1.35 2.65 -0.3 4.3 -2 6 C-2.66 5.01 -3.32 4.02 -4 3 C-3.01 3 -2.02 3 -1 3 C-0.67 2.01 -0.34 1.02 0 0 Z " fill="#C95556" transform="translate(421,136)"/>
<path d="M0 0 C0.99 0 1.98 0 3 0 C4.38671875 1.53125 4.38671875 1.53125 5.6875 3.5 C6.12449219 4.1496875 6.56148438 4.799375 7.01171875 5.46875 C7.33785156 5.9740625 7.66398437 6.479375 8 7 C4.66272214 5.82744291 2.22562513 4.81131596 0 2 C0 1.34 0 0.68 0 0 Z " fill="#C85756" transform="translate(413,25)"/>
</svg>
