<svg xmlns="http://www.w3.org/2000/svg" width="350" height="107" viewBox="0 0 350 107" version="1.1"><path d="" stroke="none" fill="#28448c" fill-rule="evenodd"/><path d="M 9 53.011 L 9 96.021 51.750 95.761 L 94.500 95.500 94.761 52.750 L 95.021 10 52.011 10 L 9 10 9 53.011 M 28 37.233 L 28 48.466 39 37.500 C 45.050 31.469, 50 26.414, 50 26.267 C 50 26.120, 45.050 26, 39 26 L 28 26 28 37.233 M 118 40.500 L 118 53 125.550 53 C 137.364 53, 142 49.560, 142 40.793 C 142 32.180, 135.982 28.082, 123.250 28.024 L 118 28 118 40.500 M 145.293 40.454 L 140.138 53 144.962 53 C 148.328 53, 149.960 52.546, 150.362 51.500 C 150.742 50.510, 152.308 50, 154.969 50 C 157.885 50, 159 50.415, 159 51.500 C 159 52.728, 160.722 53, 168.500 53 L 178 53 178.038 48.250 L 178.077 43.500 182.288 48.258 C 185.907 52.347, 187.028 53.015, 190.250 53.008 L 194 53 194 40.443 L 194 27.885 189.750 28.193 C 185.537 28.497, 185.496 28.538, 185 32.851 L 184.500 37.203 181.029 32.555 C 177.789 28.216, 177.290 27.926, 173.529 28.203 L 169.500 28.500 169.194 40 L 168.888 51.500 164.116 40 L 159.343 28.500 154.896 28.204 L 150.448 27.909 145.293 40.454 M 203.418 28.914 C 202.274 29.408, 200.136 31.238, 198.668 32.982 C 196.566 35.481, 196 37.200, 196 41.091 C 196 45.287, 196.498 46.572, 199.312 49.643 C 202.061 52.643, 203.464 53.336, 207.562 53.718 C 211.592 54.094, 213.143 53.741, 215.993 51.804 C 220.498 48.742, 220.775 46.889, 217.055 44.692 C 214.276 43.050, 213.871 43.038, 211.594 44.530 C 209.678 45.786, 208.677 45.898, 207.067 45.036 C 204.548 43.688, 204.272 38.849, 206.604 36.914 C 207.947 35.799, 208.646 35.834, 210.899 37.128 C 213.312 38.512, 213.924 38.515, 216.796 37.155 C 220.645 35.331, 220.794 34.095, 217.533 31.031 C 214.825 28.487, 207.101 27.329, 203.418 28.914 M 225.912 30.280 C 221.831 33.031, 220.029 36.313, 220.029 41 C 220.029 45.687, 221.831 48.969, 225.912 51.720 C 234.574 57.557, 246.993 51.242, 246.993 41 C 246.993 30.634, 234.679 24.372, 225.912 30.280 M 248.667 28.667 C 248.300 29.033, 248 34.658, 248 41.167 L 248 53 252.500 53 L 257 53 257.023 47.750 L 257.046 42.500 259.220 46.250 C 260.415 48.313, 261.710 50, 262.098 50 C 262.486 50, 263.740 48.538, 264.885 46.750 L 266.966 43.500 266.983 48.250 L 267 53 276.531 53 C 284.081 53, 286.182 52.688, 286.638 51.500 C 287.010 50.532, 288.557 50, 291 50 C 293.443 50, 294.990 50.532, 295.362 51.500 C 296.098 53.420, 305.040 53.653, 304.924 51.750 C 304.883 51.063, 302.727 45.550, 300.134 39.500 L 295.419 28.500 290.976 28.500 L 286.532 28.500 281.516 40.469 L 276.500 52.438 276.219 40.219 L 275.938 28 271.571 28 C 267.520 28, 267.028 28.297, 264.791 32.085 L 262.378 36.170 259.675 32.085 C 257.296 28.490, 256.514 28, 253.152 28 C 251.052 28, 249.033 28.300, 248.667 28.667 M 306 40.443 L 306 53 310.531 53 L 315.062 53 314.781 40.750 L 314.500 28.500 310.250 28.193 L 306 27.885 306 40.443 M 316.667 28.667 C 316.300 29.033, 316 34.658, 316 41.167 L 316 53 320.937 53 C 325.775 53, 325.880 52.935, 326.187 49.750 L 326.500 46.500 328.466 49.750 C 330.286 52.760, 330.822 53, 335.730 53 L 341.028 53 338.434 49.080 L 335.840 45.160 337.920 43.080 C 340.402 40.598, 340.667 35.397, 338.471 32.261 C 337.629 31.060, 335.267 29.613, 333.221 29.044 C 329.070 27.892, 317.701 27.632, 316.667 28.667 M 45.239 47.260 L 28 64.521 28 72.398 L 28 80.276 42.258 79.792 C 53.570 79.408, 57.446 78.896, 61.019 77.316 C 74.382 71.405, 80.632 55.342, 74.605 42.398 C 72.158 37.144, 65.878 30, 63.706 30 C 63.031 30, 54.721 37.767, 45.239 47.260 M 127 40.566 C 127 44.958, 127.105 45.121, 129.750 44.816 C 132.042 44.553, 132.552 43.958, 132.813 41.249 C 133.076 38.521, 132.704 37.838, 130.498 36.999 C 129.053 36.450, 127.674 36, 127.435 36 C 127.196 36, 127 38.055, 127 40.566 M 230.571 37.571 C 229.707 38.436, 229 39.979, 229 41 C 229 43.170, 231.547 46, 233.500 46 C 235.453 46, 238 43.170, 238 41 C 238 38.830, 235.453 36, 233.500 36 C 232.754 36, 231.436 36.707, 230.571 37.571 M 326 38 C 326 39.646, 326.518 40.065, 328.250 39.820 C 329.488 39.644, 330.500 38.825, 330.500 38 C 330.500 37.175, 329.488 36.356, 328.250 36.180 C 326.518 35.935, 326 36.354, 326 38 M 153.732 41.915 C 153.371 43.298, 153.661 44, 154.594 44 C 156.189 44, 156.355 43.109, 155.123 41.165 C 154.480 40.151, 154.147 40.331, 153.732 41.915 M 289.638 42.500 C 289.288 43.414, 289.637 44, 290.531 44 C 291.339 44, 292 43.325, 292 42.500 C 292 41.675, 291.598 41, 291.107 41 C 290.616 41, 289.955 41.675, 289.638 42.500 M 50.503 56.997 L 36.527 71 45.448 71 C 59.245 71, 65.353 67.188, 68.117 56.851 C 69.085 53.234, 69.033 51.600, 67.840 48.019 C 67.034 45.602, 65.949 43.483, 65.427 43.309 C 64.906 43.135, 58.190 49.295, 50.503 56.997 M 119 69 L 119 77 125.500 77 C 131.767 77, 132 76.910, 132 74.500 C 132 72.252, 131.572 71.983, 127.750 71.832 L 123.500 71.664 127.250 71.272 C 130.114 70.972, 131 70.435, 131 69 C 131 67.565, 130.114 67.028, 127.250 66.728 L 123.500 66.336 127.750 66.168 C 131.572 66.017, 132 65.748, 132 63.500 C 132 61.090, 131.767 61, 125.500 61 L 119 61 119 69 M 140 69 C 140 76.867, 140.042 77, 142.500 77 C 144.646 77, 145.006 76.539, 145.041 73.750 L 145.081 70.500 147.863 73.750 C 149.421 75.570, 151.604 77, 152.823 77 C 154.878 77, 155 76.550, 155 69 C 155 61.133, 154.958 61, 152.500 61 C 150.354 61, 149.994 61.461, 149.959 64.250 L 149.919 67.500 147.137 64.250 C 145.579 62.430, 143.396 61, 142.177 61 C 140.122 61, 140 61.450, 140 69 M 165.174 63.314 C 160.020 68.801, 163.878 77, 171.614 77 C 176.590 77, 178 75.631, 178 70.800 C 178 67.931, 177.595 67, 176.345 67 C 174.810 67, 174.809 66.868, 176.331 65.186 C 178.626 62.651, 176.711 61, 171.474 61 C 168.455 61, 166.766 61.621, 165.174 63.314 M 186 69 C 186 76.867, 186.042 77, 188.500 77 C 190.958 77, 191 76.867, 191 69 C 191 61.133, 190.958 61, 188.500 61 C 186.042 61, 186 61.133, 186 69 M 200 69 C 200 76.867, 200.042 77, 202.500 77 C 204.646 77, 205.006 76.539, 205.041 73.750 L 205.081 70.500 207.863 73.750 C 209.421 75.570, 211.604 77, 212.823 77 C 214.878 77, 215 76.550, 215 69 C 215 61.133, 214.958 61, 212.500 61 C 210.354 61, 209.994 61.461, 209.959 64.250 L 209.919 67.500 207.137 64.250 C 205.579 62.430, 203.396 61, 202.177 61 C 200.122 61, 200 61.450, 200 69 M 223 69 L 223 77 229.500 77 C 235.726 77, 236 76.897, 236 74.557 C 236 72.411, 235.486 72.069, 231.750 71.732 L 227.500 71.349 231.750 71.175 C 235.231 71.032, 236 70.649, 236 69.057 C 236 67.499, 235.160 67.039, 231.750 66.732 L 227.500 66.349 231.750 66.175 C 235.570 66.018, 236 65.747, 236 63.500 C 236 61.090, 235.767 61, 229.500 61 L 223 61 223 69 M 244 69 L 244 77 250.500 77 C 256.767 77, 257 76.910, 257 74.500 C 257 72.252, 256.572 71.983, 252.750 71.832 L 248.500 71.664 252.250 71.272 C 255.114 70.972, 256 70.435, 256 69 C 256 67.565, 255.114 67.028, 252.250 66.728 L 248.500 66.336 252.750 66.168 C 256.572 66.017, 257 65.748, 257 63.500 C 257 61.090, 256.767 61, 250.500 61 L 244 61 244 69 M 265 69 C 265 76.867, 265.042 77, 267.500 77 C 269.552 77, 270.006 76.507, 270.036 74.250 L 270.072 71.500 272.324 74.250 C 273.814 76.071, 275.531 77, 277.403 77 C 280.220 77, 280.224 76.990, 278.522 74.393 C 277.286 72.507, 277.116 71.484, 277.907 70.693 C 278.508 70.092, 279 68.131, 279 66.335 C 279 62.262, 276.887 61, 270.066 61 L 265 61 265 69 M 287 69 C 287 76.867, 287.042 77, 289.500 77 C 291.958 77, 292 76.867, 292 69 C 292 61.133, 291.958 61, 289.500 61 C 287.042 61, 287 61.133, 287 69 M 301 69 C 301 76.867, 301.042 77, 303.500 77 C 305.648 77, 306.004 76.543, 306.027 73.750 L 306.054 70.500 308.777 73.759 C 310.379 75.676, 312.427 77.014, 313.750 77.009 C 315.895 77, 316 76.627, 316 69 C 316 61.133, 315.958 61, 313.500 61 C 311.289 61, 311 61.423, 311 64.661 L 311 68.322 308.250 64.697 C 306.555 62.463, 304.637 61.059, 303.250 61.036 C 301.101 61.002, 301 61.360, 301 69 M 326.789 62.363 C 322.603 65.544, 322.753 73.727, 327.039 76.021 C 329.431 77.301, 334.624 77.272, 337.066 75.965 C 339.652 74.581, 339.888 67, 337.345 67 C 335.834 67, 335.841 66.833, 337.428 65.080 C 339.084 63.249, 339.071 63.109, 337.149 62.080 C 334.420 60.619, 328.886 60.771, 326.789 62.363 M 169.690 66.154 C 167.722 67.255, 167.477 70.077, 169.200 71.800 C 170.656 73.256, 173 73.380, 173 72 C 173 71.450, 172.325 71, 171.500 71 C 169.021 71, 169.704 67.182, 172.250 66.811 C 173.974 66.559, 174.135 66.333, 172.940 65.845 C 172.081 65.495, 170.619 65.634, 169.690 66.154 M 330.200 66.200 C 327.868 68.532, 329.511 73, 332.700 73 C 333.415 73, 334 72.550, 334 72 C 334 71.450, 333.325 71, 332.500 71 C 331.667 71, 331 70.111, 331 69 C 331 67.597, 331.672 66.995, 333.250 66.985 C 335.069 66.972, 335.213 66.784, 334 66 C 332.050 64.740, 331.638 64.762, 330.200 66.200 M 270 67 C 270 67.550, 270.900 68, 272 68 C 273.100 68, 274 67.550, 274 67 C 274 66.450, 273.100 66, 272 66 C 270.900 66, 270 66.450, 270 67" stroke="none" fill="#24448c" fill-rule="evenodd"/></svg>