<?xml version="1.0" encoding="UTF-8"?>
<svg version="1.1" xmlns="http://www.w3.org/2000/svg" width="940" height="344">
<path d="M0 0 C76.23 0 152.46 0 231 0 C231 76.23 231 152.46 231 231 C154.77 231 78.54 231 0 231 C0 154.77 0 78.54 0 0 Z " fill="#24408F" transform="translate(55,57)"/>
<path d="M0 0 C7.858125 -0.061875 7.858125 -0.061875 15.875 -0.125 C18.32268799 -0.15231201 18.32268799 -0.15231201 20.81982422 -0.18017578 C41.54733884 -0.25891037 41.54733884 -0.25891037 49.3046875 6.2421875 C53.4956026 10.58760639 55.20508393 14.99108509 55.5 21 C55.23337041 26.78586211 53.52502283 31.46881858 49.3984375 35.60546875 C47.98451996 36.80160278 46.49777823 37.91070674 45 39 C46.1217963 40.7936743 47.24754483 42.5848773 48.375 44.375 C49.00148438 45.37273437 49.62796875 46.37046875 50.2734375 47.3984375 C51.89269712 50.0248019 51.89269712 50.0248019 54 52 C54.44988281 50.85789063 54.89976562 49.71578125 55.36328125 48.5390625 C59.39673211 38.35142544 63.54985127 28.21898636 67.8125 18.125 C68.28018799 17.01463379 68.74787598 15.90426758 69.22973633 14.76025391 C69.67599365 13.70757324 70.12225098 12.65489258 70.58203125 11.5703125 C71.17334839 10.17449951 71.17334839 10.17449951 71.77661133 8.75048828 C73.09286295 5.79122051 74.55156746 2.89686508 76 0 C82.6 0 89.2 0 96 0 C101.12397615 9.80735562 105.40144044 19.8649834 109.60595703 30.09277344 C110.75702159 32.89207597 111.91509181 35.68840255 113.07421875 38.484375 C113.81551196 40.27847739 114.55641158 42.07274248 115.296875 43.8671875 C115.63958435 44.69540009 115.9822937 45.52361267 116.33538818 46.37692261 C116.65622375 47.15858795 116.97705933 47.9402533 117.30761719 48.74560547 C117.72681427 49.76386917 117.72681427 49.76386917 118.15447998 50.80270386 C119.19321775 53.50212484 120.0853498 56.25604941 121 59 C113.41 59 105.82 59 98 59 C97.01 56.69 96.02 54.38 95 52 C88.73 51.67 82.46 51.34 76 51 C75.67 52.65 75.34 54.3 75 56 C74.67 56.99 74.34 57.98 74 59 C68.45026865 59.27328223 62.9044972 59.47210322 57.34960938 59.60424805 C55.46349857 59.65935118 53.57785319 59.7342651 51.69335938 59.82983398 C36.03832162 60.60348411 36.03832162 60.60348411 31.00390625 56.64306641 C28.93431405 53.83012384 27.40825671 51.18851105 26 48 C25.33360963 46.66652855 24.66706276 45.33313522 24 44 C23.01 44 22.02 44 21 44 C21 48.95 21 53.9 21 59 C14.07 59 7.14 59 0 59 C0 39.53 0 20.06 0 0 Z M20 18 C20 20.97 20 23.94 20 27 C21.95803507 27.05389087 23.91648909 27.09274217 25.875 27.125 C26.96554687 27.14820313 28.05609375 27.17140625 29.1796875 27.1953125 C32.1371051 27.30060534 32.1371051 27.30060534 34 25 C34.33333333 22.5 34.33333333 22.5 34 20 C32.1371051 17.69939466 32.1371051 17.69939466 29.1796875 17.8046875 C28.08914063 17.82789063 26.99859375 17.85109375 25.875 17.875 C24.23144531 17.90207031 24.23144531 17.90207031 22.5546875 17.9296875 C21.71164062 17.95289063 20.86859375 17.97609375 20 18 Z M85 27 C84.01 29.97 83.02 32.94 82 36 C84.64 36 87.28 36 90 36 C89.01 33.03 88.02 30.06 87 27 C86.34 27 85.68 27 85 27 Z " fill="#23408F" transform="translate(605,114)"/>
<path d="M0 0 C1.01037827 0.00222061 2.02075653 0.00444122 3.06175232 0.00672913 C4.77341331 0.00684242 4.77341331 0.00684242 6.51965332 0.00695801 C7.76129745 0.01211929 9.00294159 0.01728058 10.2822113 0.02259827 C12.17785072 0.02472069 12.17785072 0.02472069 14.11178589 0.02688599 C17.47705394 0.0315487 20.84225495 0.04053972 24.20750427 0.05158997 C27.63930175 0.06180606 31.07110614 0.06638403 34.50291443 0.07142639 C41.2405633 0.08248071 47.9781803 0.09923742 54.71580505 0.12025452 C53.90631965 2.10065607 53.09313336 4.07954528 52.27830505 6.05775452 C51.59961365 7.71097717 51.59961365 7.71097717 50.9072113 9.39759827 C49.71580505 12.12025452 49.71580505 12.12025452 48.71580505 13.12025452 C47.36596758 13.24210595 46.01005804 13.29792282 44.65501404 13.32557678 C43.79419724 13.345522 42.93338043 13.36546722 42.04647827 13.38601685 C41.11106705 13.40272934 40.17565582 13.41944183 39.2118988 13.43666077 C38.25888382 13.45744186 37.30586884 13.47822296 36.32397461 13.49963379 C33.26716095 13.56523629 30.21025849 13.62406369 27.15330505 13.68275452 C25.08623843 13.72592958 23.01918091 13.76954352 20.95213318 13.81361389 C15.8734491 13.92092853 10.79467535 14.02216542 5.71580505 14.12025452 C4.72580505 16.43025452 3.73580505 18.74025452 2.71580505 21.12025452 C13.60580505 21.12025452 24.49580505 21.12025452 35.71580505 21.12025452 C40.30976732 30.30817904 40.30976732 30.30817904 38.71580505 35.12025452 C37.3321992 38.4515629 35.80021509 41.69280767 34.21580505 44.93275452 C33.79943787 45.80351624 33.38307068 46.67427795 32.9540863 47.57142639 C29.87751793 53.95854164 29.87751793 53.95854164 28.71580505 55.12025452 C27.1596011 55.21613575 25.59904052 55.24213485 24.03988647 55.24050903 C23.02881332 55.2418837 22.01774017 55.24325836 20.97602844 55.24467468 C19.29828842 55.23928177 19.29828842 55.23928177 17.58665466 55.23377991 C16.41608017 55.23392593 15.24550568 55.23407196 14.03945923 55.23422241 C10.82059563 55.23364347 7.60177502 55.22861443 4.38292003 55.22164845 C1.02233106 55.21541408 -2.33825868 55.21481105 -5.69885254 55.21362305 C-12.06661837 55.21050998 -18.43436711 55.20229692 -24.80212539 55.19227356 C-32.04989223 55.18111167 -39.29765987 55.17560178 -46.54543316 55.17057812 C-61.45836329 55.16011428 -76.37127741 55.14251531 -91.28419495 55.12025452 C-90.63018734 49.88819369 -88.88860723 47.32907908 -86.28419495 42.12025452 C-50.64419495 42.12025452 -15.00419495 42.12025452 21.71580505 42.12025452 C22.04580505 40.47025452 22.37580505 38.82025452 22.71580505 37.12025452 C23.37580505 36.13025452 24.03580505 35.14025452 24.71580505 34.12025452 C13.82580505 34.12025452 2.93580505 34.12025452 -8.28419495 34.12025452 C-13.28419495 25.12025452 -13.28419495 25.12025452 -12.28419495 20.12025452 C-11.65742117 18.5625958 -10.97789246 17.02534218 -10.25294495 15.51087952 C-9.85462463 14.67427795 -9.45630432 13.83767639 -9.0459137 12.97572327 C-8.62954651 12.11591858 -8.21317932 11.25611389 -7.78419495 10.37025452 C-7.36782776 9.49498108 -6.95146057 8.61970764 -6.5224762 7.71791077 C-2.8981536 0.1525772 -2.8981536 0.1525772 0 0 Z " fill="#FDFDFE" transform="translate(199.28419494628906,144.87974548339844)"/>
<path d="M0 0 C19 0 19 0 23.77734375 3.54296875 C25.45117188 5.79882812 25.45117188 5.79882812 26.9375 8.1875 C27.48599609 8.95642578 28.03449219 9.72535156 28.59960938 10.51757812 C29.6157976 11.94908874 30.6074326 13.39867523 31.56225586 14.87182617 C33.23521827 17.34817416 35.13310195 19.66637744 37 22 C37.33 14.74 37.66 7.48 38 0 C44.6 0 51.2 0 58 0 C58 19.47 58 38.94 58 59 C40 59 40 59 35.86328125 56.25390625 C34.49414062 54.46289062 34.49414062 54.46289062 33.3125 52.5625 C32.88001953 51.97017578 32.44753906 51.37785156 32.00195312 50.76757812 C30.62695357 48.87416931 29.31433806 46.93601037 28 45 C25.69 42.03 23.38 39.06 21 36 C20.67 43.59 20.34 51.18 20 59 C13.4 59 6.8 59 0 59 C0 39.53 0 20.06 0 0 Z " fill="#233F8F" transform="translate(372,114)"/>
<path d="M0 0 C39.11868132 0 39.11868132 0 49 8 C56.12827205 15.55715149 57.66139419 22.84591354 57.3671875 32.98046875 C56.85929265 40.69434691 53.35796334 45.98743465 48 51.375 C38.08031458 59.27914882 26.37369711 59.55650276 14.1875 59.25 C9.505625 59.1675 4.82375 59.085 0 59 C0 39.53 0 20.06 0 0 Z M21 19 C21 25.93 21 32.86 21 40 C29.31762636 40.79499841 29.31762636 40.79499841 33 38.125 C36.32457746 34.59263645 36.33439212 31.95333478 36.2890625 27.26171875 C35.86115823 23.91365699 34.44926739 22.23933019 32 20 C28.26213521 18.57836298 28.26213521 18.57836298 21 19 Z " fill="#23408F" transform="translate(828,114)"/>
<path d="M0 0 C0.88602402 0.00222061 1.77204803 0.00444122 2.68492126 0.00672913 C3.68588333 0.00680466 4.6868454 0.00688019 5.71813965 0.00695801 C6.80666733 0.01211929 7.89519501 0.01728058 9.01670837 0.02259827 C10.67928932 0.02472069 10.67928932 0.02472069 12.37545776 0.02688599 C15.93168281 0.03250418 19.48784596 0.04505977 23.04405212 0.05775452 C25.44834809 0.06276717 27.85264504 0.06733048 30.25694275 0.07142639 C36.1651699 0.08247953 42.0733505 0.09975635 47.98155212 0.12025452 C47.98155212 5.73025452 47.98155212 11.34025452 47.98155212 17.12025452 C38.08155212 17.12025452 28.18155212 17.12025452 17.98155212 17.12025452 C17.98155212 18.77025452 17.98155212 20.42025452 17.98155212 22.12025452 C27.22155212 22.12025452 36.46155212 22.12025452 45.98155212 22.12025452 C45.98155212 27.07025452 45.98155212 32.02025452 45.98155212 37.12025452 C36.74155212 37.12025452 27.50155212 37.12025452 17.98155212 37.12025452 C17.98155212 38.77025452 17.98155212 40.42025452 17.98155212 42.12025452 C27.88155212 42.12025452 37.78155212 42.12025452 47.98155212 42.12025452 C47.98155212 47.73025452 47.98155212 53.34025452 47.98155212 59.12025452 C40.87909705 59.14489607 33.77666662 59.16308652 26.67417908 59.17518616 C24.2558804 59.18022801 21.83758479 59.1870613 19.41929626 59.19569397 C15.95175929 59.20776608 12.48426246 59.21348415 9.01670837 59.21791077 C7.92818069 59.22307205 6.83965302 59.22823334 5.71813965 59.23355103 C4.21669655 59.23366432 4.21669655 59.23366432 2.68492126 59.23377991 C1.35588524 59.23711082 1.35588524 59.23711082 0 59.24050903 C-2.01844788 59.12025452 -2.01844788 59.12025452 -3.01844788 58.12025452 C-3.11738565 56.34579442 -3.1464388 54.56739201 -3.14784241 52.79017639 C-3.15099457 51.65229675 -3.15414673 50.51441711 -3.15739441 49.34205627 C-3.15537018 48.10354919 -3.15334595 46.86504211 -3.15126038 45.58900452 C-3.1522171 44.32761658 -3.15317383 43.06622864 -3.15415955 41.76661682 C-3.15484162 39.09328314 -3.15348317 36.42004015 -3.14881897 33.74671936 C-3.14312168 30.31318761 -3.14640088 26.87973402 -3.15239143 23.44620514 C-3.1568655 20.18130209 -3.15373671 16.91640859 -3.15126038 13.65150452 C-3.15328461 12.41299744 -3.15530884 11.17449036 -3.15739441 9.89845276 C-3.15424225 8.76057312 -3.15109009 7.62269348 -3.14784241 6.45033264 C-3.14704681 5.44297058 -3.14625122 4.43560852 -3.14543152 3.39772034 C-2.98355333 0.49441699 -2.89917339 0.17272613 0 0 Z " fill="#223E8F" transform="translate(776.0184478759766,113.87974548339844)"/>
<path d="M0 0 C-0.56635374 3.87598342 -2.36333367 5.80941703 -5 8.625 C-7.83496105 11.58030757 -7.83496105 11.58030757 -10 15 C-12.72111263 14.45577747 -14.67654475 13.65509483 -17.1875 12.375 C-21.54602909 10.49099065 -25.50056688 10.5114025 -30 12 C-33.27126315 14.6704189 -34.65752177 16.10805716 -35.40234375 20.22265625 C-35.59647051 24.87393337 -35.17495752 28.40171482 -32 32 C-27.2172507 35.22557511 -23.56663461 35.28792938 -18 35 C-18 33.35 -18 31.7 -18 30 C-20.97 30 -23.94 30 -27 30 C-27 25.38 -27 20.76 -27 16 C-17.43 16 -7.86 16 2 16 C2 25.57 2 35.14 2 45 C-0.206875 46.134375 -2.41375 47.26875 -4.6875 48.4375 C-5.71556763 48.97201782 -5.71556763 48.97201782 -6.7644043 49.51733398 C-15.49756005 53.94275721 -26.59083619 54.6877264 -36.03515625 51.8125 C-44.7608107 48.20427709 -50.89114456 43.43048426 -55.02734375 34.875 C-58.50482067 25.90086601 -57.79734189 17.24054045 -54.18359375 8.4375 C-50.15517326 0.14134692 -42.94453727 -3.94755057 -34.6875 -7.375 C-21.65290464 -9.58425345 -10.77024488 -7.61137417 0 0 Z " fill="#23408F" transform="translate(599,121)"/>
<path d="M0 0 C16.5 0 33 0 50 0 C50 5.61 50 11.22 50 17 C40.1 17 30.2 17 20 17 C20 18.65 20 20.3 20 22 C29.24 22 38.48 22 48 22 C48 26.95 48 31.9 48 37 C38.76 37 29.52 37 20 37 C20 38.65 20 40.3 20 42 C30.23 42 40.46 42 51 42 C51 47.61 51 53.22 51 59 C34.17 59 17.34 59 0 59 C0 39.53 0 20.06 0 0 Z " fill="#23408F" transform="translate(490,114)"/>
<path d="M0 0 C0.95708359 0.00222061 1.91416718 0.00444122 2.9002533 0.00672913 C3.98129837 0.00680466 5.06234344 0.00688019 6.17614746 0.00695801 C7.94018166 0.01469994 7.94018166 0.01469994 9.73985291 0.02259827 C10.93702438 0.02401321 12.13419586 0.02542816 13.36764526 0.02688599 C17.20918732 0.03250472 21.05067208 0.04506041 24.89219666 0.05775452 C27.48920102 0.0627671 30.0862063 0.06733043 32.68321228 0.07142639 C39.06539597 0.08248025 45.44753659 0.09975744 51.82969666 0.12025452 C51.82969666 6.06025452 51.82969666 12.00025452 51.82969666 18.12025452 C46.21969666 18.12025452 40.60969666 18.12025452 34.82969666 18.12025452 C34.82969666 31.65025452 34.82969666 45.18025452 34.82969666 59.12025452 C27.89969666 59.12025452 20.96969666 59.12025452 13.82969666 59.12025452 C13.82969666 45.92025452 13.82969666 32.72025452 13.82969666 19.12025452 C8.21969666 18.79025452 2.60969666 18.46025452 -3.17030334 18.12025452 C-3.19092834 15.33587952 -3.21155334 12.55150452 -3.23280334 9.68275452 C-3.24190735 8.80433899 -3.25101135 7.92592346 -3.26039124 7.02088928 C-3.26753425 5.05379477 -3.22062227 3.08671831 -3.17030334 1.12025452 C-2.17030334 0.12025452 -2.17030334 0.12025452 0 0 Z " fill="#233F8F" transform="translate(719.1703033447266,113.87974548339844)"/>
<path d="M0 0 C17.82 0 35.64 0 54 0 C54 5.94 54 11.88 54 18 C48.39 18 42.78 18 37 18 C37 31.53 37 45.06 37 59 C30.4 59 23.8 59 17 59 C17 45.47 17 31.94 17 18 C11.39 18 5.78 18 0 18 C0 12.06 0 6.12 0 0 Z " fill="#23408F" transform="translate(433,114)"/>
<path d="M0 0 C11 0 11 0 14.04296875 2.9921875 C14.79922814 4.26270327 15.51393318 5.55877574 16.1875 6.875 C16.56712891 7.52597656 16.94675781 8.17695313 17.33789062 8.84765625 C20 13.51717902 20 13.51717902 20 16 C20.66 16 21.32 16 22 16 C22.26941406 15.29488281 22.53882813 14.58976563 22.81640625 13.86328125 C24.05495702 10.86705118 25.37994076 8.03223534 26.9375 5.1875 C27.44152344 4.21167969 27.94554687 3.23585937 28.46484375 2.23046875 C31 0 31 0 42 0 C42 13.86 42 27.72 42 42 C38.7 42 35.4 42 32 42 C31.505 30.615 31.505 30.615 31 19 C28.03 23.62 25.06 28.24 22 33 C16.71953278 31.23984426 14.79993416 25.59611834 12 21 C11.67 27.93 11.34 34.86 11 42 C7.37 42 3.74 42 0 42 C0 28.14 0 14.28 0 0 Z M10 18 C11 20 11 20 11 20 Z " fill="#224090" transform="translate(804,189)"/>
<path d="M0 0 C6.93 0 13.86 0 21 0 C21 19.47 21 38.94 21 59 C14.07 59 7.14 59 0 59 C0 39.53 0 20.06 0 0 Z " fill="#233F8E" transform="translate(346,114)"/>
<path d="M0 0 C9 0 9 0 11.05859375 1.2578125 C11.51363281 1.87398437 11.96867187 2.49015625 12.4375 3.125 C12.9840625 3.83914062 13.530625 4.55328125 14.09375 5.2890625 C14.7228125 6.18367187 15.351875 7.07828125 16 8 C16.88415224 9.21706539 17.76966657 10.43314199 18.65625 11.6484375 C21.14672736 15.07140927 23.56666761 18.53333467 26 22 C26.33 14.74 26.66 7.48 27 0 C30.3 0 33.6 0 37 0 C37 13.86 37 27.72 37 42 C28 42 28 42 25.74072266 40.41113281 C25.2204248 39.68249023 24.70012695 38.95384766 24.1640625 38.203125 C23.28041016 37.01203125 23.28041016 37.01203125 22.37890625 35.796875 C21.80011719 34.95640625 21.22132813 34.1159375 20.625 33.25 C20.02300781 32.425 19.42101562 31.6 18.80078125 30.75 C17.68171758 29.21159761 16.57430339 27.66460006 15.48291016 26.10644531 C14.0293407 24.0416779 12.51505984 22.02007978 11 20 C10.67 27.26 10.34 34.52 10 42 C6.7 42 3.4 42 0 42 C0 28.14 0 14.28 0 0 Z " fill="#233F90" transform="translate(385,189)"/>
<path d="M0 0 C3.63 -0.0825 7.26 -0.165 11 -0.25 C12.12792969 -0.28641602 13.25585938 -0.32283203 14.41796875 -0.36035156 C21.67147483 -0.43963883 27.10451473 0.58569465 32.65234375 5.44824219 C35.53430151 8.76667036 35.27265941 12.62739317 35.21875 16.78515625 C34.71926481 21.84244385 31.4436433 24.60616145 28 28 C28.5775 28.84304687 29.155 29.68609375 29.75 30.5546875 C30.50024193 31.66129435 31.25022874 32.76807419 32 33.875 C33.11375 35.51082031 33.11375 35.51082031 34.25 37.1796875 C36 40 36 40 36 42 C31.78906038 42.75796913 28.17591296 43.04397824 24 42 C21.31898663 39.06119688 19.57265173 36.13765591 17.71875 32.625 C16.86796875 31.325625 16.86796875 31.325625 16 30 C14.68 30 13.36 30 12 30 C11.67 33.96 11.34 37.92 11 42 C7.37 42 3.74 42 0 42 C0 28.14 0 14.28 0 0 Z M11 10 C11 13.3 11 16.6 11 20 C12.79133978 20.05391993 14.58313899 20.09275571 16.375 20.125 C17.37273437 20.14820313 18.37046875 20.17140625 19.3984375 20.1953125 C22.16262173 20.27216848 22.16262173 20.27216848 24 18 C24.33333333 15 24.33333333 15 24 12 C22.16262173 9.72783152 22.16262173 9.72783152 19.3984375 9.8046875 C18.40070313 9.82789063 17.40296875 9.85109375 16.375 9.875 C15.37210937 9.89304688 14.36921875 9.91109375 13.3359375 9.9296875 C12.17964844 9.96449219 12.17964844 9.96449219 11 10 Z " fill="#233F90" transform="translate(470,189)"/>
<path d="M0 0 C2.12324959 1.19686362 4.1205693 2.43277124 6.078125 3.8828125 C4.66020937 6.81728136 3.09479893 9.31613659 1.078125 11.8828125 C-3.796875 11.0078125 -3.796875 11.0078125 -4.921875 9.8828125 C-8.63100574 9.45365688 -12.2188464 9.38547143 -15.921875 9.8828125 C-18.44793204 12.16829268 -19.43256145 13.9041854 -20.921875 16.8828125 C-21.04752874 21.45122357 -20.44652659 24.99633223 -18.109375 28.9453125 C-13.23825887 31.90618701 -8.48074307 31.28177432 -2.921875 30.8828125 C-2.921875 29.2328125 -2.921875 27.5828125 -2.921875 25.8828125 C-5.891875 25.8828125 -8.861875 25.8828125 -11.921875 25.8828125 C-11.921875 22.5828125 -11.921875 19.2828125 -11.921875 15.8828125 C-5.651875 15.8828125 0.618125 15.8828125 7.078125 15.8828125 C7.078125 22.4828125 7.078125 29.0828125 7.078125 35.8828125 C-1.22126792 40.62532274 -6.41615356 43.12821451 -15.921875 41.8828125 C-23.58559673 39.29256018 -27.84940795 35.73167988 -31.671875 28.6328125 C-33.86538556 22.05228081 -33.75772543 17.07597597 -30.921875 10.6953125 C-24.80152427 -0.53115942 -11.97672237 -4.57933502 0 0 Z " fill="#223F8F" transform="translate(542.921875,190.1171875)"/>
<path d="M0 0 C10.56 0 21.12 0 32 0 C32 3.3 32 6.6 32 10 C24.74 10 17.48 10 10 10 C10 11.98 10 13.96 10 16 C10.85549438 15.99214478 10.85549438 15.99214478 11.72827148 15.98413086 C14.29800323 15.96341779 16.86771747 15.9503581 19.4375 15.9375 C20.78424805 15.92493164 20.78424805 15.92493164 22.15820312 15.91210938 C23.01220703 15.90888672 23.86621094 15.90566406 24.74609375 15.90234375 C25.53685303 15.89710693 26.3276123 15.89187012 27.14233398 15.88647461 C29 16 29 16 30 17 C30.1328125 18.8125 30.1328125 18.8125 30.125 21 C30.12886719 22.0828125 30.12886719 22.0828125 30.1328125 23.1875 C30 25 30 25 29 26 C27.58429877 26.08651611 26.164405 26.10704904 24.74609375 26.09765625 C23.89208984 26.09443359 23.03808594 26.09121094 22.15820312 26.08789062 C20.81145508 26.07532227 20.81145508 26.07532227 19.4375 26.0625 C18.53580078 26.05798828 17.63410156 26.05347656 16.70507812 26.04882812 C14.46998686 26.03700225 12.23502563 26.0205222 10 26 C10 28.31 10 30.62 10 33 C17.26 33 24.52 33 32 33 C32 35.97 32 38.94 32 42 C21.44 42 10.88 42 0 42 C0 28.14 0 14.28 0 0 Z " fill="#23408F" transform="translate(765,189)"/>
<path d="M0 0 C10.56 0 21.12 0 32 0 C32 3.3 32 6.6 32 10 C24.74 10 17.48 10 10 10 C10 11.98 10 13.96 10 16 C16.27 16 22.54 16 29 16 C29 19.3 29 22.6 29 26 C22.73 26 16.46 26 10 26 C10 28.31 10 30.62 10 33 C17.26 33 24.52 33 32 33 C32 35.97 32 38.94 32 42 C21.44 42 10.88 42 0 42 C0 28.14 0 14.28 0 0 Z " fill="#23408F" transform="translate(431,189)"/>
<path d="M0 0 C10.56 0 21.12 0 32 0 C32 3.3 32 6.6 32 10 C24.74 10 17.48 10 10 10 C10 11.98 10 13.96 10 16 C16.27 16 22.54 16 29 16 C29 19.3 29 22.6 29 26 C22.73 26 16.46 26 10 26 C10 28.31 10 30.62 10 33 C17.26 33 24.52 33 32 33 C32 35.97 32 38.94 32 42 C21.44 42 10.88 42 0 42 C0 28.14 0 14.28 0 0 Z " fill="#23408F" transform="translate(346,189)"/>
<path d="M0 0 C0.51046875 0.28875 1.0209375 0.5775 1.546875 0.875 C0.78284085 4.34653381 -0.53499411 6.87270818 -2.453125 9.875 C-3.30197266 9.66037109 -3.30197266 9.66037109 -4.16796875 9.44140625 C-6.44614985 8.87672888 -8.72744618 8.33518044 -11.015625 7.8125 C-12.16224609 7.54759766 -12.16224609 7.54759766 -13.33203125 7.27734375 C-15.58454604 6.78181812 -15.58454604 6.78181812 -18.453125 6.875 C-18.52151753 8.83599362 -18.52151753 8.83599362 -17.453125 10.875 C-14.37743656 12.0977737 -11.37480994 12.95199921 -8.17578125 13.765625 C-2.86049075 15.29024664 -0.49208105 17.20369042 2.546875 21.875 C3.67114563 26.51872651 3.21975129 30.60999257 0.984375 34.8125 C-3.88016953 38.92865306 -8.76882978 40.44275576 -15.04296875 40.23828125 C-20.66037895 39.39157274 -25.76039533 37.00348645 -30.453125 33.875 C-29.91085519 30.07911134 -28.25184937 28.40288007 -25.453125 25.875 C-24.69 26.184375 -23.926875 26.49375 -23.140625 26.8125 C-19.46166637 28.26697202 -16.70216838 28.99455135 -12.765625 28.9375 C-11.95738281 28.92847656 -11.14914062 28.91945312 -10.31640625 28.91015625 C-9.70152344 28.89855469 -9.08664062 28.88695312 -8.453125 28.875 C-8.453125 27.885 -8.453125 26.895 -8.453125 25.875 C-9.56171875 25.48828125 -10.6703125 25.1015625 -11.8125 24.703125 C-13.27625412 24.1776748 -14.73978419 23.65160015 -16.203125 23.125 C-16.93273437 22.87234375 -17.66234375 22.6196875 -18.4140625 22.359375 C-22.57526314 20.84621113 -25.72315936 19.53799187 -28.453125 15.875 C-29.86793658 11.62283405 -29.73818822 7.8192719 -28.453125 3.5625 C-21.40046382 -5.91451347 -9.67784558 -4.9418786 0 0 Z " fill="#223F8F" transform="translate(882.453125,192.125)"/>
<path d="M0 0 C2.13106799 0.95239489 4.18381734 1.95269908 6.21484375 3.1015625 C5.68415314 6.92253489 4.71782809 9.16327653 2.21484375 12.1015625 C1.65023437 11.95976562 1.085625 11.81796875 0.50390625 11.671875 C-0.25148438 11.48367187 -1.006875 11.29546875 -1.78515625 11.1015625 C-2.54054688 10.91335937 -3.2959375 10.72515625 -4.07421875 10.53125 C-5.23050781 10.25667969 -5.23050781 10.25667969 -6.41015625 9.9765625 C-7.18617188 9.78835937 -7.9621875 9.60015625 -8.76171875 9.40625 C-10.84864295 8.89355218 -10.84864295 8.89355218 -12.78515625 10.1015625 C-13.11515625 11.0915625 -13.44515625 12.0815625 -13.78515625 13.1015625 C-13.01171875 13.26011719 -12.23828125 13.41867188 -11.44140625 13.58203125 C3.37695797 16.90149155 3.37695797 16.90149155 7.77734375 23.4140625 C8.59564493 28.44076976 8.15263306 32.47846562 5.58984375 36.9140625 C0.8903292 41.24256274 -4.11604732 42.67565286 -10.375 42.4609375 C-16.00171045 41.62194664 -22.10221329 39.6280182 -25.78515625 35.1015625 C-25.78515625 34.4415625 -25.78515625 33.7815625 -25.78515625 33.1015625 C-25.12515625 33.1015625 -24.46515625 33.1015625 -23.78515625 33.1015625 C-23.53765625 32.4621875 -23.29015625 31.8228125 -23.03515625 31.1640625 C-21.78515625 29.1015625 -21.78515625 29.1015625 -19.97265625 28.1640625 C-17.78515625 28.1015625 -17.78515625 28.1015625 -15.59765625 29.5390625 C-11.66039539 31.72642965 -8.19326785 31.36086318 -3.78515625 31.1015625 C-3.79589483 29.131899 -3.79589483 29.131899 -4.78515625 27.1015625 C-7.62278118 25.87214907 -7.62278118 25.87214907 -11.03515625 25.1015625 C-15.904916 23.86759623 -19.0882961 22.55556323 -22.78515625 19.1015625 C-24.64973824 15.37239853 -24.34563911 11.16194946 -23.78515625 7.1015625 C-19.16087039 -1.99903207 -8.9117262 -2.87475039 0 0 Z " fill="#233F8F" transform="translate(713.78515625,189.8984375)"/>
<path d="M0 0 C0.51046875 0.28875 1.0209375 0.5775 1.546875 0.875 C0.78284085 4.34653381 -0.53499411 6.87270818 -2.453125 9.875 C-3.30197266 9.66037109 -3.30197266 9.66037109 -4.16796875 9.44140625 C-6.44614985 8.87672888 -8.72744618 8.33518044 -11.015625 7.8125 C-12.16224609 7.54759766 -12.16224609 7.54759766 -13.33203125 7.27734375 C-15.58454604 6.78181812 -15.58454604 6.78181812 -18.453125 6.875 C-18.43778628 8.84692981 -18.43778628 8.84692981 -17.453125 10.875 C-14.64757661 12.06807186 -14.64757661 12.06807186 -11.265625 12.8125 C-5.73921903 14.34727575 -2.38697034 15.7226077 1.546875 19.875 C3.28657369 23.35439739 2.99517407 27.07086218 2.546875 30.875 C0.67530752 34.91758576 -0.80440892 36.49340231 -4.640625 38.75 C-13.17323833 41.26782033 -19.55821628 39.77970215 -27.453125 35.875 C-28.443125 35.215 -29.433125 34.555 -30.453125 33.875 C-29.85384674 30.51904172 -28.60690064 28.49698774 -26.453125 25.875 C-23.95203307 26.29184865 -21.82700504 26.67559731 -19.578125 27.875 C-17.20902771 28.98986931 -15.30215831 29.27067353 -12.703125 29.5 C-11.90390625 29.57476562 -11.1046875 29.64953125 -10.28125 29.7265625 C-9.67796875 29.77554688 -9.0746875 29.82453125 -8.453125 29.875 C-8.453125 28.555 -8.453125 27.235 -8.453125 25.875 C-9.56171875 25.48828125 -10.6703125 25.1015625 -11.8125 24.703125 C-13.27625412 24.1776748 -14.73978419 23.65160015 -16.203125 23.125 C-16.93273437 22.87234375 -17.66234375 22.6196875 -18.4140625 22.359375 C-22.578077 20.84518791 -25.71423726 19.5337667 -28.453125 15.875 C-29.74835264 12.22542628 -29.97242184 8.55545748 -28.82421875 4.83984375 C-27.33263082 1.90035456 -25.5420129 -0.05611188 -22.953125 -2.0625 C-14.84742012 -4.52316041 -7.50520085 -3.83244299 0 0 Z " fill="#223F8F" transform="translate(643.453125,192.125)"/>
<path d="M0 0 C4.62 0 9.24 0 14 0 C12.53889414 4.38331758 11.07242903 8.12633257 9.05859375 12.2265625 C8.63268196 13.09930061 8.63268196 13.09930061 8.19816589 13.9896698 C7.59288727 15.22987364 6.98612672 16.46935517 6.37799072 17.7081604 C0.33267885 30.02927416 -5.47174161 42.43710594 -11 55 C-15.62 55 -20.24 55 -25 55 C-24.28478456 51.4239228 -23.81455089 49.24811034 -22.3293457 46.13452148 C-21.98841385 45.41284286 -21.64748199 44.69116425 -21.29621887 43.94761658 C-20.92647446 43.17986404 -20.55673004 42.41211151 -20.17578125 41.62109375 C-19.79189743 40.81317886 -19.40801361 40.00526398 -19.01249695 39.17286682 C-17.7843794 36.59188829 -16.54842975 34.01474511 -15.3125 31.4375 C-14.50016407 29.73135157 -13.68831033 28.02497346 -12.87695312 26.31835938 C-8.67598921 17.49803181 -4.40621445 8.71989128 0 0 Z " fill="#F8F9FB" transform="translate(112,145)"/>
<path d="M0 0 C1.01037827 0.00222061 2.02075653 0.00444122 3.06175232 0.00672913 C4.77341331 0.00684242 4.77341331 0.00684242 6.51965332 0.00695801 C7.76129745 0.01211929 9.00294159 0.01728058 10.2822113 0.02259827 C12.17785072 0.02472069 12.17785072 0.02472069 14.11178589 0.02688599 C17.47705394 0.0315487 20.84225495 0.04053972 24.20750427 0.05158997 C27.63930175 0.06180606 31.07110614 0.06638403 34.50291443 0.07142639 C41.2405633 0.08248071 47.9781803 0.09923742 54.71580505 0.12025452 C53.90631965 2.10065607 53.09313336 4.07954528 52.27830505 6.05775452 C51.82584412 7.15990295 51.37338318 8.26205139 50.9072113 9.39759827 C49.71580505 12.12025452 49.71580505 12.12025452 48.71580505 13.12025452 C46.93588582 13.21396076 45.15223766 13.23769723 43.36985779 13.23377991 C42.22875046 13.23370438 41.08764313 13.23362885 39.91195679 13.23355103 C38.67031265 13.22838974 37.42866852 13.22322845 36.1493988 13.21791077 C34.25375938 13.21578835 34.25375938 13.21578835 32.31982422 13.21362305 C28.95455616 13.20896034 25.58935516 13.19996932 22.22410583 13.18891907 C18.79230836 13.17870298 15.36050397 13.174125 11.92869568 13.16908264 C5.19104681 13.15802832 -1.54657019 13.14127162 -8.28419495 13.12025452 C-7.47470954 11.13985296 -6.66152325 9.16096375 -5.84669495 7.18275452 C-5.39423401 6.08060608 -4.94177307 4.97845764 -4.4756012 3.84291077 C-2.85986733 0.15056156 -2.85986733 0.15056156 0 0 Z " fill="#FDFDFE" transform="translate(125.28419494628906,165.87974548339844)"/>
<path d="M0 0 C1.01037827 0.00222061 2.02075653 0.00444122 3.06175232 0.00672913 C4.77341331 0.00684242 4.77341331 0.00684242 6.51965332 0.00695801 C7.76129745 0.01211929 9.00294159 0.01728058 10.2822113 0.02259827 C12.17785072 0.02472069 12.17785072 0.02472069 14.11178589 0.02688599 C17.47705394 0.0315487 20.84225495 0.04053972 24.20750427 0.05158997 C27.63930175 0.06180606 31.07110614 0.06638403 34.50291443 0.07142639 C41.2405633 0.08248071 47.9781803 0.09923742 54.71580505 0.12025452 C53.90631965 2.10065607 53.09313336 4.07954528 52.27830505 6.05775452 C51.82584412 7.15990295 51.37338318 8.26205139 50.9072113 9.39759827 C49.71580505 12.12025452 49.71580505 12.12025452 48.71580505 13.12025452 C46.93588582 13.21396076 45.15223766 13.23769723 43.36985779 13.23377991 C42.22875046 13.23370438 41.08764313 13.23362885 39.91195679 13.23355103 C38.67031265 13.22838974 37.42866852 13.22322845 36.1493988 13.21791077 C34.25375938 13.21578835 34.25375938 13.21578835 32.31982422 13.21362305 C28.95455616 13.20896034 25.58935516 13.19996932 22.22410583 13.18891907 C18.79230836 13.17870298 15.36050397 13.174125 11.92869568 13.16908264 C5.19104681 13.15802832 -1.54657019 13.14127162 -8.28419495 13.12025452 C-7.47470954 11.13985296 -6.66152325 9.16096375 -5.84669495 7.18275452 C-5.39423401 6.08060608 -4.94177307 4.97845764 -4.4756012 3.84291077 C-2.85986733 0.15056156 -2.85986733 0.15056156 0 0 Z " fill="#FDFDFE" transform="translate(135.28419494628906,144.87974548339844)"/>
<path d="M0 0 C3.83018466 -0.62335736 7.19397147 -0.85033746 11 0 C14.07418429 2.93669841 15.94299608 6.3108082 18 10 C18.97813087 11.34945833 19.9708386 12.6890444 21 14 C21.56589844 13.07316406 22.13179687 12.14632812 22.71484375 11.19140625 C23.45565576 9.98172588 24.19654518 8.77209291 24.9375 7.5625 C25.31068359 6.95083984 25.68386719 6.33917969 26.06835938 5.70898438 C28.88671875 1.11328125 28.88671875 1.11328125 30 0 C31.85287502 -0.07226502 33.70833878 -0.0838122 35.5625 -0.0625 C36.57441406 -0.05347656 37.58632813 -0.04445312 38.62890625 -0.03515625 C39.41136719 -0.02355469 40.19382812 -0.01195312 41 0 C40.38759446 2.9761265 39.45323438 5.15944436 37.8203125 7.71484375 C37.38589844 8.40126953 36.95148437 9.08769531 36.50390625 9.79492188 C36.04886719 10.50197266 35.59382812 11.20902344 35.125 11.9375 C33.8015353 14.01804754 32.47892289 16.09889688 31.16625977 18.1862793 C30.23171615 19.63964428 29.23643987 21.0538808 28.22265625 22.453125 C26.43522651 26.17646108 26.43229134 29.72932664 26.3125 33.8125 C26.27833984 34.60076172 26.24417969 35.38902344 26.20898438 36.20117188 C26.12700125 38.13363119 26.06181155 40.06679035 26 42 C22.37 42 18.74 42 15 42 C15.07863281 41.01644531 15.15726563 40.03289062 15.23828125 39.01953125 C15.68527808 25.56196854 9.91160975 16.84378296 2.29101562 6.11206055 C1.02463106 4.04029563 0.43772928 2.37293582 0 0 Z " fill="#223F90" transform="translate(552,189)"/>
<path d="M0 0 C3.96 0 7.92 0 12 0 C14.64 4.62 17.28 9.24 20 14 C22.89217679 11.10782321 24.13416452 8.88091035 26 5.3125 C29.11655157 0.21878131 29.11655157 0.21878131 32.90234375 -0.71875 C35.67774364 -0.69017445 38.26990866 -0.48875053 41 0 C40.37321856 3.39778987 39.08457903 5.58312835 37.09375 8.38671875 C29.36250947 19.71418523 24.89137591 28.13311177 26 42 C22.37 42 18.74 42 15 42 C15.03222656 40.94683594 15.06445312 39.89367187 15.09765625 38.80859375 C15.12740901 26.05953458 11.12903304 18.15085099 3.58789062 8.12207031 C0 3.29182828 0 3.29182828 0 0 Z " fill="#223F8F" transform="translate(647,189)"/>
<path d="M0 0 C1.43352212 0.00015908 2.86704998 0.00585132 4.30053711 0.01586914 C5.43041298 0.01799156 5.43041298 0.01799156 6.58311462 0.02015686 C8.99807646 0.02577163 11.41294687 0.03832656 13.82788086 0.05102539 C15.46134307 0.05603849 17.09480672 0.06060173 18.72827148 0.06469727 C22.74067671 0.07574585 26.75301326 0.09302033 30.76538086 0.11352539 C30.76538086 3.41352539 30.76538086 6.71352539 30.76538086 10.11352539 C26.80538086 10.11352539 22.84538086 10.11352539 18.76538086 10.11352539 C18.76538086 20.67352539 18.76538086 31.23352539 18.76538086 42.11352539 C15.46538086 42.11352539 12.16538086 42.11352539 8.76538086 42.11352539 C8.76538086 31.55352539 8.76538086 20.99352539 8.76538086 10.11352539 C4.47538086 10.11352539 0.18538086 10.11352539 -4.23461914 10.11352539 C-4.33227539 3.17993164 -4.33227539 3.17993164 -4.23461914 1.11352539 C-3.23461914 0.11352539 -3.23461914 0.11352539 0 0 Z " fill="#234090" transform="translate(728.234619140625,188.886474609375)"/>
<path d="M0 0 C0.33 0 0.66 0 1 0 C1 19.14 1 38.28 1 58 C0.01 58 -0.98 58 -2 58 C-2 39.52 -2 21.04 -2 2 C-7.28 2 -12.56 2 -18 2 C-18 1.67 -18 1.34 -18 1 C-16.17662109 1.01740234 -16.17662109 1.01740234 -14.31640625 1.03515625 C-12.73177236 1.04453278 -11.14713682 1.05363313 -9.5625 1.0625 C-8.76005859 1.07087891 -7.95761719 1.07925781 -7.13085938 1.08789062 C-5.08704779 1.0965143 -3.04316098 1.0522815 -1 1 C-0.67 0.67 -0.34 0.34 0 0 Z " fill="#2A4697" transform="translate(366,115)"/>
<path d="" fill="#FFFFFF" transform="translate(0,0)"/>
</svg>
