<?xml version="1.0" encoding="UTF-8"?>
<svg version="1.1" xmlns="http://www.w3.org/2000/svg" width="2400" height="624">
<path d="M0 0 C1.03257683 -0.0098568 1.03257683 -0.0098568 2.08601379 -0.01991272 C4.35853194 -0.03958108 6.63098411 -0.05129535 8.90356445 -0.0612793 C9.6830073 -0.06535482 10.46245014 -0.06943035 11.26551247 -0.07362938 C15.39315142 -0.09446508 19.52075739 -0.10877618 23.6484375 -0.11816406 C27.89403228 -0.12920842 32.13910008 -0.16359224 36.38450909 -0.20333576 C39.6643821 -0.22958763 42.9441313 -0.23786357 46.22410011 -0.24144554 C47.78807944 -0.24629134 49.35205399 -0.25784762 50.91592979 -0.27648354 C69.01000814 -0.47865804 69.01000814 -0.47865804 75.94023132 5.8860321 C80.68382528 10.8984718 82.31126813 15.77423308 82.24496078 22.68253517 C81.88942436 28.03756553 80.74157946 33.28561201 79.72436523 38.546875 C79.47082261 39.8864312 79.21793109 41.22611076 78.96563721 42.56590271 C78.28187117 46.18726509 77.58922225 49.80687751 76.89505243 53.42625785 C76.16710348 57.23078409 75.44784787 61.03695273 74.72775269 64.8429718 C73.36165043 72.05669979 71.98850758 79.26906722 70.61248195 86.48090822 C68.15352835 99.36979849 65.70703961 112.26105843 63.26237953 125.15266639 C62.40599578 129.66721943 61.54673296 134.18121183 60.68493295 138.69473398 C60.14595605 141.51941978 59.60879547 144.34444913 59.0719986 147.16954994 C58.7089591 149.07691452 58.34362184 150.98384132 57.97817993 152.89074707 C53.95535231 174.09225203 50.76810232 193.88284376 63.0793457 213.17700195 C72.51160374 225.668941 88.48270894 229.71264127 103.2043457 232.42700195 C134.50614111 236.63851624 168.25604244 229.04518187 194.7043457 211.73950195 C213.43737533 197.42954877 219.62906183 175.19873257 223.73168945 153.0246582 C224.07095079 151.22892165 224.41104433 149.43334215 224.75190735 147.63790894 C225.47481148 143.821165 226.19206796 140.00342026 226.90490723 136.18478394 C228.0225868 130.19968397 229.15586102 124.21759978 230.29125977 118.23583984 C233.40788093 101.7976571 236.49973049 85.35496868 239.53519154 68.90159321 C240.71355235 62.5144958 241.90115045 56.12916684 243.0956831 49.74507427 C243.91173817 45.37775299 244.7121722 41.00795098 245.50049877 36.63554382 C245.87126004 34.59386979 246.24969733 32.55380062 246.63163757 30.51419067 C247.08903926 28.07125142 247.53455284 25.62603866 247.96492004 23.17819214 C249.38118203 15.76264256 251.35985767 9.4393462 257.17700195 4.3371582 C257.82540039 3.97493164 258.47379883 3.61270508 259.1418457 3.23950195 C259.79282227 2.85922852 260.44379883 2.47895508 261.11450195 2.0871582 C265.39515282 0.10427221 269.32172738 0.0415915 274.01586914 0.01586914 C275.05085541 0.00842178 275.05085541 0.00842178 276.10675049 0.00082397 C278.38408415 -0.01375162 280.6613481 -0.02059266 282.9387207 -0.02612305 C284.52809652 -0.03187918 286.11747234 -0.03763686 287.70684814 -0.043396 C291.03902509 -0.05389352 294.371178 -0.05974405 297.70336914 -0.06323242 C301.95793359 -0.06870831 306.2121766 -0.09272206 310.46664047 -0.12120438 C313.75076197 -0.13989792 317.03480716 -0.14503996 320.31897736 -0.1465683 C321.88655602 -0.14958125 323.45413378 -0.15756359 325.02165985 -0.17075348 C342.89159085 -0.31036185 342.89159085 -0.31036185 349.3215332 5.04418945 C355.1806602 12.24895327 356.61118063 16.92077229 356.0793457 26.17700195 C355.41533996 31.04690662 354.48816659 35.86156032 353.55102539 40.68481445 C353.27689735 42.13187674 353.00357929 43.57909266 352.73099899 45.0264473 C351.98765316 48.96098615 351.23305587 52.89329236 350.47650719 56.82531071 C349.67026224 61.02660798 348.87474264 65.22993621 348.07800293 69.43304443 C346.53811662 77.54781584 344.98890582 85.66077842 343.43639088 93.7731421 C341.47232508 104.03817418 339.51939809 114.30531971 337.56665039 124.57250977 C336.85487135 128.3142841 336.14300605 132.05604201 335.43109131 135.79779053 C335.25513687 136.72262717 335.07918244 137.64746382 334.89789605 138.60032582 C333.65304864 145.14239235 332.40626252 151.68408772 331.15875244 158.22564697 C327.20534325 178.95979706 323.27754758 199.69840657 319.40196991 220.44725037 C318.68677751 224.27563891 317.97064734 228.10385082 317.25421143 231.93200684 C314.66273479 245.7788013 314.66273479 245.7788013 312.08508301 259.62817383 C311.12478426 264.80296758 310.15801284 269.97650885 309.18617249 275.14914703 C308.84043367 276.99634863 308.49721941 278.84402499 308.15684509 280.6922226 C307.69915576 283.17639673 307.23263219 285.65875565 306.76391602 288.14086914 C306.63631771 288.84601654 306.50871941 289.55116394 306.37725449 290.27767944 C305.10123965 296.93621707 303.62437606 303.65334996 298.1418457 308.05200195 C297.47282227 308.60629883 296.80379883 309.1605957 296.11450195 309.73168945 C291.63829437 312.91057008 288.13157427 313.47817382 282.68383789 313.48339844 C281.94507919 313.49172195 281.2063205 313.50004547 280.44517517 313.50862122 C278.00546984 313.53269387 275.56603218 313.54149094 273.1262207 313.5480957 C271.42474286 313.55706586 269.72326581 313.56618778 268.02178955 313.57545471 C264.45420416 313.59194105 260.88671256 313.59964386 257.3190918 313.60253906 C252.76161708 313.607915 248.20503202 313.64556324 243.64780807 313.69128323 C240.1320479 313.72112389 236.61649986 313.72826417 233.10062408 313.72926521 C231.42137844 313.73345554 229.74213147 313.74584198 228.06301117 313.76678276 C218.28111706 313.87904 210.94672536 313.82994738 203.58172607 306.7341156 C199.12781595 301.90111886 197.97627878 297.44215124 198.0793457 291.05200195 C198.1205957 290.22442383 198.1618457 289.3968457 198.2043457 288.54418945 C198.0583771 285.77990895 197.79393578 284.36894949 196.0793457 282.17700195 C193.39925763 280.8653882 193.39925763 280.8653882 190.0793457 281.17700195 C187.21250253 282.6255285 184.78708943 284.57395973 182.2668457 286.55200195 C164.03148741 300.06766704 143.57969165 308.77578687 121.0793457 312.17700195 C119.31977539 312.45157227 119.31977539 312.45157227 117.5246582 312.73168945 C91.06946911 315.90555194 63.69338655 312.83167496 40.13793945 300.01293945 C36.79829183 298.65680171 34.48755373 299.21381273 31.0793457 300.17700195 C28.84876194 307.87936884 27.12446581 315.58234036 25.67504883 323.46630859 C25.4550975 324.64178757 25.23514618 325.81726654 25.00852966 327.02836609 C24.41244517 330.21780013 23.82028896 333.40793419 23.22958946 336.59836888 C22.60632361 339.9576248 21.97697098 343.31573918 21.34802246 346.67393494 C19.48259287 356.64032886 17.62685727 366.60852473 15.7723999 376.57696533 C14.32822475 384.3392512 12.88146799 392.10103843 11.42735815 399.86147016 C10.80310018 403.19439039 10.18106973 406.52769335 9.56434631 409.86201668 C8.87567192 413.58130607 8.18034107 417.29929643 7.48364258 421.01708984 C7.28407455 422.10464569 7.08450653 423.19220154 6.87889099 424.31271362 C3.24985951 443.54305456 3.24985951 443.54305456 -2.9206543 449.17700195 C-10.73808248 454.41486272 -19.66598534 453.7612049 -28.6706543 453.70825195 C-30.29533113 453.71095181 -31.92000638 453.71483832 -33.54467773 453.71984863 C-36.93708801 453.72572054 -40.32907481 453.71725595 -43.72143555 453.69848633 C-48.04882525 453.67569774 -52.37522232 453.68883334 -56.70257568 453.71277618 C-60.05370431 453.7272971 -63.40460133 453.72259956 -66.7557373 453.71226501 C-68.35038371 453.70961506 -69.94505181 453.71280588 -71.53967285 453.72218323 C-90.01515353 453.80701264 -90.01515353 453.80701264 -97.0769043 447.1418457 C-97.5203418 446.47282227 -97.9637793 445.80379883 -98.4206543 445.11450195 C-98.8847168 444.44290039 -99.3487793 443.77129883 -99.8269043 443.0793457 C-104.66115679 434.6711994 -101.80613429 422.67095225 -100.01000977 413.64819336 C-99.8039401 412.5619272 -99.59787043 411.47566105 -99.38555622 410.35647774 C-98.69754976 406.74492098 -97.99264614 403.13687745 -97.2878418 399.52856445 C-96.78644297 396.91371648 -96.28604376 394.29869604 -95.78694153 391.68341064 C-94.70697373 386.03413504 -93.61866577 380.38651973 -92.52474976 374.7399292 C-90.76498947 365.65511191 -89.0227013 356.56698709 -87.28320312 347.47827148 C-86.67909392 344.32271141 -86.07490072 341.16716742 -85.47068787 338.0116272 C-85.3192564 337.22068094 -85.16782494 336.42973469 -85.01180464 335.61482036 C-83.91766904 329.90102071 -82.82124844 324.18766213 -81.72401428 318.47445679 C-77.19123393 294.86762447 -72.70580409 271.25211162 -68.25268555 247.63012695 C-68.09460552 246.79158259 -67.9365255 245.95303823 -67.77365518 245.08908343 C-66.33749338 237.47022184 -64.90202368 229.85122996 -63.46732426 222.23209286 C-61.25024529 210.45806859 -59.02992698 198.68465913 -56.80761719 186.91162109 C-51.65975453 159.63769671 -46.51372301 132.36346644 -41.4019981 105.08274221 C-41.27191182 104.38848843 -41.14182553 103.69423465 -41.00779724 102.97894287 C-40.87865399 102.28971316 -40.74951074 101.60048345 -40.61645406 100.89036798 C-39.01254948 92.33179958 -37.40392859 83.77411757 -35.79467869 75.21655273 C-34.44318317 68.02745985 -33.09784957 60.83725216 -31.75746918 53.64607906 C-30.94867107 49.3149651 -30.13397651 44.98497658 -29.31753159 40.65529823 C-28.94719524 38.68467674 -28.57933201 36.71358852 -28.2142067 34.74199486 C-27.72040422 32.07718744 -27.21775662 29.41419491 -26.71289062 26.75146484 C-26.50510247 25.61179166 -26.50510247 25.61179166 -26.29311657 24.44909477 C-24.79198292 16.63932108 -22.64414962 9.90049727 -16.9206543 4.17700195 C-11.15686838 0.76578172 -6.63455081 0.0525419 0 0 Z " fill="#231F20" transform="translate(167.920654296875,154.822998046875)"/>
<path d="M0 0 C3.19786175 0.01611382 6.39446045 0.00000624 9.59228516 -0.01904297 C29.31746876 -0.04003632 48.83841745 1.93456946 68.13525391 6.07861328 C69.33351807 6.33280029 70.53178223 6.5869873 71.76635742 6.84887695 C92.14360795 11.32578851 111.63067508 17.96850849 130.69775391 26.39111328 C131.50229004 26.74254395 132.30682617 27.09397461 133.13574219 27.45605469 C157.91652345 38.37872711 180.81598768 53.20606309 201.69775391 70.39111328 C202.2781543 70.86709961 202.85855469 71.34308594 203.45654297 71.83349609 C218.4788043 84.25178892 232.78809032 97.93531391 244.69775391 113.39111328 C245.61874474 114.5150745 246.5434959 115.63596082 247.47119141 116.75439453 C298.86178065 179.02523709 321.47754404 260.96936825 314.92651367 340.88671875 C308.01118536 413.0562113 279.12761921 480.03705597 228.69775391 532.39111328 C228.16649902 532.94428223 227.63524414 533.49745117 227.08789062 534.06738281 C220.01230919 541.39513822 212.70756883 548.08002421 204.69775391 554.39111328 C203.59010952 555.30906729 202.48475652 556.22979112 201.38134766 557.15283203 C173.3103326 580.44957636 140.20169062 597.01416878 105.69775391 608.39111328 C104.72499512 608.71208984 103.75223633 609.03306641 102.75 609.36376953 C33.5219828 631.77175478 -40.15542169 628.81466188 -108.30224609 604.39111328 C-109.02589355 604.13410645 -109.74954102 603.87709961 -110.49511719 603.61230469 C-117.86401022 600.9523953 -117.86401022 600.9523953 -120.30224609 599.39111328 C-121.52018636 596.16589316 -121.19586095 593.74119921 -120.52490234 590.40673828 C-120.24936523 589.00488281 -120.24936523 589.00488281 -119.96826172 587.57470703 C-119.76910156 586.60662109 -119.56994141 585.63853516 -119.36474609 584.64111328 C-119.16945312 583.65755859 -118.97416016 582.67400391 -118.77294922 581.66064453 C-118.29034052 579.23583008 -117.7998575 576.81288555 -117.30224609 574.39111328 C-113.62426427 573.16511934 -112.86217125 573.73263246 -109.38427734 575.23486328 C-108.38976562 575.65356689 -107.39525391 576.07227051 -106.37060547 576.50366211 C-105.29617187 576.961521 -104.22173828 577.41937988 -103.11474609 577.89111328 C-69.34185442 591.79344254 -33.30442238 598.63744559 3.19775391 598.57861328 C3.89707031 598.57800903 4.59638672 598.57740479 5.31689453 598.57678223 C17.20503839 598.54906306 28.91415418 598.03460947 40.69775391 596.39111328 C41.6292627 596.26220703 42.56077148 596.13330078 43.52050781 596.00048828 C114.34738124 585.86056804 183.52646023 550.91297068 227.69775391 493.39111328 C228.36556885 492.53791504 228.36556885 492.53791504 229.046875 491.66748047 C276.32577631 431.19781366 296.55739713 353.83984687 288.10839844 277.77319336 C279.34155903 206.7148813 243.41724506 137.03174309 187.21240234 91.77661133 C184.96653274 90.03100499 182.69449134 88.32551254 180.39990234 86.64453125 C178.66136277 85.36431579 176.94836774 84.0547943 175.23681641 82.73876953 C136.82492568 53.49263441 92.11526148 36.18967095 44.69775391 28.39111328 C43.92447754 28.26365723 43.15120117 28.13620117 42.35449219 28.00488281 C-29.20831747 16.75476114 -107.49512723 36.54773307 -166.01367188 78.70019531 C-172.31073137 83.35279123 -178.34378147 88.31551443 -184.30224609 93.39111328 C-185.14271484 94.10009766 -185.98318359 94.80908203 -186.84912109 95.53955078 C-200.01773433 107.0280306 -212.73134501 119.54057078 -223.04736328 133.67871094 C-224.37402808 135.48906636 -225.73022923 137.2744828 -227.09130859 139.05908203 C-253.58348521 174.066113 -270.03754092 215.5030753 -278.30224609 258.39111328 C-278.55530518 259.70426514 -278.55530518 259.70426514 -278.81347656 261.04394531 C-290.9982195 326.71564377 -279.63887472 404.85054013 -241.58203125 460.92578125 C-240.54187123 462.40216697 -239.48594597 463.86771049 -238.40722656 465.31616211 C-236.02770801 469.78446264 -237.42204067 474.62706356 -238.30224609 479.39111328 C-238.60588087 481.18013348 -238.90924394 482.9691998 -239.21240234 484.75830078 C-239.87562853 488.51764842 -240.54444685 492.27551551 -241.26708984 496.02392578 C-241.41782959 496.81686035 -241.56856934 497.60979492 -241.72387695 498.42675781 C-242.30224609 500.39111328 -242.30224609 500.39111328 -244.30224609 502.39111328 C-283.52983587 454.05091969 -308.23470632 388.47652536 -308.50537109 326.03955078 C-308.51107117 324.98240875 -308.51677124 323.92526672 -308.52264404 322.83609009 C-308.53203377 320.6057432 -308.53860382 318.37538282 -308.54248047 316.14501953 C-308.55208128 312.82313974 -308.58311996 309.50190821 -308.61474609 306.18017578 C-308.71083398 286.77177445 -306.88991678 267.63090767 -303.11474609 248.57861328 C-302.9075293 247.52496582 -302.7003125 246.47131836 -302.48681641 245.38574219 C-292.34261442 195.92366121 -271.12532338 148.93462535 -238.30224609 110.39111328 C-237.43796096 109.3424607 -236.57473205 108.29293695 -235.71240234 107.24267578 C-224.22367942 93.3870306 -211.54686643 80.41397738 -197.30224609 69.39111328 C-196.1653657 68.45696923 -195.03144596 67.51921479 -193.89990234 66.57861328 C-155.76705957 35.05790278 -108.40862098 15.07638406 -60.11474609 5.57861328 C-59.19258301 5.39588867 -58.27041992 5.21316406 -57.3203125 5.02490234 C-38.30608385 1.52899828 -19.31931602 -0.11508375 0 0 Z " fill="#231F20" transform="translate(308.30224609375,-0.39111328125)"/>
<path d="M0 0 C1.58663452 0.01135986 1.58663452 0.01135986 3.20532227 0.02294922 C15.0513185 0.27326178 23.71843135 3.23764129 33.125 10.4375 C33.70121094 10.86160156 34.27742187 11.28570312 34.87109375 11.72265625 C38.5232925 14.55515952 40.76685831 17.53749644 43.125 21.4375 C43.64707031 20.79683594 44.16914062 20.15617187 44.70703125 19.49609375 C50.18306996 13.06102899 55.61496808 8.33733751 63.125 4.4375 C64.37410156 3.78587891 64.37410156 3.78587891 65.6484375 3.12109375 C77.24166128 -1.7575796 94.10930649 -1.59883855 106.0625 2.0625 C111.19547448 4.19558631 115.714668 7.07682701 120.125 10.4375 C121.15625 11.18 122.1875 11.9225 123.25 12.6875 C131.04387113 20.14250716 137.70906483 30.91093378 138.24804783 41.95994949 C138.24712604 42.91492702 138.24620424 43.86990456 138.24525452 44.8538208 C138.24731651 46.50282883 138.24731651 46.50282883 138.24942017 48.18515015 C138.24582489 49.38636505 138.24222961 50.58757996 138.23852539 51.82519531 C138.23867142 53.09374359 138.23881744 54.36229187 138.2389679 55.66928101 C138.23925474 59.14415411 138.23337617 62.61899268 138.22639394 66.09385777 C138.2201417 69.7266936 138.21955512 73.35953022 138.21836853 76.99237061 C138.21526074 83.87002588 138.20705477 90.74766525 138.19701904 97.62531352 C138.18584078 105.45596851 138.18034313 113.28662427 138.17532361 121.11728525 C138.16487171 137.22403307 138.14708144 153.33076388 138.125 169.4375 C132.845 169.4375 127.565 169.4375 122.125 169.4375 C122.12579559 167.86055359 122.12659119 166.28360718 122.12741089 164.65887451 C122.1310192 149.76968796 122.10349015 134.88092315 122.0447216 119.99186325 C122.01530101 112.3379279 121.99687456 104.68426871 122.00488281 97.03027344 C122.01183931 90.35426476 121.99760431 83.678684 121.95856392 77.0027802 C121.93863963 73.47208827 121.92889176 69.942067 121.94457626 66.41133881 C121.96174315 62.45710216 121.93156879 58.5039502 121.89794922 54.54980469 C121.91628059 52.81917786 121.91628059 52.81917786 121.9349823 51.05358887 C121.78949937 41.50579355 118.80441703 33.87166924 112.6875 26.5 C101.35107822 17.37556295 91.50347126 16.2213045 77.125 17.4375 C68.69064236 19.20259744 62.22462712 24.08800397 57.375 31.125 C52.43582137 39.89256773 51.67986166 49.09843488 51.69262695 58.97729492 C51.6824353 60.17859039 51.67224365 61.37988586 51.66174316 62.61758423 C51.63692547 65.87515762 51.62492453 69.13245953 51.61888909 72.39011168 C51.60943697 75.80810163 51.58322874 79.22596466 51.55888367 82.64387512 C51.51540141 89.09981414 51.48674277 95.55572828 51.46356028 102.01176864 C51.43640993 109.36866857 51.392505 116.72543964 51.34727156 124.08224714 C51.25468743 139.20059716 51.1834816 154.31897678 51.125 169.4375 C45.845 169.4375 40.565 169.4375 35.125 169.4375 C35.11953156 167.08421066 35.11953156 167.08421066 35.11395264 164.68338013 C35.07697496 149.88191457 35.01940722 135.08069002 34.94109726 120.27939034 C34.90136384 112.67030632 34.86894255 105.06132487 34.85400391 97.45214844 C34.84095769 90.81650449 34.81391785 84.18108676 34.77038693 77.54557025 C34.74783832 74.03520793 34.73208531 70.52512393 34.73311615 67.01468277 C34.73400654 63.08654275 34.70364129 59.1589673 34.67089844 55.23095703 C34.6759288 54.079366 34.68095917 52.92777496 34.68614197 51.74128723 C34.56120375 42.02174534 32.0650631 32.60539346 25.125 25.4375 C14.34650646 16.794745 3.45978366 16.33286008 -9.875 17.4375 C-17.10605085 18.88892487 -23.16677424 22.77149813 -27.875 28.4375 C-32.2976658 35.70261985 -34.97270213 42.2135004 -35.03321838 50.74629211 C-35.0430072 51.79652054 -35.05279602 52.84674896 -35.06288147 53.92880249 C-35.06863693 55.07031769 -35.0743924 56.21183289 -35.08032227 57.38793945 C-35.09517166 59.20319878 -35.09517166 59.20319878 -35.11032104 61.05513 C-35.13645745 64.3646404 -35.15834056 67.67412734 -35.17832303 70.98367715 C-35.20023505 74.44570233 -35.22759815 77.90768436 -35.25437927 81.36967468 C-35.30423577 87.92143847 -35.34920064 94.4732263 -35.39240164 101.02503699 C-35.44183431 108.48574078 -35.49673002 115.94640126 -35.55208123 123.40706313 C-35.66579312 138.75050227 -35.77246176 154.09398189 -35.875 169.4375 C-41.155 169.4375 -46.435 169.4375 -51.875 169.4375 C-51.94468959 153.51171772 -51.99810739 137.58599016 -52.03043652 121.66009331 C-52.04585192 114.26406512 -52.06683841 106.86813389 -52.10131836 99.47216797 C-52.13138509 93.01971971 -52.15061363 86.56734174 -52.15726548 80.11482537 C-52.16114877 76.70380004 -52.17016116 73.29297563 -52.19219017 69.88201523 C-52.31770455 48.02639852 -52.29386152 29.50529647 -36.42578125 12.73046875 C-25.88048601 3.25100734 -13.88609363 -0.13911488 0 0 Z " fill="#231F20" transform="translate(806.875,120.5625)"/>
<path d="M0 0 C3.52169648 0.02144701 7.04135344 0.0001036 10.56298828 -0.02539062 C26.07643343 -0.04596558 40.52570466 0.80109681 54.46533203 8.33398438 C55.12509033 8.67655273 55.78484863 9.01912109 56.46459961 9.37207031 C61.78300429 12.21082032 66.47111091 15.57545783 71.02783203 19.52148438 C71.83091797 20.13507813 72.63400391 20.74867188 73.46142578 21.38085938 C76.27275035 23.72576937 78.55241083 26.21639153 80.90283203 29.02148438 C81.70462891 29.95992187 82.50642578 30.89835937 83.33251953 31.86523438 C85.02783203 34.52148437 85.02783203 34.52148437 85.13330078 36.63085938 C83.47968748 39.45894715 81.25445362 40.60442319 78.46533203 42.27148438 C77.45341797 42.88507813 76.44150391 43.49867188 75.39892578 44.13085938 C74.61646484 44.58976562 73.83400391 45.04867187 73.02783203 45.52148438 C70.57795587 43.09317402 68.15377378 40.6574039 65.80908203 38.12695312 C55.26639235 26.95242417 41.36588393 18.35305417 25.66726685 17.37431335 C24.85313324 17.36446915 24.03899963 17.35462494 23.20019531 17.34448242 C21.80185959 17.32522957 21.80185959 17.32522957 20.37527466 17.30558777 C19.37632172 17.29820084 18.37736877 17.2908139 17.34814453 17.28320312 C15.78070999 17.2710955 15.78070999 17.2710955 14.18161011 17.25874329 C11.96760706 17.24492625 9.75358293 17.23419347 7.53955078 17.22631836 C5.29957739 17.21485367 3.05963011 17.19449056 0.81982422 17.16479492 C-22.28721395 16.8587754 -40.63593577 19.80073971 -57.97216797 36.52148438 C-69.0806595 49.14790642 -75.09082456 63.74841766 -75.97216797 80.52148438 C-76.01341797 81.21371094 -76.05466797 81.9059375 -76.09716797 82.61914062 C-76.69583305 102.63700424 -70.02790212 120.62680952 -56.39013672 135.20117188 C-42.84640116 148.19790681 -25.75881483 153.62263038 -7.28466797 153.72460938 C-6.05441895 153.73315948 -6.05441895 153.73315948 -4.79931641 153.74188232 C-3.06804677 153.75128604 -1.3367596 153.75784778 0.39453125 153.76171875 C2.99268485 153.77135403 5.59002212 153.80239216 8.18798828 153.83398438 C21.3668485 153.91985732 34.49852407 153.28126182 46.34033203 146.83398438 C47.00419922 146.48513184 47.66806641 146.1362793 48.35205078 145.77685547 C62.93461949 137.8791462 73.11595607 126.07489512 79.02783203 110.52148438 C79.88672881 107.55834099 80.57254526 104.56992856 81.23095703 101.55664062 C81.49513428 100.39074402 81.49513428 100.39074402 81.76464844 99.20129395 C82.19231904 97.30950613 82.6110279 95.41569598 83.02783203 93.52148438 C81.99005615 93.55177734 80.95228027 93.58207031 79.88305664 93.61328125 C54.25754632 94.34987013 28.66336364 94.64860271 3.02783203 94.52148438 C3.02783203 89.24148437 3.02783203 83.96148437 3.02783203 78.52148438 C35.03326372 77.63695352 67.01097237 77.39342482 99.02783203 77.52148438 C99.0719468 81.00321424 99.09823392 84.48487071 99.12158203 87.96679688 C99.14043457 89.429198 99.14043457 89.429198 99.15966797 90.92114258 C99.26685738 112.29649728 90.28843707 131.52402597 75.84033203 147.14648438 C56.14728183 165.81012514 32.5137669 170.70941139 6.28930664 170.70678711 C3.86277461 170.70896424 1.43670539 170.72715055 -0.98974609 170.74609375 C-26.88797293 170.84173888 -50.11787613 165.33581818 -68.99560547 146.66210938 C-88.30346901 126.72423877 -92.58285603 104.07754892 -92.24169922 77.47070312 C-91.89965592 59.88997877 -85.51930609 42.92441255 -73.97216797 29.52148438 C-73.42560547 28.82152344 -72.87904297 28.1215625 -72.31591797 27.40039062 C-54.0504744 5.07165982 -27.38001801 -0.19821258 0 0 Z " fill="#231F20" transform="translate(1807.97216796875,120.478515625)"/>
<path d="M0 0 C1.54304115 -0.00644373 3.08608114 -0.0131732 4.62911987 -0.02017212 C7.85498886 -0.03209714 11.08075118 -0.03585811 14.30664062 -0.03466797 C18.39797394 -0.03446553 22.48860679 -0.06171053 26.57977486 -0.09621239 C29.76639818 -0.11868634 32.95285869 -0.12249925 36.13955307 -0.12144852 C37.64553097 -0.12377601 39.1515154 -0.13243417 40.65741348 -0.14811325 C59.71341464 -0.32789033 76.75048555 4.44682835 90.84765625 18.04296875 C91.59660156 18.79964844 92.34554688 19.55632812 93.1171875 20.3359375 C94.16326172 21.33173828 94.16326172 21.33173828 95.23046875 22.34765625 C99.56317374 26.76449144 102.59717206 31.5697005 105.4296875 37.0234375 C105.91816162 37.93911499 105.91816162 37.93911499 106.41650391 38.87329102 C113.01394613 52.30661657 112.59003534 66.81564314 112.50830078 81.41259766 C112.49222083 84.82885674 112.50821486 88.24393304 112.52734375 91.66015625 C112.54291724 105.97342736 112.36761239 119.66591858 105.4296875 132.5859375 C105.08010986 133.2550415 104.73053223 133.92414551 104.37036133 134.61352539 C95.74208251 150.64189271 82.20250752 161.37965413 65.09765625 167.3984375 C55.24543044 170.26453956 45.41630264 170.49412731 35.2265625 170.50390625 C34.00495422 170.50723465 32.78334595 170.51056305 31.52471924 170.51399231 C28.94958877 170.51903558 26.37445181 170.52140144 23.79931641 170.52124023 C19.89344318 170.52342283 15.98785448 170.54159613 12.08203125 170.56054688 C9.56770929 170.56348225 7.053386 170.56546608 4.5390625 170.56640625 C2.81184967 170.57718452 2.81184967 170.57718452 1.04974365 170.58818054 C-18.85138458 170.533077 -37.18116491 165.69829485 -52.20703125 152.03515625 C-67.03954969 136.99519 -72.99268326 118.63181583 -73.0859375 97.8984375 C-73.09163757 96.90070313 -73.09733765 95.90296875 -73.10321045 94.875 C-73.11262659 92.7671005 -73.11918091 90.65918651 -73.12304688 88.55126953 C-73.13269765 85.37375154 -73.1637313 82.19689629 -73.1953125 79.01953125 C-73.31511807 56.14025733 -69.5512414 36.28495731 -53.1328125 19.0859375 C-37.8858553 4.55296168 -20.49167605 0.02026789 0 0 Z M-44.10546875 33.1796875 C-53.69415954 44.81256072 -57.0189856 57.7919906 -57.0859375 72.5625 C-57.09163757 73.5465683 -57.09733765 74.5306366 -57.10321045 75.54452515 C-57.11263331 77.62391087 -57.11918361 79.70331135 -57.12304688 81.78271484 C-57.13271632 84.92963456 -57.16375115 88.07589054 -57.1953125 91.22265625 C-57.29213938 109.47189389 -55.03558824 125.58756436 -41.8828125 139.3359375 C-27.92492748 151.38059218 -13.71805335 154.63732398 4.31640625 154.671875 C6.16719536 154.6818602 6.16719536 154.6818602 8.05537415 154.69204712 C10.65303062 154.70211909 13.25071269 154.70686584 15.84838867 154.70654297 C19.77632331 154.71090599 23.70312361 154.74725942 27.63085938 154.78515625 C52.78133799 154.92083497 52.78133799 154.92083497 75.1171875 144.3359375 C75.89578125 143.74941406 76.674375 143.16289062 77.4765625 142.55859375 C87.77914198 134.10563844 93.82884982 122.38138601 96.1171875 109.3359375 C96.21297935 107.70749693 96.26483949 106.07602409 96.27832031 104.44482422 C96.28792786 103.49968964 96.2975354 102.55455505 96.30743408 101.58078003 C96.31168396 100.56927887 96.31593384 99.55777771 96.3203125 98.515625 C96.32601257 97.46118195 96.33171265 96.40673889 96.33758545 95.32034302 C96.34702042 93.08954873 96.35356345 90.85874059 96.35742188 88.62792969 C96.36709333 85.24388737 96.3981176 81.86046154 96.4296875 78.4765625 C96.43622173 76.30208691 96.44147055 74.12760701 96.4453125 71.953125 C96.4638327 70.45409134 96.4638327 70.45409134 96.48272705 68.92477417 C96.4326958 52.85315701 90.33768229 40.57591231 79.1171875 29.3359375 C78.5396875 28.74683594 77.9621875 28.15773437 77.3671875 27.55078125 C69.44147907 20.10137741 58.03633801 16.11647103 47.28662109 16.04541016 C45.96769867 16.03265045 44.64877625 16.01989075 43.28988647 16.00674438 C41.86513416 16.00368511 40.44037985 16.00145822 39.015625 16 C37.53219478 15.99356027 36.0487658 15.98683107 34.56533813 15.97982788 C31.46035831 15.96788604 28.35548943 15.96414358 25.25048828 15.96533203 C21.30686182 15.96553443 17.36396236 15.93830082 13.42050743 15.90378761 C10.35577245 15.8813427 7.29120715 15.8774999 4.22639847 15.87855148 C2.77458836 15.87621923 1.32277183 15.86753276 -0.12895584 15.85188675 C-17.44024698 15.68285527 -32.02218819 20.3303912 -44.10546875 33.1796875 Z " fill="#231F20" transform="translate(1551.8828125,120.6640625)"/>
<path d="M0 0 C1.18331406 -0.0168132 1.18331406 -0.0168132 2.39053345 -0.03396606 C3.66777031 -0.0140712 3.66777031 -0.0140712 4.97080994 0.00622559 C5.87885376 0.00067657 6.78689758 -0.00487244 7.72245789 -0.0105896 C10.72236557 -0.02239173 13.72076375 0.00190841 16.7205658 0.02770996 C18.81459484 0.02942201 20.90862603 0.02935442 23.00265503 0.02758789 C27.39508029 0.02924185 31.78699567 0.04794393 36.17930603 0.07946777 C41.78206016 0.11897372 47.38414126 0.12353314 52.98700809 0.11600494 C57.3153285 0.11291829 61.64350053 0.1251186 65.97178459 0.14213562 C68.0356344 0.14912198 70.09950104 0.15229551 72.1633625 0.15144348 C95.14499254 0.16584991 112.04485685 4.83658685 129.2049408 20.78942871 C133.90395224 25.56849146 137.23437286 30.62443821 140.24790955 36.55895996 C140.73058289 37.5064209 140.73058289 37.5064209 141.2230072 38.47302246 C146.01361385 48.46464204 147.33364927 58.1070557 147.3065033 69.10974121 C147.31174515 70.37054001 147.316987 71.63133881 147.3223877 72.93034363 C147.32877852 75.58380953 147.32897288 78.23640498 147.31895447 80.88977051 C147.30977131 83.58084223 147.31667389 86.27104596 147.33946228 88.96203613 C147.37041295 92.88653247 147.37352283 96.81014123 147.3690033 100.73474121 C147.38023727 101.91852859 147.39147125 103.10231598 147.40304565 104.32197571 C147.25049697 122.93594474 140.05317066 138.64749858 126.87290955 151.62145996 C126.22451111 152.26856934 125.57611267 152.91567871 124.9080658 153.58239746 C107.94839109 169.46691896 86.21650153 170.94144727 64.2205658 170.92224121 C62.34779772 170.92613682 60.4750305 170.93047324 58.6022644 170.93522644 C54.70343642 170.94263798 50.80469911 170.94243183 46.90586853 170.93713379 C41.91710663 170.93130699 36.92871212 170.94837165 31.94001102 170.97147846 C28.08379968 170.98621394 24.2276773 170.98708842 20.37144279 170.98396873 C18.53148603 170.98448076 16.69152413 170.98969618 14.85159492 170.99978065 C12.2843177 171.01214165 9.7177634 171.00535868 7.15049744 170.99377441 C6.3976799 171.00141815 5.64486237 171.00906189 4.86923218 171.01693726 C0.13660789 170.96982813 -3.13000943 170.17243943 -7.12709045 167.62145996 C-9.50716361 164.05135023 -9.38429587 162.49771142 -9.40124512 158.25808716 C-9.4064818 157.60976689 -9.41171847 156.96144662 -9.41711384 156.29348028 C-9.4321375 154.11710021 -9.43281949 151.94095476 -9.43348694 149.76452637 C-9.44110684 148.20570986 -9.44953405 146.64689712 -9.45870972 145.08808899 C-9.48067812 140.85045554 -9.48945672 136.61289425 -9.49453616 132.37521029 C-9.49817691 129.72832537 -9.50441549 127.08145944 -9.51153755 124.43458176 C-9.53603999 115.20226967 -9.5490857 105.97001384 -9.55262756 96.7376709 C-9.55626368 88.12894844 -9.58616232 79.52058234 -9.62803215 70.91196883 C-9.66270978 63.52334386 -9.67817556 56.13483712 -9.6788736 48.7461313 C-9.67966727 44.33212731 -9.68844691 39.91848618 -9.71687126 35.50456619 C-9.74300894 31.35281996 -9.74528163 27.20173855 -9.72921562 23.04994774 C-9.72739768 21.52655147 -9.7341231 20.00311735 -9.75003433 18.47980309 C-9.77044595 16.39867968 -9.75997704 14.31989328 -9.74182129 12.23880005 C-9.74383262 11.07478479 -9.74584394 9.91076954 -9.74791622 8.71148109 C-8.71721377 3.58139062 -5.39944911 -0.00565452 0 0 Z M6.87290955 16.62145996 C6.87290955 62.16145996 6.87290955 107.70145996 6.87290955 154.62145996 C19.28915955 154.68333496 31.70540955 154.74520996 44.49790955 154.80895996 C48.3903949 154.83627197 52.28288025 154.86358398 56.2933197 154.89172363 C59.84170138 154.9017688 59.84170138 154.9017688 63.39009094 154.90779114 C64.94700203 154.91233984 66.50390386 154.92276737 68.06074524 154.93818665 C86.98361038 155.11591706 102.40893807 152.44528806 116.65415955 138.89880371 C130.70337208 124.47857324 132.23507107 107.22922195 132.18858337 88.0435791 C132.18542815 85.32498861 132.20893256 82.60749444 132.23423767 79.88903809 C132.30495483 60.72097124 129.39975058 44.42500874 115.56822205 30.09802246 C102.02386328 17.652916 87.21270464 16.01452778 69.6658783 16.23083496 C68.05085301 16.23673237 66.43582002 16.24080303 64.82078552 16.24304199 C58.90054192 16.26382512 52.98046309 16.31966938 47.06040955 16.37145996 C27.16759705 16.49520996 27.16759705 16.49520996 6.87290955 16.62145996 Z " fill="#231F20" transform="translate(2253.1270904541016,120.3785400390625)"/>
<path d="M0 0 C3.39449766 0.00851056 6.78730812 -0.02033657 10.18164062 -0.05200195 C25.4147581 -0.10257306 39.65920663 0.78730895 53.34570312 8.19604492 C54.00320557 8.53966064 54.66070801 8.88327637 55.33813477 9.23730469 C67.71087844 15.87003787 78.27522712 24.68395227 86.03320312 36.44604492 C82.65087584 40.02733264 79.36074072 43.05208795 75.03320312 45.44604492 C71.80266761 45.36477359 70.8868874 44.29785934 68.58789062 41.96948242 C67.68982411 40.9241397 66.7968464 39.87441 65.90820312 38.82104492 C55.33039357 26.83770538 40.7259343 18.40007531 24.52081299 17.27099609 C18.44096943 17.02436891 12.3632182 17.0189812 6.27929688 17.05493164 C3.04058708 17.07100827 -0.19687506 17.05502628 -3.43554688 17.03588867 C-18.45311198 16.94183816 -18.45311198 16.94183816 -32.96679688 20.44604492 C-33.97250732 20.82092041 -33.97250732 20.82092041 -34.99853516 21.20336914 C-52.19086127 28.30866767 -64.88058143 41.35376366 -72.19360352 58.35253906 C-75.41053048 67.0627218 -76.49654951 75.51814596 -76.40429688 84.75854492 C-76.39527344 85.85013916 -76.38625 86.9417334 -76.37695312 88.06640625 C-75.99348778 106.02936099 -69.86524646 121.17372997 -57.36914062 134.20385742 C-40.53847951 149.91247446 -21.03558716 154.01639597 1.22436523 153.8371582 C3.59807534 153.8210288 5.97008979 153.83713955 8.34375 153.85620117 C22.37572546 153.8758159 35.51995462 152.30210623 48.03320312 145.44604492 C48.93554688 144.95362305 49.83789062 144.46120117 50.76757812 143.95385742 C57.48687882 139.98681266 62.43779739 135.251266 67.62304688 129.50854492 C70.03320312 127.44604492 70.03320312 127.44604492 72.05273438 127.41088867 C74.53575327 128.70871906 76.60445872 130.24632518 78.78320312 132.00854492 C79.58242187 132.64920898 80.38164063 133.28987305 81.20507812 133.94995117 C81.80835938 134.44366211 82.41164063 134.93737305 83.03320312 135.44604492 C81.41354664 143.9318595 70.72995394 151.53255555 63.87451172 156.26733398 C45.70184031 168.08603295 26.95080348 170.63353645 5.66699219 170.63134766 C3.30189831 170.63352769 0.93727706 170.65172437 -1.42773438 170.6706543 C-28.22650903 170.77120006 -50.72347179 163.87448918 -70.65429688 145.25854492 C-87.50733018 127.73261373 -93.64051313 105.58404397 -93.43481445 81.8125 C-92.84308916 58.73210756 -84.48962296 39.65050939 -68.56445312 22.92260742 C-48.80867177 4.159418 -26.15492411 -0.09987111 0 0 Z " fill="#231F20" transform="translate(1169.966796875,120.553955078125)"/>
<path d="M0 0 C0.78430389 -0.00570007 1.56860779 -0.01140015 2.37667847 -0.01727295 C4.03235544 -0.02668289 5.68805081 -0.03324092 7.34375 -0.03710938 C9.83888729 -0.04676548 12.33318225 -0.07780593 14.828125 -0.109375 C31.22629518 -0.21855493 44.32871784 2.53004055 56.66796875 13.96484375 C68.82254541 27.08079935 68.7421875 41.75720934 68.7421875 59.203125 C33.7621875 59.203125 -1.2178125 59.203125 -37.2578125 59.203125 C-35.33203299 71.72069183 -33.64924358 81.77174499 -23.40234375 89.8046875 C-13.60668725 96.19238336 -3.81897107 96.43671661 7.57983398 96.49829102 C9.05063545 96.50975013 10.52139734 96.53010479 11.99194336 96.55981445 C25.1400157 96.82458045 36.64661612 95.55307335 47.1328125 86.7890625 C48.83922414 85.2783664 48.83922414 85.2783664 49.7421875 83.203125 C53.73674277 83.81767196 56.48685086 85.90959237 59.7421875 88.203125 C58.13454585 94.83464682 52.4842865 98.51152026 46.96875 101.9140625 C35.7761889 107.93630666 24.46328565 108.55885193 11.93408203 108.51879883 C9.87608756 108.51563867 7.8195371 108.53920232 5.76171875 108.56445312 C-10.4817646 108.64219751 -24.0196475 105.71375435 -36.18359375 94.44140625 C-46.25407905 83.57438539 -48.45671036 70.89111308 -48.49804688 56.61279297 C-48.50768341 54.60502185 -48.5388524 52.59739151 -48.5703125 50.58984375 C-48.63093031 35.35961938 -45.209041 23.71133478 -34.75390625 12.53515625 C-24.95249601 3.37797016 -13.15699123 0.07548844 0 0 Z M-31.421875 25.64453125 C-36.71014489 33.01435418 -37.2578125 39.14641567 -37.2578125 48.203125 C-5.9078125 48.203125 25.4421875 48.203125 57.7421875 48.203125 C57.7421875 37.06035836 54.7551946 28.6775619 47.11328125 20.44921875 C39.50425592 13.40513266 30.77208077 11.06403998 20.64453125 10.96484375 C19.85502579 10.956772 19.06552032 10.94870026 18.25209045 10.94038391 C16.58027318 10.92657167 14.90842804 10.91583675 13.23657227 10.90795898 C11.54442959 10.89648738 9.8523217 10.87611262 8.16040039 10.84643555 C-8.00189673 10.56327501 -20.36626228 12.74631641 -31.421875 25.64453125 Z " fill="#231F20" transform="translate(1427.2578125,390.796875)"/>
<path d="M0 0 C1.93483652 0.00560482 3.86967733 0.00987073 5.80451965 0.01286316 C10.86304768 0.02424217 15.92131164 0.05364858 20.97973633 0.0869751 C26.15507436 0.11782674 31.33045562 0.13140057 36.50585938 0.14648438 C46.63555054 0.17852581 56.76497748 0.23123599 66.89453125 0.29296875 C66.89453125 5.57296875 66.89453125 10.85296875 66.89453125 16.29296875 C64.3824707 16.30231445 61.87041016 16.31166016 59.28222656 16.32128906 C50.94413968 16.35519031 42.60629686 16.41081171 34.26840591 16.47687149 C29.21749907 16.51623191 24.16676359 16.5484762 19.11572266 16.56396484 C14.2330972 16.57920709 9.35094322 16.61378557 4.46852875 16.66127777 C2.61404285 16.67601395 0.75948962 16.68400526 -1.09505463 16.6848526 C-16.73572783 16.69917422 -28.94598757 18.53498621 -41.10546875 29.29296875 C-48.1544806 36.5958645 -53.18702978 47.00938021 -53.26368713 57.21575928 C-53.27837036 58.7006913 -53.27837036 58.7006913 -53.29335022 60.21562195 C-53.29910568 61.29527725 -53.30486115 62.37493256 -53.31079102 63.48730469 C-53.32069061 64.62905655 -53.33059021 65.77080841 -53.34078979 66.94715881 C-53.37239609 70.72386598 -53.39715893 74.50058572 -53.421875 78.27734375 C-53.44244527 80.89479908 -53.46344176 83.51225108 -53.48484802 86.12969971 C-53.53472771 92.31671081 -53.57968402 98.50374749 -53.62287039 104.69080853 C-53.67228318 111.73553759 -53.7271863 118.78022051 -53.78254998 125.82490492 C-53.89629748 140.31421604 -54.00295748 154.80357388 -54.10546875 169.29296875 C-59.38546875 169.29296875 -64.66546875 169.29296875 -70.10546875 169.29296875 C-70.17512209 154.11496307 -70.22855784 138.93697606 -70.26090527 123.75884628 C-70.2763286 116.71026901 -70.29733055 109.6617933 -70.33178711 102.61328125 C-70.36505241 95.8051686 -70.38234576 88.99716131 -70.39010048 82.18897247 C-70.39562362 79.59758092 -70.40640878 77.00619482 -70.42265892 74.41484833 C-70.44458355 70.77220926 -70.44742935 67.12999961 -70.44604492 63.48730469 C-70.45683075 62.42706085 -70.46761658 61.36681702 -70.47872925 60.27444458 C-70.41151095 43.82245737 -64.41703849 29.25091391 -53.10546875 17.29296875 C-37.44187346 2.47605429 -20.60226653 -0.17630632 0 0 Z " fill="#231F20" transform="translate(1374.10546875,120.70703125)"/>
<path d="M0 0 C0.8395372 -0.00014603 1.6790744 -0.00029205 2.54405212 -0.0004425 C5.30893571 0.00025213 8.07375128 0.00802351 10.83862305 0.01586914 C12.75961775 0.01773491 14.68061293 0.01915807 16.60160828 0.02015686 C21.65025147 0.02396948 26.69886576 0.03378906 31.74749756 0.04486084 C36.9022177 0.05510194 42.05694253 0.05966026 47.21166992 0.06469727 C57.3204086 0.07541246 67.42911827 0.0929991 77.5378418 0.11352539 C77.5378418 5.39352539 77.5378418 10.67352539 77.5378418 16.11352539 C73.81519043 16.12754395 73.81519043 16.12754395 70.01733398 16.1418457 C61.77903021 16.17574967 53.54097339 16.23137252 45.30286789 16.29742813 C40.31249507 16.33678558 35.32229561 16.36903129 30.33178711 16.38452148 C25.50751368 16.39976574 20.68371724 16.43434763 15.85965729 16.48183441 C14.02750058 16.49656855 12.19527575 16.50456178 10.36306 16.50540924 C-5.05980967 16.51970529 -17.60259481 18.2741395 -29.4621582 29.11352539 C-38.79068848 39.32003499 -42.07330181 50.58570184 -42.00805664 64.21606445 C-42.01839432 65.35898453 -42.02873199 66.5019046 -42.03938293 67.67945862 C-42.06860252 71.41283659 -42.07030574 75.14566752 -42.0715332 78.87915039 C-42.08652885 81.48517884 -42.10325889 84.09119784 -42.12164307 86.69720459 C-42.16199087 92.82730677 -42.18249338 98.95730315 -42.19561696 105.0875175 C-42.21155955 112.07445589 -42.25000507 119.06121608 -42.29021025 126.0480504 C-42.37231815 140.40314798 -42.42579334 154.75824381 -42.4621582 169.11352539 C-47.7421582 169.11352539 -53.0221582 169.11352539 -58.4621582 169.11352539 C-58.55509786 153.8397044 -58.62631155 138.56591653 -58.66940689 123.29187584 C-58.68995642 116.19847306 -58.71792956 109.10525015 -58.76391602 102.01196289 C-58.80401891 95.82320258 -58.82964618 89.63457264 -58.83851218 83.44568598 C-58.84368775 80.1742928 -58.85784908 76.90335529 -58.88507843 73.632061 C-59.0667275 50.89156167 -57.03231043 32.78612021 -40.38012695 15.84399414 C-29.25436541 5.43314097 -15.14241116 -0.06924706 0 0 Z " fill="#231F20" transform="translate(2021.462158203125,120.886474609375)"/>
<path d="M0 0 C1.97058128 -0.00786278 1.97058128 -0.00786278 3.98097229 -0.0158844 C6.74693496 -0.02476046 9.51260806 -0.02245599 12.27856445 -0.01245117 C15.79303735 -0.00096663 19.3065046 -0.02119176 22.8208456 -0.05036831 C26.21394694 -0.07330679 29.60682341 -0.06625594 33 -0.0625 C34.24615585 -0.07373398 35.49231171 -0.08496796 36.77622986 -0.09654236 C47.35162208 -0.0130457 56.54027975 1.9259614 64.34375 9.45703125 C70.03909744 15.991829 71.70412041 21.85949542 72.06640625 30.43359375 C68.43640625 30.43359375 64.80640625 30.43359375 61.06640625 30.43359375 C60.53015625 28.72171875 59.99390625 27.00984375 59.44140625 25.24609375 C57.1715351 19.00595328 54.81051024 16.2118035 48.74203491 13.32966614 C45.74456852 12.32580977 43.35158543 12.1732566 40.19384766 12.15893555 C39.03559479 12.14940353 37.87734192 12.13987152 36.68399048 12.13005066 C35.44120331 12.13096207 34.19841614 12.13187347 32.91796875 12.1328125 C31.63207855 12.12852737 30.34618835 12.12424225 29.02133179 12.11982727 C26.30291616 12.11238085 23.58463044 12.11264443 20.86621094 12.11791992 C17.39733254 12.12370731 13.92898935 12.10679432 10.46019936 12.08357525 C7.13360092 12.06522316 3.80711743 12.06902477 0.48046875 12.0703125 C-0.75826996 12.06110275 -1.99700867 12.05189301 -3.27328491 12.04240417 C-11.23017684 12.08496268 -16.56591864 12.51494199 -22.74609375 17.87109375 C-26.85160135 22.68040266 -27.43317208 26.366837 -27.31640625 32.60546875 C-26.71543549 37.04529354 -24.90383346 40.13062227 -21.93359375 43.43359375 C-17.12846861 47.06673715 -12.85399719 47.55609236 -6.94677734 47.57543945 C-5.13371597 47.58599113 -5.13371597 47.58599113 -3.2840271 47.59675598 C-1.97986847 47.60092026 -0.67570984 47.60508453 0.66796875 47.609375 C2.02835865 47.61980987 3.38874128 47.63123421 4.74911499 47.64360046 C10.51353599 47.69584933 16.27782807 47.74395887 22.04248047 47.75952148 C25.57463234 47.76967946 29.10618846 47.79920074 32.63810349 47.84084129 C34.61971108 47.85893438 36.60147237 47.85651905 38.5831604 47.85359192 C47.45684935 47.97279442 54.23580661 49.46936216 61.81640625 54.12109375 C68.56239715 61.05447329 71.89627359 68.155166 72.44140625 77.74609375 C72.22487798 85.58171053 69.23019795 93.22150868 63.84765625 98.93359375 C57.77282623 104.04924009 51.52841054 106.53987061 43.64233398 106.62646484 C42.99471603 106.63464233 42.34709808 106.64281982 41.67985535 106.65124512 C39.53657945 106.67605199 37.39336991 106.69260886 35.25 106.70703125 C34.51501848 106.71235493 33.78003696 106.7176786 33.02278328 106.7231636 C29.12742278 106.74988328 25.2320941 106.76925614 21.33666992 106.78369141 C18.12706757 106.79699142 14.91810693 106.82477119 11.70874023 106.86572266 C7.82131471 106.91531784 3.93446789 106.93984564 0.04673958 106.94691849 C-1.42712664 106.9535896 -2.90098206 106.96870251 -4.37466621 106.9928093 C-15.38722051 107.16257993 -23.39465909 105.63034878 -31.80859375 98.18359375 C-36.36831211 93.2142553 -39.14750578 87.67969128 -39.18359375 80.87109375 C-39.10109375 79.73671875 -39.01859375 78.60234375 -38.93359375 77.43359375 C-35.30359375 77.43359375 -31.67359375 77.43359375 -27.93359375 77.43359375 C-27.72734375 78.60921875 -27.52109375 79.78484375 -27.30859375 80.99609375 C-25.98153966 86.332747 -22.90937283 90.57430126 -18.21917725 93.504776 C-15.28659746 94.69652076 -12.89679203 94.70948257 -9.73144531 94.73999023 C-8.47624084 94.75597763 -7.22103638 94.77196503 -5.92779541 94.78843689 C-4.55994067 94.79481524 -3.19208103 94.80020746 -1.82421875 94.8046875 C-0.41420398 94.81366079 0.99580986 94.82278276 2.40582275 94.83204651 C5.36139229 94.84852421 8.31684876 94.85623395 11.27246094 94.85913086 C15.04307156 94.86450354 18.81260517 94.90214043 22.58291245 94.94787502 C25.49647811 94.97775854 28.40978842 94.98485688 31.32349396 94.98585701 C32.71247523 94.99003956 34.10145866 95.00239449 35.49028778 95.02337456 C42.70566152 95.1236674 48.5663374 95.17404206 54.5869751 90.88612366 C58.37693701 87.16507654 59.8669638 83.0576251 60.50390625 77.87109375 C59.65648953 71.21281951 57.216681 66.72548937 52.06640625 62.43359375 C48.28966908 60.58565396 45.24166785 60.17951211 41.05786133 60.16235352 C39.86925003 60.1521669 38.68063873 60.14198029 37.45600891 60.13148499 C35.54032356 60.12827492 35.54032356 60.12827492 33.5859375 60.125 C32.24939382 60.11388664 30.91286026 60.10149032 29.57633972 60.08787537 C23.92037085 60.03272185 18.26432972 60.00192221 12.6081543 59.97729492 C9.13979127 59.96128916 5.67177188 59.93093227 2.20358849 59.89253044 C0.25963716 59.87542844 -1.68443721 59.87482675 -3.62846375 59.87464905 C-13.92947062 59.76056236 -22.85348172 58.45634893 -30.8828125 51.625 C-36.77157017 45.33244181 -39.2891759 38.48807867 -39.68359375 29.93359375 C-39.2891759 21.37910883 -36.77157017 14.53474569 -30.8828125 8.2421875 C-21.81038755 0.5233748 -11.49806754 -0.02704271 0 0 Z " fill="#231F20" transform="translate(1113.93359375,390.56640625)"/>
<path d="M0 0 C1.33464184 -0.00389595 2.66928245 -0.00823244 4.00392151 -0.01298523 C6.79017165 -0.02041088 9.576295 -0.02018271 12.36254883 -0.01489258 C15.91073008 -0.00909955 19.45838903 -0.02604218 23.00648403 -0.04923725 C25.7596585 -0.06405795 28.51270952 -0.06483511 31.26591682 -0.06172752 C33.20280894 -0.06248163 35.13968208 -0.07628219 37.07652283 -0.09040833 C47.62288392 -0.03542588 56.12136449 1.55708582 64.0078125 9.01953125 C69.34143097 14.63152229 71.97062154 20.10587176 72.37890625 27.86328125 C72.28609375 29.06984375 72.28609375 29.06984375 72.19140625 30.30078125 C68.56140625 30.30078125 64.93140625 30.30078125 61.19140625 30.30078125 C60.84078125 28.77453125 60.49015625 27.24828125 60.12890625 25.67578125 C58.49976666 20.22472651 56.03854637 17.22884956 51.19140625 14.30078125 C47.42942427 12.53869484 44.46140053 12.04491046 40.31884766 12.02612305 C39.16059479 12.01659103 38.00234192 12.00705902 36.80899048 11.99723816 C35.56620331 11.99814957 34.32341614 11.99906097 33.04296875 12 C31.75707855 11.99571487 30.47118835 11.99142975 29.14633179 11.98701477 C26.42791616 11.97956835 23.70963044 11.97983193 20.99121094 11.98510742 C17.52233254 11.99089481 14.05398935 11.97398182 10.58519936 11.95076275 C7.25860092 11.93241066 3.93211743 11.93621227 0.60546875 11.9375 C-0.63326996 11.92829025 -1.87200867 11.91908051 -3.14828491 11.90959167 C-11.10517684 11.95215018 -16.44091864 12.38212949 -22.62109375 17.73828125 C-26.72660135 22.54759016 -27.30817208 26.2340245 -27.19140625 32.47265625 C-26.59043549 36.91248104 -24.77883346 39.99780977 -21.80859375 43.30078125 C-17.00346861 46.93392465 -12.72899719 47.42327986 -6.82177734 47.44262695 C-5.00871597 47.45317863 -5.00871597 47.45317863 -3.1590271 47.46394348 C-1.85486847 47.46810776 -0.55070984 47.47227203 0.79296875 47.4765625 C2.15335865 47.48699737 3.51374128 47.49842171 4.87411499 47.51078796 C10.63853599 47.56303683 16.40282807 47.61114637 22.16748047 47.62670898 C25.69963234 47.63686696 29.23118846 47.66638824 32.76310349 47.70802879 C34.74471108 47.72612188 36.72647237 47.72370655 38.7081604 47.72077942 C48.58889794 47.85350986 57.21272086 49.55900898 64.65625 56.45703125 C70.51377775 63.49202641 72.58404239 71.40755679 72.46484375 80.359375 C71.68126318 88.78846309 67.51533138 95.78009661 61.19140625 101.30078125 C55.56444741 104.8693489 50.49914567 106.42262431 43.82739258 106.46191406 C41.8543792 106.47632538 41.8543792 106.47632538 39.84150696 106.49102783 C38.40215224 106.4958772 36.9627955 106.50015569 35.5234375 106.50390625 C34.04473367 106.50966147 32.56602986 106.51541916 31.08732605 106.5211792 C27.98456475 106.53168451 24.88182931 106.53752958 21.77905273 106.54101562 C17.81927242 106.54648549 13.85983855 106.57048282 9.90016651 106.59898758 C6.84336886 106.61769401 3.78665312 106.62282389 0.72980309 106.6243515 C-0.72892453 106.62736285 -2.18765123 106.63533967 -3.64632225 106.64853668 C-15.2940311 106.74635514 -23.04690338 105.69834363 -31.82421875 97.49609375 C-37.16907563 91.58308279 -38.95659895 85.14505704 -38.80859375 77.30078125 C-35.17859375 77.30078125 -31.54859375 77.30078125 -27.80859375 77.30078125 C-27.45796875 78.82703125 -27.10734375 80.35328125 -26.74609375 81.92578125 C-25.13271504 87.36803957 -22.61420605 90.34096095 -17.80859375 93.30078125 C-14.57828972 94.37754926 -12.19439964 94.44712977 -8.79589844 94.4777832 C-7.5574115 94.49061844 -6.31892456 94.50345367 -5.04290771 94.51667786 C-3.68876548 94.52484672 -2.33461869 94.53229017 -0.98046875 94.5390625 C-0.29690559 94.54313803 0.38665756 94.54721355 1.09093475 94.55141258 C4.71052242 94.57225681 8.33007238 94.58656442 11.94970703 94.59594727 C15.67653612 94.60699588 19.40276553 94.6413816 23.12938309 94.68111897 C26.00513774 94.70734635 28.88075096 94.71564456 31.75661469 94.71922874 C33.12966706 94.7240806 34.50271371 94.73565459 35.8756485 94.75426674 C46.26459698 94.95587646 46.26459698 94.95587646 55.19140625 90.30078125 C59.39928653 84.87483036 61.03681861 80.16209892 60.19140625 73.30078125 C58.57272491 67.69210196 55.72476256 64.26728034 50.74798584 61.31988525 C45.45504889 59.21001421 39.81643976 59.64082035 34.19921875 59.69921875 C32.84454071 59.69370632 31.48987107 59.68557071 30.13522339 59.67495728 C26.58466413 59.65218272 23.03472304 59.65624319 19.48413086 59.66876221 C13.81058929 59.68713301 8.13741171 59.67680277 2.46395493 59.64290237 C0.49998286 59.63687456 -1.46401851 59.65061847 -3.427948 59.66488647 C-13.32163249 59.63511117 -22.08950386 58.56924852 -29.984375 52.1796875 C-37.33579564 44.60788166 -39.17404932 36.90870341 -39.09375 26.69921875 C-38.51319529 19.78027911 -35.82384178 13.18048204 -30.80859375 8.30078125 C-21.01055453 0.55936016 -12.16770294 -0.00876814 0 0 Z " fill="#231F20" transform="translate(1761.80859375,390.69921875)"/>
<path d="M0 0 C1.33367545 -0.0038951 2.66734967 -0.00823142 4.00102234 -0.01298523 C6.78905262 -0.02041954 9.57695623 -0.02017719 12.36499023 -0.01489258 C15.91198145 -0.00911076 19.45844829 -0.02601076 23.00535297 -0.04923725 C25.75856992 -0.06407778 28.51166369 -0.06483225 31.26491356 -0.06172752 C33.20009544 -0.06248058 35.1352584 -0.076272 37.07038879 -0.09040833 C47.89139856 -0.03414248 57.39367609 1.40420237 65.32421875 9.30078125 C70.92838835 16.44335035 72.45441897 21.31696586 72.32421875 30.30078125 C69.02421875 30.30078125 65.72421875 30.30078125 62.32421875 30.30078125 C62.081875 29.63691406 61.83953125 28.97304688 61.58984375 28.2890625 C58.36357261 19.62439708 58.36357261 19.62439708 51.53295898 13.69897461 C45.88460629 11.38945631 39.79974569 11.85310323 33.796875 11.8671875 C32.49399033 11.86194565 31.19110565 11.8567038 29.84873962 11.8513031 C27.09933743 11.84240249 24.35022617 11.84475978 21.60083008 11.85473633 C18.09606327 11.86622137 14.59230478 11.84600786 11.08767033 11.81681919 C7.71985377 11.79394787 4.35226713 11.80092856 0.984375 11.8046875 C-0.26480209 11.79345352 -1.51397919 11.78221954 -2.80101013 11.77064514 C-11.06271366 11.83643423 -16.9792167 12.6042167 -23.05078125 18.67578125 C-26.29803031 23.92133742 -27.09382502 28.08686125 -26.2109375 34.125 C-25.01868529 38.97233196 -22.513826 41.66797195 -18.61328125 44.61328125 C-14.4045921 47.03103885 -11.47517416 47.42730233 -6.69482422 47.44262695 C-5.46279266 47.44966141 -4.23076111 47.45669586 -2.96139526 47.46394348 C-2.30302547 47.46575937 -1.64465569 47.46757526 -0.9663353 47.46944618 C1.10318251 47.47663598 3.17246654 47.49232371 5.24191284 47.51078796 C11.12575959 47.56311986 17.00948053 47.61115679 22.89355469 47.62670898 C26.49586706 47.63685299 30.09759313 47.66634173 33.6996727 47.70802879 C35.06540341 47.72025767 36.43121727 47.72547502 37.79700089 47.72323036 C48.99805723 47.7093592 57.26568184 49.43267119 65.52734375 57.28125 C71.92387021 64.47038952 73.31436339 72.05590607 72.8046875 81.453125 C71.70205714 90.28313237 67.23631603 96.85128407 60.32421875 102.30078125 C52.76418291 107.19164596 44.59902266 106.90465545 35.921875 106.8671875 C34.43411371 106.87243399 32.94635575 106.87871419 31.45860291 106.88597107 C28.35285702 106.89633081 25.24757057 106.89187857 22.1418457 106.87719727 C18.1865318 106.86001837 14.23267199 106.88351493 10.27752018 106.91868687 C7.2085582 106.94078051 4.13993778 106.93919077 1.07092094 106.93092155 C-0.38615069 106.9301085 -1.84324906 106.93684677 -3.30024529 106.95169258 C-12.17773385 107.02829995 -19.07830285 106.22779443 -26.67578125 101.30078125 C-28.06796875 100.43453125 -28.06796875 100.43453125 -29.48828125 99.55078125 C-35.25219575 93.62218348 -38.67578125 85.59104664 -38.67578125 77.30078125 C-35.04578125 77.30078125 -31.41578125 77.30078125 -27.67578125 77.30078125 C-27.11890625 78.84765625 -26.56203125 80.39453125 -25.98828125 81.98828125 C-23.95352744 87.0715708 -21.62806532 90.45213453 -16.90815735 93.40762329 C-13.99816632 94.57189021 -11.59154388 94.5697263 -8.45776367 94.59130859 C-6.57011543 94.61044815 -6.57011543 94.61044815 -4.64433289 94.62997437 C-3.27330682 94.63303245 -1.9022787 94.63525998 -0.53125 94.63671875 C0.88116083 94.64314973 2.29357033 94.64987832 3.70597839 94.65689087 C6.66575201 94.66885711 9.62540898 94.67257248 12.58520508 94.67138672 C16.36473305 94.6711838 20.14350682 94.69845999 23.92285633 94.73293114 C26.84066655 94.75525022 29.75829688 94.75922271 32.6761837 94.75816727 C34.06875896 94.7605167 35.46133968 94.76930306 36.85383034 94.784832 C47.32866291 94.98461533 47.32866291 94.98461533 56.32421875 90.30078125 C59.8593959 85.83161882 61.57598498 81.02572637 61.32421875 75.30078125 C60.27817916 69.45397051 57.60160517 66.09859006 53.04296875 62.4296875 C49.60018656 60.16840556 46.54140462 60.16787844 42.54272461 60.14306641 C41.35396225 60.13280426 40.16519989 60.12254211 38.94041443 60.11196899 C37.00924522 60.101017 37.00924522 60.101017 35.0390625 60.08984375 C33.69966312 60.07687025 32.36027168 60.06305308 31.02088928 60.0484314 C25.3392761 59.98700497 19.65768143 59.93299896 13.97583008 59.89941406 C10.49677877 59.8783001 7.01810915 59.84285841 3.53927803 59.79865646 C1.58648483 59.77784904 -0.36645352 59.77247568 -2.3193512 59.76748657 C-13.20040915 59.61861261 -22.67497085 58.19857693 -30.67578125 50.30078125 C-36.67395625 43.10297125 -39.49346378 35.78589857 -38.67578125 26.30078125 C-36.86539684 17.0358728 -32.99057383 10.39332661 -25.23828125 4.92578125 C-17.30260189 -0.30621362 -9.20779294 -0.0066246 0 0 Z " fill="#231F20" transform="translate(793.67578125,390.69921875)"/>
<path d="M0 0 C2.52376583 2.060217 4.85126352 4.1118646 7.0625 6.5 C7.3203125 5.90316406 7.578125 5.30632812 7.84375 4.69140625 C10.73734142 -0.51149371 16.31692296 -3.50473104 21.8125 -5.375 C31.73554008 -7.93185695 42.25851992 -7.40013858 51.25 -2.24609375 C59.45444059 3.45661401 64.2541134 10.6936207 66.0625 20.5 C66.46118913 26.66265832 66.41289376 32.80388297 66.35546875 38.9765625 C66.34986409 40.75588623 66.34559811 42.53521464 66.34260559 44.31454468 C66.33122528 48.96703172 66.30181782 53.61923175 66.26849365 58.27160645 C66.23764478 63.0312919 66.22406877 67.79102435 66.20898438 72.55078125 C66.17694072 81.86731266 66.12582813 91.18363234 66.0625 100.5 C62.4325 100.5 58.8025 100.5 55.0625 100.5 C55.05663376 99.52804687 55.05076752 98.55609375 55.04472351 97.5546875 C54.98739511 88.3741452 54.91458088 79.19383748 54.82678509 70.01353455 C54.78214611 65.29435957 54.74287582 60.57526964 54.71606445 55.85595703 C54.68996677 51.29759271 54.64951894 46.73955678 54.59931374 42.18139648 C54.58268864 40.44641214 54.57114731 38.71137106 54.56488609 36.97631836 C54.55519728 34.53725129 54.52708245 32.09901613 54.49487305 29.66015625 C54.49630814 28.95021011 54.49774323 28.24026398 54.4992218 27.50880432 C54.39081588 21.66650879 53.15700941 16.1270118 49.44921875 11.4765625 C43.46739261 6.71860424 38.33743239 5.00989972 30.66015625 5.18359375 C25.15174304 5.85454333 20.70160978 7.94715916 16.6875 11.75 C13.04841848 17.90844565 11.6155708 23.46219911 11.63012695 30.56835938 C11.6199353 31.33030609 11.60974365 32.09225281 11.59924316 32.87728882 C11.56933374 35.36618615 11.55988147 37.85469727 11.55078125 40.34375 C11.53391814 42.08110816 11.51576571 43.81845425 11.49638367 45.55578613 C11.44905462 50.10620346 11.41913502 54.65657179 11.39294434 59.20715332 C11.36305216 63.85955476 11.31655173 68.51178769 11.27148438 73.1640625 C11.18564598 82.2759532 11.11821452 91.38787877 11.0625 100.5 C7.4325 100.5 3.8025 100.5 0.0625 100.5 C0.05703156 99.00448608 0.05703156 99.00448608 0.05145264 97.47875977 C0.01444098 88.06272608 -0.04339899 78.64701758 -0.12140274 69.23123169 C-0.1608381 64.39095748 -0.19304589 59.55086413 -0.20849609 54.71044922 C-0.22368866 50.03531323 -0.25818026 45.36067458 -0.30580902 40.6857605 C-0.32059604 38.90612115 -0.32853947 37.12641078 -0.32938385 35.34671021 C-0.3317634 32.84519007 -0.35892055 30.34503344 -0.39160156 27.84375 C-0.3865712 27.11510239 -0.38154083 26.38645477 -0.37635803 25.63572693 C-0.48523868 20.21592988 -1.99774439 16.06157936 -4.9375 11.5 C-6.85558613 9.62018806 -6.85558613 9.62018806 -9 8.5625 C-9.67160156 8.18222656 -10.34320312 7.80195313 -11.03515625 7.41015625 C-16.68391356 4.70756805 -23.25629439 4.41729247 -29.26171875 6.18359375 C-34.77224878 8.71318944 -38.291798 12.25121989 -41.05038452 17.69694519 C-42.18585059 21.28472345 -42.24532607 24.68638934 -42.25634766 28.41137695 C-42.26639328 29.19239273 -42.2764389 29.97340851 -42.28678894 30.77809143 C-42.31756966 33.34814753 -42.33464174 35.91809969 -42.3515625 38.48828125 C-42.37027827 40.27476391 -42.38985199 42.06123776 -42.4102478 43.84770203 C-42.4615318 48.54117642 -42.5011775 53.23467946 -42.53839111 57.92828369 C-42.57845415 62.72114121 -42.62953601 67.51387993 -42.6796875 72.30664062 C-42.7764026 81.70434359 -42.86082154 91.10211369 -42.9375 100.5 C-46.5675 100.5 -50.1975 100.5 -53.9375 100.5 C-54.03045796 89.98131132 -54.10139547 79.46272145 -54.14474869 68.94370461 C-54.16556323 64.05851282 -54.19376803 59.17360349 -54.23925781 54.28857422 C-54.28293535 49.56825383 -54.30668316 44.84820397 -54.31700897 40.12769699 C-54.3243612 38.3328768 -54.33871788 36.53807028 -54.36042023 34.74336624 C-54.5073051 22.08533014 -54.00176889 11.90725075 -44.85546875 2.25390625 C-32.20646756 -9.31310299 -13.98391036 -9.61021925 0 0 Z " fill="#231F20" transform="translate(1601.9375,397.5)"/>
<path d="M0 0 C3.63 0 7.26 0 11 0 C11.00257813 1.59328125 11.00515625 3.1865625 11.0078125 4.828125 C10.89211051 22.96009038 10.89211051 22.96009038 20 37.96875 C28.20996689 44.5616022 36.82568482 45.12982725 46.9921875 45.31640625 C47.83144775 45.33505737 48.67070801 45.3537085 49.53540039 45.3729248 C52.64850068 45.44084546 55.76176164 45.50123381 58.875 45.5625 C65.84625 45.706875 72.8175 45.85125 80 46 C80 30.82 80 15.64 80 0 C83.63 0 87.26 0 91 0 C91.09305698 9.7191268 91.16394486 19.43809805 91.20724869 29.15757465 C91.22804203 33.67169854 91.25620695 38.18551556 91.30175781 42.69946289 C91.34551249 47.06317815 91.36919903 51.42659995 91.37950897 55.79051781 C91.38684759 57.44775188 91.40117696 59.10497156 91.42292023 60.76207924 C91.58838716 73.90644962 90.22127147 84.93842082 81 95 C72.67928738 103.43818151 62.96742594 107.0101037 51.20483398 107.22705078 C49.0518946 107.22673818 46.89893679 107.21568205 44.74609375 107.1953125 C43.60463394 107.1924826 42.46317413 107.18965271 41.28712463 107.18673706 C37.67047277 107.17561476 34.05407599 107.15052481 30.4375 107.125 C27.97331089 107.11495993 25.50911786 107.10583588 23.04492188 107.09765625 C17.02985085 107.07570146 11.01496855 107.04122665 5 107 C5 103.37 5 99.74 5 96 C7.29215454 95.97812622 7.29215454 95.97812622 9.63061523 95.95581055 C15.32811271 95.89761178 21.0252239 95.82037989 26.72241211 95.73754883 C29.18296006 95.70440088 31.6435822 95.67633778 34.10424805 95.65356445 C37.65184997 95.61983245 41.19877824 95.56750572 44.74609375 95.51171875 C46.38257118 95.50213387 46.38257118 95.50213387 48.05210876 95.49235535 C58.23531065 95.29861443 65.64162217 93.40149032 73.05078125 86.19921875 C78.76886077 79.74775829 79.25398342 73.52071334 79.59375 65.17578125 C79.6551416 63.85157166 79.6551416 63.85157166 79.71777344 62.50061035 C79.81742188 60.33398937 79.90946892 58.1670211 80 56 C79.09703438 56.01332367 79.09703438 56.01332367 78.17582703 56.0269165 C71.86462986 56.11596626 65.5536135 56.17597148 59.24194336 56.21972656 C56.89193462 56.23974175 54.54197504 56.26696244 52.19213867 56.30175781 C48.79854133 56.35072124 45.40560704 56.37307059 42.01171875 56.390625 C40.97480392 56.41127014 39.9378891 56.43191528 38.86955261 56.45318604 C27.59337447 56.45659214 18.09133956 52.98071578 10 45 C1.66300672 35.15564856 -0.6345044 24.43459644 -0.25 11.8125 C-0.23195313 10.66974609 -0.21390625 9.52699219 -0.1953125 8.34960938 C-0.14872548 5.56603472 -0.07700567 2.78289926 0 0 Z " fill="#231F20" transform="translate(925,396)"/>
<path d="M0 0 C5.28 0 10.56 0 16 0 C16 55.11 16 110.22 16 167 C10.72 167 5.44 167 0 167 C0 111.89 0 56.78 0 0 Z " fill="#231F20" transform="translate(2159,128)"/>
<path d="M0 0 C5.28 0 10.56 0 16 0 C16 51.15 16 102.3 16 155 C10.72 155 5.44 155 0 155 C0 103.85 0 52.7 0 0 Z " fill="#231F20" transform="translate(1006,128)"/>
<path d="M0 0 C34.65 0 69.3 0 105 0 C105 3.63 105 7.26 105 11 C89.49 11 73.98 11 58 11 C58 43.67 58 76.34 58 110 C54.37 110 50.74 110 47 110 C47 77.33 47 44.66 47 11 C31.49 11 15.98 11 0 11 C0 7.37 0 3.74 0 0 Z " fill="#231F20" transform="translate(1232,391)"/>
</svg>
